<?xml version="1.0" encoding="UTF-8" standalone="no"?>
<!DOCTYPE svg PUBLIC "-//W3C//DTD SVG 1.1//EN" "http://www.w3.org/Graphics/SVG/1.1/DTD/svg11.dtd">
<svg width="100%" height="100%" viewBox="0 0 1280 600" version="1.1" xmlns="http://www.w3.org/2000/svg" xmlns:xlink="http://www.w3.org/1999/xlink" xml:space="preserve" xmlns:serif="http://www.serif.com/" style="fill-rule:evenodd;clip-rule:evenodd;stroke-linecap:round;stroke-linejoin:round;stroke-miterlimit:1.5;">
    <g id="Solid-Core-Fiber" serif:id="Solid Core Fiber">
        <g transform="matrix(1.11369,0,0,1.0808,-87.0005,-73.4674)">
            <ellipse cx="279.951" cy="345.546" rx="89.791" ry="92.524" style="fill:rgb(155,218,250);stroke:rgb(37,91,150);stroke-width:3.8px;"/>
        </g>
        <g transform="matrix(0.94664,0,0,0.918683,-40.2336,-17.4473)">
            <ellipse cx="279.951" cy="345.546" rx="89.791" ry="92.524" style="fill:rgb(203,227,243);"/>
        </g>
    </g>
    <g id="Capillary">
        <g transform="matrix(1.11369,0,0,1.0808,679.327,-73.4674)">
            <ellipse cx="279.951" cy="345.546" rx="89.791" ry="92.524" style="fill:rgb(155,218,250);stroke:rgb(37,91,150);stroke-width:3.8px;"/>
        </g>
        <g transform="matrix(0.94664,0,0,0.918683,726.094,-17.4473)">
            <ellipse cx="279.951" cy="345.546" rx="89.791" ry="92.524" style="fill:white;"/>
        </g>
    </g>
    <g id="AntiResonant" transform="matrix(1,0,0,1,-300.555,0)">
        <g transform="matrix(1.11369,0,0,1.0808,679.327,-73.4674)">
            <ellipse cx="279.951" cy="345.546" rx="89.791" ry="92.524" style="fill:rgb(155,218,250);stroke:rgb(37,91,150);stroke-width:3.8px;"/>
        </g>
        <g transform="matrix(0.556847,0,0,0.540402,834.114,113.266)">
            <ellipse cx="279.951" cy="345.546" rx="89.791" ry="92.524" style="fill:white;"/>
        </g>
        <g>
            <g transform="matrix(0.167054,0,0,0.162121,943.237,178.98)">
                <ellipse cx="279.951" cy="345.546" rx="89.791" ry="92.524" style="fill:white;"/>
            </g>
            <g transform="matrix(0.167054,0,0,0.162121,1008.24,243.98)">
                <ellipse cx="279.951" cy="345.546" rx="89.791" ry="92.524" style="fill:white;"/>
            </g>
            <g transform="matrix(0.167054,0,0,0.162121,943.237,309.426)">
                <ellipse cx="279.951" cy="345.546" rx="89.791" ry="92.524" style="fill:white;"/>
            </g>
            <g transform="matrix(0.167054,0,0,0.162121,878.788,243.98)">
                <ellipse cx="279.951" cy="345.546" rx="89.791" ry="92.524" style="fill:white;"/>
            </g>
        </g>
        <g transform="matrix(0.707107,-0.707107,0.707107,0.707107,77.7564,788.167)">
            <g transform="matrix(0.167054,0,0,0.162121,943.237,178.98)">
                <ellipse cx="279.951" cy="345.546" rx="89.791" ry="92.524" style="fill:white;"/>
            </g>
            <g transform="matrix(0.167054,0,0,0.162121,1008.24,243.98)">
                <ellipse cx="279.951" cy="345.546" rx="89.791" ry="92.524" style="fill:white;"/>
            </g>
            <g transform="matrix(0.167054,0,0,0.162121,943.237,309.426)">
                <ellipse cx="279.951" cy="345.546" rx="89.791" ry="92.524" style="fill:white;"/>
            </g>
            <g transform="matrix(0.167054,0,0,0.162121,878.788,243.98)">
                <ellipse cx="279.951" cy="345.546" rx="89.791" ry="92.524" style="fill:white;"/>
            </g>
        </g>
    </g>
</svg>
