<?xml version="1.0" encoding="utf-8" standalone="no"?>
<!DOCTYPE svg PUBLIC "-//W3C//DTD SVG 1.1//EN"
  "http://www.w3.org/Graphics/SVG/1.1/DTD/svg11.dtd">
<svg xmlns:xlink="http://www.w3.org/1999/xlink" width="739.8pt" height="218.31615pt" viewBox="0 0 739.8 218.31615" xmlns="http://www.w3.org/2000/svg" version="1.1">
 <metadata>
  <rdf:RDF xmlns:dc="http://purl.org/dc/elements/1.1/" xmlns:cc="http://creativecommons.org/ns#" xmlns:rdf="http://www.w3.org/1999/02/22-rdf-syntax-ns#">
   <cc:Work>
    <dc:type rdf:resource="http://purl.org/dc/dcmitype/StillImage"/>
    <dc:date>2026-04-05T13:25:26.108715</dc:date>
    <dc:format>image/svg+xml</dc:format>
    <dc:creator>
     <cc:Agent>
      <dc:title>Matplotlib v3.10.8, https://matplotlib.org/</dc:title>
     </cc:Agent>
    </dc:creator>
   </cc:Work>
  </rdf:RDF>
 </metadata>
 <defs>
  <style type="text/css">*{stroke-linejoin: round; stroke-linecap: butt}</style>
 </defs>
 <g id="figure_1">
  <g id="patch_1">
   <path d="M 0 218.31615 
L 739.8 218.31615 
L 739.8 0 
L 0 0 
z
" style="fill: #ffffff"/>
  </g>
  <g id="axes_1">
   <g id="patch_2">
    <path d="M 94.59759 182.873944 
C 113.14008 182.873944 130.925613 175.506935 144.037133 162.395415 
C 157.148653 149.283895 164.515663 131.498361 164.515663 112.955872 
C 164.515663 94.413382 157.148653 76.627849 144.037133 63.516329 
C 130.925613 50.404808 113.14008 43.037799 94.59759 43.037799 
C 76.055101 43.037799 58.269567 50.404808 45.158047 63.516329 
C 32.046527 76.627849 24.679518 94.413382 24.679518 112.955872 
C 24.679518 131.498361 32.046527 149.283895 45.158047 162.395415 
C 58.269567 175.506935 76.055101 182.873944 94.59759 182.873944 
z
" clip-path="url(#p07a53559fd)" style="fill: #b0bec5; stroke: #44546a; stroke-width: 1.8; stroke-linejoin: miter"/>
   </g>
   <g id="patch_3">
    <path d="M 94.59759 133.931293 
C 100.160337 133.931293 105.495997 131.721191 109.429453 127.787735 
C 113.362909 123.854279 115.573012 118.518618 115.573012 112.955872 
C 115.573012 107.393125 113.362909 102.057465 109.429453 98.124009 
C 105.495997 94.190553 100.160337 91.98045 94.59759 91.98045 
C 89.034844 91.98045 83.699183 94.190553 79.765727 98.124009 
C 75.832271 102.057465 73.622169 107.393125 73.622169 112.955872 
C 73.622169 118.518618 75.832271 123.854279 79.765727 127.787735 
C 83.699183 131.721191 89.034844 133.931293 94.59759 133.931293 
z
" clip-path="url(#p07a53559fd)" style="fill: #607d8b; stroke: #44546a; stroke-width: 1.2; stroke-linejoin: miter"/>
   </g>
   <g id="text_1">
    <!-- Silica core -->
    <g style="fill: #44546a" transform="translate(75.418684 201.158025) scale(0.075 -0.075)">
     <defs>
      <path id="DejaVuSans-53" d="M 3425 4513 
L 3425 3897 
Q 3066 4069 2747 4153 
Q 2428 4238 2131 4238 
Q 1616 4238 1336 4038 
Q 1056 3838 1056 3469 
Q 1056 3159 1242 3001 
Q 1428 2844 1947 2747 
L 2328 2669 
Q 3034 2534 3370 2195 
Q 3706 1856 3706 1288 
Q 3706 609 3251 259 
Q 2797 -91 1919 -91 
Q 1588 -91 1214 -16 
Q 841 59 441 206 
L 441 856 
Q 825 641 1194 531 
Q 1563 422 1919 422 
Q 2459 422 2753 634 
Q 3047 847 3047 1241 
Q 3047 1584 2836 1778 
Q 2625 1972 2144 2069 
L 1759 2144 
Q 1053 2284 737 2584 
Q 422 2884 422 3419 
Q 422 4038 858 4394 
Q 1294 4750 2059 4750 
Q 2388 4750 2728 4690 
Q 3069 4631 3425 4513 
z
" transform="scale(0.015625)"/>
      <path id="DejaVuSans-69" d="M 603 3500 
L 1178 3500 
L 1178 0 
L 603 0 
L 603 3500 
z
M 603 4863 
L 1178 4863 
L 1178 4134 
L 603 4134 
L 603 4863 
z
" transform="scale(0.015625)"/>
      <path id="DejaVuSans-6c" d="M 603 4863 
L 1178 4863 
L 1178 0 
L 603 0 
L 603 4863 
z
" transform="scale(0.015625)"/>
      <path id="DejaVuSans-63" d="M 3122 3366 
L 3122 2828 
Q 2878 2963 2633 3030 
Q 2388 3097 2138 3097 
Q 1578 3097 1268 2742 
Q 959 2388 959 1747 
Q 959 1106 1268 751 
Q 1578 397 2138 397 
Q 2388 397 2633 464 
Q 2878 531 3122 666 
L 3122 134 
Q 2881 22 2623 -34 
Q 2366 -91 2075 -91 
Q 1284 -91 818 406 
Q 353 903 353 1747 
Q 353 2603 823 3093 
Q 1294 3584 2113 3584 
Q 2378 3584 2631 3529 
Q 2884 3475 3122 3366 
z
" transform="scale(0.015625)"/>
      <path id="DejaVuSans-61" d="M 2194 1759 
Q 1497 1759 1228 1600 
Q 959 1441 959 1056 
Q 959 750 1161 570 
Q 1363 391 1709 391 
Q 2188 391 2477 730 
Q 2766 1069 2766 1631 
L 2766 1759 
L 2194 1759 
z
M 3341 1997 
L 3341 0 
L 2766 0 
L 2766 531 
Q 2569 213 2275 61 
Q 1981 -91 1556 -91 
Q 1019 -91 701 211 
Q 384 513 384 1019 
Q 384 1609 779 1909 
Q 1175 2209 1959 2209 
L 2766 2209 
L 2766 2266 
Q 2766 2663 2505 2880 
Q 2244 3097 1772 3097 
Q 1472 3097 1187 3025 
Q 903 2953 641 2809 
L 641 3341 
Q 956 3463 1253 3523 
Q 1550 3584 1831 3584 
Q 2591 3584 2966 3190 
Q 3341 2797 3341 1997 
z
" transform="scale(0.015625)"/>
      <path id="DejaVuSans-20" transform="scale(0.015625)"/>
      <path id="DejaVuSans-6f" d="M 1959 3097 
Q 1497 3097 1228 2736 
Q 959 2375 959 1747 
Q 959 1119 1226 758 
Q 1494 397 1959 397 
Q 2419 397 2687 759 
Q 2956 1122 2956 1747 
Q 2956 2369 2687 2733 
Q 2419 3097 1959 3097 
z
M 1959 3584 
Q 2709 3584 3137 3096 
Q 3566 2609 3566 1747 
Q 3566 888 3137 398 
Q 2709 -91 1959 -91 
Q 1206 -91 779 398 
Q 353 888 353 1747 
Q 353 2609 779 3096 
Q 1206 3584 1959 3584 
z
" transform="scale(0.015625)"/>
      <path id="DejaVuSans-72" d="M 2631 2963 
Q 2534 3019 2420 3045 
Q 2306 3072 2169 3072 
Q 1681 3072 1420 2755 
Q 1159 2438 1159 1844 
L 1159 0 
L 581 0 
L 581 3500 
L 1159 3500 
L 1159 2956 
Q 1341 3275 1631 3429 
Q 1922 3584 2338 3584 
Q 2397 3584 2469 3576 
Q 2541 3569 2628 3553 
L 2631 2963 
z
" transform="scale(0.015625)"/>
      <path id="DejaVuSans-65" d="M 3597 1894 
L 3597 1613 
L 953 1613 
Q 991 1019 1311 708 
Q 1631 397 2203 397 
Q 2534 397 2845 478 
Q 3156 559 3463 722 
L 3463 178 
Q 3153 47 2828 -22 
Q 2503 -91 2169 -91 
Q 1331 -91 842 396 
Q 353 884 353 1716 
Q 353 2575 817 3079 
Q 1281 3584 2069 3584 
Q 2775 3584 3186 3129 
Q 3597 2675 3597 1894 
z
M 3022 2063 
Q 3016 2534 2758 2815 
Q 2500 3097 2075 3097 
Q 1594 3097 1305 2825 
Q 1016 2553 972 2059 
L 3022 2063 
z
" transform="scale(0.015625)"/>
     </defs>
     <use xlink:href="#DejaVuSans-53"/>
     <use xlink:href="#DejaVuSans-69" transform="translate(63.476562 0)"/>
     <use xlink:href="#DejaVuSans-6c" transform="translate(91.259766 0)"/>
     <use xlink:href="#DejaVuSans-69" transform="translate(119.042969 0)"/>
     <use xlink:href="#DejaVuSans-63" transform="translate(146.826172 0)"/>
     <use xlink:href="#DejaVuSans-61" transform="translate(201.806641 0)"/>
     <use xlink:href="#DejaVuSans-20" transform="translate(263.085938 0)"/>
     <use xlink:href="#DejaVuSans-63" transform="translate(294.873047 0)"/>
     <use xlink:href="#DejaVuSans-6f" transform="translate(349.853516 0)"/>
     <use xlink:href="#DejaVuSans-72" transform="translate(411.035156 0)"/>
     <use xlink:href="#DejaVuSans-65" transform="translate(449.898438 0)"/>
    </g>
    <!-- (n ≈ 1.45) -->
    <g style="fill: #44546a" transform="translate(75.41927 209.556384) scale(0.075 -0.075)">
     <defs>
      <path id="DejaVuSans-28" d="M 1984 4856 
Q 1566 4138 1362 3434 
Q 1159 2731 1159 2009 
Q 1159 1288 1364 580 
Q 1569 -128 1984 -844 
L 1484 -844 
Q 1016 -109 783 600 
Q 550 1309 550 2009 
Q 550 2706 781 3412 
Q 1013 4119 1484 4856 
L 1984 4856 
z
" transform="scale(0.015625)"/>
      <path id="DejaVuSans-6e" d="M 3513 2113 
L 3513 0 
L 2938 0 
L 2938 2094 
Q 2938 2591 2744 2837 
Q 2550 3084 2163 3084 
Q 1697 3084 1428 2787 
Q 1159 2491 1159 1978 
L 1159 0 
L 581 0 
L 581 3500 
L 1159 3500 
L 1159 2956 
Q 1366 3272 1645 3428 
Q 1925 3584 2291 3584 
Q 2894 3584 3203 3211 
Q 3513 2838 3513 2113 
z
" transform="scale(0.015625)"/>
      <path id="DejaVuSans-2248" d="M 4684 1947 
L 4684 1388 
Q 4356 1144 4076 1036 
Q 3797 928 3494 928 
Q 3150 928 2694 1113 
Q 2663 1125 2641 1134 
Q 2622 1141 2575 1159 
Q 2091 1350 1797 1350 
Q 1522 1350 1253 1231 
Q 984 1113 678 850 
L 678 1409 
Q 1006 1653 1286 1761 
Q 1566 1869 1869 1869 
Q 2213 1869 2672 1684 
Q 2706 1669 2722 1663 
Q 2741 1656 2788 1638 
Q 3272 1447 3566 1447 
Q 3834 1447 4098 1564 
Q 4363 1681 4684 1947 
z
M 4684 3163 
L 4684 2606 
Q 4356 2359 4076 2251 
Q 3797 2144 3494 2144 
Q 3150 2144 2694 2328 
Q 2663 2341 2641 2350 
Q 2622 2356 2575 2375 
Q 2091 2566 1797 2566 
Q 1522 2566 1253 2447 
Q 984 2328 678 2069 
L 678 2625 
Q 1006 2869 1286 2976 
Q 1566 3084 1869 3084 
Q 2213 3084 2672 2900 
Q 2703 2888 2719 2881 
Q 2741 2872 2788 2853 
Q 3272 2663 3566 2663 
Q 3834 2663 4098 2780 
Q 4363 2897 4684 3163 
z
" transform="scale(0.015625)"/>
      <path id="DejaVuSans-31" d="M 794 531 
L 1825 531 
L 1825 4091 
L 703 3866 
L 703 4441 
L 1819 4666 
L 2450 4666 
L 2450 531 
L 3481 531 
L 3481 0 
L 794 0 
L 794 531 
z
" transform="scale(0.015625)"/>
      <path id="DejaVuSans-2e" d="M 684 794 
L 1344 794 
L 1344 0 
L 684 0 
L 684 794 
z
" transform="scale(0.015625)"/>
      <path id="DejaVuSans-34" d="M 2419 4116 
L 825 1625 
L 2419 1625 
L 2419 4116 
z
M 2253 4666 
L 3047 4666 
L 3047 1625 
L 3713 1625 
L 3713 1100 
L 3047 1100 
L 3047 0 
L 2419 0 
L 2419 1100 
L 313 1100 
L 313 1709 
L 2253 4666 
z
" transform="scale(0.015625)"/>
      <path id="DejaVuSans-35" d="M 691 4666 
L 3169 4666 
L 3169 4134 
L 1269 4134 
L 1269 2991 
Q 1406 3038 1543 3061 
Q 1681 3084 1819 3084 
Q 2600 3084 3056 2656 
Q 3513 2228 3513 1497 
Q 3513 744 3044 326 
Q 2575 -91 1722 -91 
Q 1428 -91 1123 -41 
Q 819 9 494 109 
L 494 744 
Q 775 591 1075 516 
Q 1375 441 1709 441 
Q 2250 441 2565 725 
Q 2881 1009 2881 1497 
Q 2881 1984 2565 2268 
Q 2250 2553 1709 2553 
Q 1456 2553 1204 2497 
Q 953 2441 691 2322 
L 691 4666 
z
" transform="scale(0.015625)"/>
      <path id="DejaVuSans-29" d="M 513 4856 
L 1013 4856 
Q 1481 4119 1714 3412 
Q 1947 2706 1947 2009 
Q 1947 1309 1714 600 
Q 1481 -109 1013 -844 
L 513 -844 
Q 928 -128 1133 580 
Q 1338 1288 1338 2009 
Q 1338 2731 1133 3434 
Q 928 4138 513 4856 
z
" transform="scale(0.015625)"/>
     </defs>
     <use xlink:href="#DejaVuSans-28"/>
     <use xlink:href="#DejaVuSans-6e" transform="translate(39.013672 0)"/>
     <use xlink:href="#DejaVuSans-20" transform="translate(102.392578 0)"/>
     <use xlink:href="#DejaVuSans-2248" transform="translate(134.179688 0)"/>
     <use xlink:href="#DejaVuSans-20" transform="translate(217.96875 0)"/>
     <use xlink:href="#DejaVuSans-31" transform="translate(249.755859 0)"/>
     <use xlink:href="#DejaVuSans-2e" transform="translate(313.378906 0)"/>
     <use xlink:href="#DejaVuSans-34" transform="translate(345.166016 0)"/>
     <use xlink:href="#DejaVuSans-35" transform="translate(408.789062 0)"/>
     <use xlink:href="#DejaVuSans-29" transform="translate(472.412109 0)"/>
    </g>
   </g>
   <g id="text_2">
    <!-- Solid-Core Fibre -->
    <g style="fill: #44546a" transform="translate(51.427747 15.558281) scale(0.11 -0.11)">
     <defs>
      <path id="DejaVuSans-64" d="M 2906 2969 
L 2906 4863 
L 3481 4863 
L 3481 0 
L 2906 0 
L 2906 525 
Q 2725 213 2448 61 
Q 2172 -91 1784 -91 
Q 1150 -91 751 415 
Q 353 922 353 1747 
Q 353 2572 751 3078 
Q 1150 3584 1784 3584 
Q 2172 3584 2448 3432 
Q 2725 3281 2906 2969 
z
M 947 1747 
Q 947 1113 1208 752 
Q 1469 391 1925 391 
Q 2381 391 2643 752 
Q 2906 1113 2906 1747 
Q 2906 2381 2643 2742 
Q 2381 3103 1925 3103 
Q 1469 3103 1208 2742 
Q 947 2381 947 1747 
z
" transform="scale(0.015625)"/>
      <path id="DejaVuSans-2d" d="M 313 2009 
L 1997 2009 
L 1997 1497 
L 313 1497 
L 313 2009 
z
" transform="scale(0.015625)"/>
      <path id="DejaVuSans-43" d="M 4122 4306 
L 4122 3641 
Q 3803 3938 3442 4084 
Q 3081 4231 2675 4231 
Q 1875 4231 1450 3742 
Q 1025 3253 1025 2328 
Q 1025 1406 1450 917 
Q 1875 428 2675 428 
Q 3081 428 3442 575 
Q 3803 722 4122 1019 
L 4122 359 
Q 3791 134 3420 21 
Q 3050 -91 2638 -91 
Q 1578 -91 968 557 
Q 359 1206 359 2328 
Q 359 3453 968 4101 
Q 1578 4750 2638 4750 
Q 3056 4750 3426 4639 
Q 3797 4528 4122 4306 
z
" transform="scale(0.015625)"/>
      <path id="DejaVuSans-46" d="M 628 4666 
L 3309 4666 
L 3309 4134 
L 1259 4134 
L 1259 2759 
L 3109 2759 
L 3109 2228 
L 1259 2228 
L 1259 0 
L 628 0 
L 628 4666 
z
" transform="scale(0.015625)"/>
      <path id="DejaVuSans-62" d="M 3116 1747 
Q 3116 2381 2855 2742 
Q 2594 3103 2138 3103 
Q 1681 3103 1420 2742 
Q 1159 2381 1159 1747 
Q 1159 1113 1420 752 
Q 1681 391 2138 391 
Q 2594 391 2855 752 
Q 3116 1113 3116 1747 
z
M 1159 2969 
Q 1341 3281 1617 3432 
Q 1894 3584 2278 3584 
Q 2916 3584 3314 3078 
Q 3713 2572 3713 1747 
Q 3713 922 3314 415 
Q 2916 -91 2278 -91 
Q 1894 -91 1617 61 
Q 1341 213 1159 525 
L 1159 0 
L 581 0 
L 581 4863 
L 1159 4863 
L 1159 2969 
z
" transform="scale(0.015625)"/>
     </defs>
     <use xlink:href="#DejaVuSans-53"/>
     <use xlink:href="#DejaVuSans-6f" transform="translate(63.476562 0)"/>
     <use xlink:href="#DejaVuSans-6c" transform="translate(124.658203 0)"/>
     <use xlink:href="#DejaVuSans-69" transform="translate(152.441406 0)"/>
     <use xlink:href="#DejaVuSans-64" transform="translate(180.224609 0)"/>
     <use xlink:href="#DejaVuSans-2d" transform="translate(243.701172 0)"/>
     <use xlink:href="#DejaVuSans-43" transform="translate(279.785156 0)"/>
     <use xlink:href="#DejaVuSans-6f" transform="translate(349.609375 0)"/>
     <use xlink:href="#DejaVuSans-72" transform="translate(410.791016 0)"/>
     <use xlink:href="#DejaVuSans-65" transform="translate(449.654297 0)"/>
     <use xlink:href="#DejaVuSans-20" transform="translate(511.177734 0)"/>
     <use xlink:href="#DejaVuSans-46" transform="translate(542.964844 0)"/>
     <use xlink:href="#DejaVuSans-69" transform="translate(593.234375 0)"/>
     <use xlink:href="#DejaVuSans-62" transform="translate(621.017578 0)"/>
     <use xlink:href="#DejaVuSans-72" transform="translate(684.494141 0)"/>
     <use xlink:href="#DejaVuSans-65" transform="translate(723.357422 0)"/>
    </g>
   </g>
  </g>
  <g id="axes_2">
   <g id="patch_4">
    <path d="M 278.13253 182.873944 
C 296.67502 182.873944 314.460553 175.506935 327.572073 162.395415 
C 340.683593 149.283895 348.050602 131.498361 348.050602 112.955872 
C 348.050602 94.413382 340.683593 76.627849 327.572073 63.516329 
C 314.460553 50.404808 296.67502 43.037799 278.13253 43.037799 
C 259.590041 43.037799 241.804507 50.404808 228.692987 63.516329 
C 215.581467 76.627849 208.214458 94.413382 208.214458 112.955872 
C 208.214458 131.498361 215.581467 149.283895 228.692987 162.395415 
C 241.804507 175.506935 259.590041 182.873944 278.13253 182.873944 
z
" clip-path="url(#p2522d2d848)" style="fill: #b0bec5; stroke: #44546a; stroke-width: 1.8; stroke-linejoin: miter"/>
   </g>
   <g id="patch_5">
    <path d="M 228.315904 103.739464 
C 230.44829 103.739464 232.493626 102.892258 234.001451 101.384433 
C 235.509276 99.876609 236.356482 97.831272 236.356482 95.698886 
C 236.356482 93.5665 235.509276 91.521163 234.001451 90.013339 
C 232.493626 88.505514 230.44829 87.658308 228.315904 87.658308 
C 226.183517 87.658308 224.138181 88.505514 222.630356 90.013339 
C 221.122531 91.521163 220.275325 93.5665 220.275325 95.698886 
C 220.275325 97.831272 221.122531 99.876609 222.630356 101.384433 
C 224.138181 102.892258 226.183517 103.739464 228.315904 103.739464 
z
" clip-path="url(#p2522d2d848)" style="fill: #ffffff; stroke: #78909c; stroke-width: 0.5; stroke-linejoin: miter"/>
   </g>
   <g id="patch_6">
    <path d="M 238.279229 86.482479 
C 240.411615 86.482479 242.456952 85.635273 243.964776 84.127448 
C 245.472601 82.619623 246.319807 80.574287 246.319807 78.4419 
C 246.319807 76.309514 245.472601 74.264178 243.964776 72.756353 
C 242.456952 71.248528 240.411615 70.401322 238.279229 70.401322 
C 236.146843 70.401322 234.101506 71.248528 232.593681 72.756353 
C 231.085857 74.264178 230.238651 76.309514 230.238651 78.4419 
C 230.238651 80.574287 231.085857 82.619623 232.593681 84.127448 
C 234.101506 85.635273 236.146843 86.482479 238.279229 86.482479 
z
" clip-path="url(#p2522d2d848)" style="fill: #ffffff; stroke: #78909c; stroke-width: 0.5; stroke-linejoin: miter"/>
   </g>
   <g id="patch_7">
    <path d="M 228.315904 138.253436 
C 230.44829 138.253436 232.493626 137.40623 234.001451 135.898405 
C 235.509276 134.39058 236.356482 132.345244 236.356482 130.212857 
C 236.356482 128.080471 235.509276 126.035135 234.001451 124.52731 
C 232.493626 123.019485 230.44829 122.172279 228.315904 122.172279 
C 226.183517 122.172279 224.138181 123.019485 222.630356 124.52731 
C 221.122531 126.035135 220.275325 128.080471 220.275325 130.212857 
C 220.275325 132.345244 221.122531 134.39058 222.630356 135.898405 
C 224.138181 137.40623 226.183517 138.253436 228.315904 138.253436 
z
" clip-path="url(#p2522d2d848)" style="fill: #ffffff; stroke: #78909c; stroke-width: 0.5; stroke-linejoin: miter"/>
   </g>
   <g id="patch_8">
    <path d="M 238.279229 120.99645 
C 240.411615 120.99645 242.456952 120.149244 243.964776 118.641419 
C 245.472601 117.133594 246.319807 115.088258 246.319807 112.955872 
C 246.319807 110.823485 245.472601 108.778149 243.964776 107.270324 
C 242.456952 105.762499 240.411615 104.915293 238.279229 104.915293 
C 236.146843 104.915293 234.101506 105.762499 232.593681 107.270324 
C 231.085857 108.778149 230.238651 110.823485 230.238651 112.955872 
C 230.238651 115.088258 231.085857 117.133594 232.593681 118.641419 
C 234.101506 120.149244 236.146843 120.99645 238.279229 120.99645 
z
" clip-path="url(#p2522d2d848)" style="fill: #ffffff; stroke: #78909c; stroke-width: 0.5; stroke-linejoin: miter"/>
   </g>
   <g id="patch_9">
    <path d="M 248.242554 103.739464 
C 250.374941 103.739464 252.420277 102.892258 253.928102 101.384433 
C 255.435926 99.876609 256.283133 97.831272 256.283133 95.698886 
C 256.283133 93.5665 255.435926 91.521163 253.928102 90.013339 
C 252.420277 88.505514 250.374941 87.658308 248.242554 87.658308 
C 246.110168 87.658308 244.064832 88.505514 242.557007 90.013339 
C 241.049182 91.521163 240.201976 93.5665 240.201976 95.698886 
C 240.201976 97.831272 241.049182 99.876609 242.557007 101.384433 
C 244.064832 102.892258 246.110168 103.739464 248.242554 103.739464 
z
" clip-path="url(#p2522d2d848)" style="fill: #ffffff; stroke: #78909c; stroke-width: 0.5; stroke-linejoin: miter"/>
   </g>
   <g id="patch_10">
    <path d="M 258.20588 86.482479 
C 260.338266 86.482479 262.383602 85.635273 263.891427 84.127448 
C 265.399252 82.619623 266.246458 80.574287 266.246458 78.4419 
C 266.246458 76.309514 265.399252 74.264178 263.891427 72.756353 
C 262.383602 71.248528 260.338266 70.401322 258.20588 70.401322 
C 256.073493 70.401322 254.028157 71.248528 252.520332 72.756353 
C 251.012507 74.264178 250.165301 76.309514 250.165301 78.4419 
C 250.165301 80.574287 251.012507 82.619623 252.520332 84.127448 
C 254.028157 85.635273 256.073493 86.482479 258.20588 86.482479 
z
" clip-path="url(#p2522d2d848)" style="fill: #ffffff; stroke: #78909c; stroke-width: 0.5; stroke-linejoin: miter"/>
   </g>
   <g id="patch_11">
    <path d="M 268.169205 69.225493 
C 270.301591 69.225493 272.346927 68.378287 273.854752 66.870462 
C 275.362577 65.362637 276.209783 63.317301 276.209783 61.184915 
C 276.209783 59.052528 275.362577 57.007192 273.854752 55.499367 
C 272.346927 53.991542 270.301591 53.144336 268.169205 53.144336 
C 266.036819 53.144336 263.991482 53.991542 262.483657 55.499367 
C 260.975833 57.007192 260.128627 59.052528 260.128627 61.184915 
C 260.128627 63.317301 260.975833 65.362637 262.483657 66.870462 
C 263.991482 68.378287 266.036819 69.225493 268.169205 69.225493 
z
" clip-path="url(#p2522d2d848)" style="fill: #ffffff; stroke: #78909c; stroke-width: 0.5; stroke-linejoin: miter"/>
   </g>
   <g id="patch_12">
    <path d="M 238.279229 155.510421 
C 240.411615 155.510421 242.456952 154.663215 243.964776 153.15539 
C 245.472601 151.647566 246.319807 149.602229 246.319807 147.469843 
C 246.319807 145.337457 245.472601 143.29212 243.964776 141.784295 
C 242.456952 140.276471 240.411615 139.429265 238.279229 139.429265 
C 236.146843 139.429265 234.101506 140.276471 232.593681 141.784295 
C 231.085857 143.29212 230.238651 145.337457 230.238651 147.469843 
C 230.238651 149.602229 231.085857 151.647566 232.593681 153.15539 
C 234.101506 154.663215 236.146843 155.510421 238.279229 155.510421 
z
" clip-path="url(#p2522d2d848)" style="fill: #ffffff; stroke: #78909c; stroke-width: 0.5; stroke-linejoin: miter"/>
   </g>
   <g id="patch_13">
    <path d="M 248.242554 138.253436 
C 250.374941 138.253436 252.420277 137.40623 253.928102 135.898405 
C 255.435926 134.39058 256.283133 132.345244 256.283133 130.212857 
C 256.283133 128.080471 255.435926 126.035135 253.928102 124.52731 
C 252.420277 123.019485 250.374941 122.172279 248.242554 122.172279 
C 246.110168 122.172279 244.064832 123.019485 242.557007 124.52731 
C 241.049182 126.035135 240.201976 128.080471 240.201976 130.212857 
C 240.201976 132.345244 241.049182 134.39058 242.557007 135.898405 
C 244.064832 137.40623 246.110168 138.253436 248.242554 138.253436 
z
" clip-path="url(#p2522d2d848)" style="fill: #ffffff; stroke: #78909c; stroke-width: 0.5; stroke-linejoin: miter"/>
   </g>
   <g id="patch_14">
    <path d="M 278.13253 86.482479 
C 280.264916 86.482479 282.310253 85.635273 283.818078 84.127448 
C 285.325902 82.619623 286.173108 80.574287 286.173108 78.4419 
C 286.173108 76.309514 285.325902 74.264178 283.818078 72.756353 
C 282.310253 71.248528 280.264916 70.401322 278.13253 70.401322 
C 276.000144 70.401322 273.954807 71.248528 272.446983 72.756353 
C 270.939158 74.264178 270.091952 76.309514 270.091952 78.4419 
C 270.091952 80.574287 270.939158 82.619623 272.446983 84.127448 
C 273.954807 85.635273 276.000144 86.482479 278.13253 86.482479 
z
" clip-path="url(#p2522d2d848)" style="fill: #ffffff; stroke: #78909c; stroke-width: 0.5; stroke-linejoin: miter"/>
   </g>
   <g id="patch_15">
    <path d="M 288.095855 69.225493 
C 290.228242 69.225493 292.273578 68.378287 293.781403 66.870462 
C 295.289228 65.362637 296.136434 63.317301 296.136434 61.184915 
C 296.136434 59.052528 295.289228 57.007192 293.781403 55.499367 
C 292.273578 53.991542 290.228242 53.144336 288.095855 53.144336 
C 285.963469 53.144336 283.918133 53.991542 282.410308 55.499367 
C 280.902483 57.007192 280.055277 59.052528 280.055277 61.184915 
C 280.055277 63.317301 280.902483 65.362637 282.410308 66.870462 
C 283.918133 68.378287 285.963469 69.225493 288.095855 69.225493 
z
" clip-path="url(#p2522d2d848)" style="fill: #ffffff; stroke: #78909c; stroke-width: 0.5; stroke-linejoin: miter"/>
   </g>
   <g id="patch_16">
    <path d="M 258.20588 155.510421 
C 260.338266 155.510421 262.383602 154.663215 263.891427 153.15539 
C 265.399252 151.647566 266.246458 149.602229 266.246458 147.469843 
C 266.246458 145.337457 265.399252 143.29212 263.891427 141.784295 
C 262.383602 140.276471 260.338266 139.429265 258.20588 139.429265 
C 256.073493 139.429265 254.028157 140.276471 252.520332 141.784295 
C 251.012507 143.29212 250.165301 145.337457 250.165301 147.469843 
C 250.165301 149.602229 251.012507 151.647566 252.520332 153.15539 
C 254.028157 154.663215 256.073493 155.510421 258.20588 155.510421 
z
" clip-path="url(#p2522d2d848)" style="fill: #ffffff; stroke: #78909c; stroke-width: 0.5; stroke-linejoin: miter"/>
   </g>
   <g id="patch_17">
    <path d="M 298.059181 86.482479 
C 300.191567 86.482479 302.236903 85.635273 303.744728 84.127448 
C 305.252553 82.619623 306.099759 80.574287 306.099759 78.4419 
C 306.099759 76.309514 305.252553 74.264178 303.744728 72.756353 
C 302.236903 71.248528 300.191567 70.401322 298.059181 70.401322 
C 295.926794 70.401322 293.881458 71.248528 292.373633 72.756353 
C 290.865808 74.264178 290.018602 76.309514 290.018602 78.4419 
C 290.018602 80.574287 290.865808 82.619623 292.373633 84.127448 
C 293.881458 85.635273 295.926794 86.482479 298.059181 86.482479 
z
" clip-path="url(#p2522d2d848)" style="fill: #ffffff; stroke: #78909c; stroke-width: 0.5; stroke-linejoin: miter"/>
   </g>
   <g id="patch_18">
    <path d="M 268.169205 172.767407 
C 270.301591 172.767407 272.346927 171.920201 273.854752 170.412376 
C 275.362577 168.904551 276.209783 166.859215 276.209783 164.726829 
C 276.209783 162.594442 275.362577 160.549106 273.854752 159.041281 
C 272.346927 157.533456 270.301591 156.68625 268.169205 156.68625 
C 266.036819 156.68625 263.991482 157.533456 262.483657 159.041281 
C 260.975833 160.549106 260.128627 162.594442 260.128627 164.726829 
C 260.128627 166.859215 260.975833 168.904551 262.483657 170.412376 
C 263.991482 171.920201 266.036819 172.767407 268.169205 172.767407 
z
" clip-path="url(#p2522d2d848)" style="fill: #ffffff; stroke: #78909c; stroke-width: 0.5; stroke-linejoin: miter"/>
   </g>
   <g id="patch_19">
    <path d="M 278.13253 155.510421 
C 280.264916 155.510421 282.310253 154.663215 283.818078 153.15539 
C 285.325902 151.647566 286.173108 149.602229 286.173108 147.469843 
C 286.173108 145.337457 285.325902 143.29212 283.818078 141.784295 
C 282.310253 140.276471 280.264916 139.429265 278.13253 139.429265 
C 276.000144 139.429265 273.954807 140.276471 272.446983 141.784295 
C 270.939158 143.29212 270.091952 145.337457 270.091952 147.469843 
C 270.091952 149.602229 270.939158 151.647566 272.446983 153.15539 
C 273.954807 154.663215 276.000144 155.510421 278.13253 155.510421 
z
" clip-path="url(#p2522d2d848)" style="fill: #ffffff; stroke: #78909c; stroke-width: 0.5; stroke-linejoin: miter"/>
   </g>
   <g id="patch_20">
    <path d="M 308.022506 103.739464 
C 310.154892 103.739464 312.200229 102.892258 313.708053 101.384433 
C 315.215878 99.876609 316.063084 97.831272 316.063084 95.698886 
C 316.063084 93.5665 315.215878 91.521163 313.708053 90.013339 
C 312.200229 88.505514 310.154892 87.658308 308.022506 87.658308 
C 305.89012 87.658308 303.844783 88.505514 302.336959 90.013339 
C 300.829134 91.521163 299.981928 93.5665 299.981928 95.698886 
C 299.981928 97.831272 300.829134 99.876609 302.336959 101.384433 
C 303.844783 102.892258 305.89012 103.739464 308.022506 103.739464 
z
" clip-path="url(#p2522d2d848)" style="fill: #ffffff; stroke: #78909c; stroke-width: 0.5; stroke-linejoin: miter"/>
   </g>
   <g id="patch_21">
    <path d="M 317.985831 86.482479 
C 320.118218 86.482479 322.163554 85.635273 323.671379 84.127448 
C 325.179204 82.619623 326.02641 80.574287 326.02641 78.4419 
C 326.02641 76.309514 325.179204 74.264178 323.671379 72.756353 
C 322.163554 71.248528 320.118218 70.401322 317.985831 70.401322 
C 315.853445 70.401322 313.808109 71.248528 312.300284 72.756353 
C 310.792459 74.264178 309.945253 76.309514 309.945253 78.4419 
C 309.945253 80.574287 310.792459 82.619623 312.300284 84.127448 
C 313.808109 85.635273 315.853445 86.482479 317.985831 86.482479 
z
" clip-path="url(#p2522d2d848)" style="fill: #ffffff; stroke: #78909c; stroke-width: 0.5; stroke-linejoin: miter"/>
   </g>
   <g id="patch_22">
    <path d="M 288.095855 172.767407 
C 290.228242 172.767407 292.273578 171.920201 293.781403 170.412376 
C 295.289228 168.904551 296.136434 166.859215 296.136434 164.726829 
C 296.136434 162.594442 295.289228 160.549106 293.781403 159.041281 
C 292.273578 157.533456 290.228242 156.68625 288.095855 156.68625 
C 285.963469 156.68625 283.918133 157.533456 282.410308 159.041281 
C 280.902483 160.549106 280.055277 162.594442 280.055277 164.726829 
C 280.055277 166.859215 280.902483 168.904551 282.410308 170.412376 
C 283.918133 171.920201 285.963469 172.767407 288.095855 172.767407 
z
" clip-path="url(#p2522d2d848)" style="fill: #ffffff; stroke: #78909c; stroke-width: 0.5; stroke-linejoin: miter"/>
   </g>
   <g id="patch_23">
    <path d="M 298.059181 155.510421 
C 300.191567 155.510421 302.236903 154.663215 303.744728 153.15539 
C 305.252553 151.647566 306.099759 149.602229 306.099759 147.469843 
C 306.099759 145.337457 305.252553 143.29212 303.744728 141.784295 
C 302.236903 140.276471 300.191567 139.429265 298.059181 139.429265 
C 295.926794 139.429265 293.881458 140.276471 292.373633 141.784295 
C 290.865808 143.29212 290.018602 145.337457 290.018602 147.469843 
C 290.018602 149.602229 290.865808 151.647566 292.373633 153.15539 
C 293.881458 154.663215 295.926794 155.510421 298.059181 155.510421 
z
" clip-path="url(#p2522d2d848)" style="fill: #ffffff; stroke: #78909c; stroke-width: 0.5; stroke-linejoin: miter"/>
   </g>
   <g id="patch_24">
    <path d="M 308.022506 138.253436 
C 310.154892 138.253436 312.200229 137.40623 313.708053 135.898405 
C 315.215878 134.39058 316.063084 132.345244 316.063084 130.212857 
C 316.063084 128.080471 315.215878 126.035135 313.708053 124.52731 
C 312.200229 123.019485 310.154892 122.172279 308.022506 122.172279 
C 305.89012 122.172279 303.844783 123.019485 302.336959 124.52731 
C 300.829134 126.035135 299.981928 128.080471 299.981928 130.212857 
C 299.981928 132.345244 300.829134 134.39058 302.336959 135.898405 
C 303.844783 137.40623 305.89012 138.253436 308.022506 138.253436 
z
" clip-path="url(#p2522d2d848)" style="fill: #ffffff; stroke: #78909c; stroke-width: 0.5; stroke-linejoin: miter"/>
   </g>
   <g id="patch_25">
    <path d="M 317.985831 120.99645 
C 320.118218 120.99645 322.163554 120.149244 323.671379 118.641419 
C 325.179204 117.133594 326.02641 115.088258 326.02641 112.955872 
C 326.02641 110.823485 325.179204 108.778149 323.671379 107.270324 
C 322.163554 105.762499 320.118218 104.915293 317.985831 104.915293 
C 315.853445 104.915293 313.808109 105.762499 312.300284 107.270324 
C 310.792459 108.778149 309.945253 110.823485 309.945253 112.955872 
C 309.945253 115.088258 310.792459 117.133594 312.300284 118.641419 
C 313.808109 120.149244 315.853445 120.99645 317.985831 120.99645 
z
" clip-path="url(#p2522d2d848)" style="fill: #ffffff; stroke: #78909c; stroke-width: 0.5; stroke-linejoin: miter"/>
   </g>
   <g id="patch_26">
    <path d="M 327.949157 103.739464 
C 330.081543 103.739464 332.126879 102.892258 333.634704 101.384433 
C 335.142529 99.876609 335.989735 97.831272 335.989735 95.698886 
C 335.989735 93.5665 335.142529 91.521163 333.634704 90.013339 
C 332.126879 88.505514 330.081543 87.658308 327.949157 87.658308 
C 325.81677 87.658308 323.771434 88.505514 322.263609 90.013339 
C 320.755784 91.521163 319.908578 93.5665 319.908578 95.698886 
C 319.908578 97.831272 320.755784 99.876609 322.263609 101.384433 
C 323.771434 102.892258 325.81677 103.739464 327.949157 103.739464 
z
" clip-path="url(#p2522d2d848)" style="fill: #ffffff; stroke: #78909c; stroke-width: 0.5; stroke-linejoin: miter"/>
   </g>
   <g id="patch_27">
    <path d="M 317.985831 155.510421 
C 320.118218 155.510421 322.163554 154.663215 323.671379 153.15539 
C 325.179204 151.647566 326.02641 149.602229 326.02641 147.469843 
C 326.02641 145.337457 325.179204 143.29212 323.671379 141.784295 
C 322.163554 140.276471 320.118218 139.429265 317.985831 139.429265 
C 315.853445 139.429265 313.808109 140.276471 312.300284 141.784295 
C 310.792459 143.29212 309.945253 145.337457 309.945253 147.469843 
C 309.945253 149.602229 310.792459 151.647566 312.300284 153.15539 
C 313.808109 154.663215 315.853445 155.510421 317.985831 155.510421 
z
" clip-path="url(#p2522d2d848)" style="fill: #ffffff; stroke: #78909c; stroke-width: 0.5; stroke-linejoin: miter"/>
   </g>
   <g id="patch_28">
    <path d="M 327.949157 138.253436 
C 330.081543 138.253436 332.126879 137.40623 333.634704 135.898405 
C 335.142529 134.39058 335.989735 132.345244 335.989735 130.212857 
C 335.989735 128.080471 335.142529 126.035135 333.634704 124.52731 
C 332.126879 123.019485 330.081543 122.172279 327.949157 122.172279 
C 325.81677 122.172279 323.771434 123.019485 322.263609 124.52731 
C 320.755784 126.035135 319.908578 128.080471 319.908578 130.212857 
C 319.908578 132.345244 320.755784 134.39058 322.263609 135.898405 
C 323.771434 137.40623 325.81677 138.253436 327.949157 138.253436 
z
" clip-path="url(#p2522d2d848)" style="fill: #ffffff; stroke: #78909c; stroke-width: 0.5; stroke-linejoin: miter"/>
   </g>
   <g id="patch_29">
    <path d="M 278.13253 133.931293 
C 283.695277 133.931293 289.030937 131.721191 292.964393 127.787735 
C 296.897849 123.854279 299.107952 118.518618 299.107952 112.955872 
C 299.107952 107.393125 296.897849 102.057465 292.964393 98.124009 
C 289.030937 94.190553 283.695277 91.98045 278.13253 91.98045 
C 272.569783 91.98045 267.234123 94.190553 263.300667 98.124009 
C 259.367211 102.057465 257.157108 107.393125 257.157108 112.955872 
C 257.157108 118.518618 259.367211 123.854279 263.300667 127.787735 
C 267.234123 131.721191 272.569783 133.931293 278.13253 133.931293 
z
" clip-path="url(#p2522d2d848)" style="fill: #ffffff; stroke: #44546a; stroke-width: 1.4; stroke-linejoin: miter"/>
   </g>
   <g id="text_3">
    <!-- Hollow core -->
    <g style="fill: #44546a" transform="translate(256.260069 201.158025) scale(0.075 -0.075)">
     <defs>
      <path id="DejaVuSans-48" d="M 628 4666 
L 1259 4666 
L 1259 2753 
L 3553 2753 
L 3553 4666 
L 4184 4666 
L 4184 0 
L 3553 0 
L 3553 2222 
L 1259 2222 
L 1259 0 
L 628 0 
L 628 4666 
z
" transform="scale(0.015625)"/>
      <path id="DejaVuSans-77" d="M 269 3500 
L 844 3500 
L 1563 769 
L 2278 3500 
L 2956 3500 
L 3675 769 
L 4391 3500 
L 4966 3500 
L 4050 0 
L 3372 0 
L 2619 2869 
L 1863 0 
L 1184 0 
L 269 3500 
z
" transform="scale(0.015625)"/>
     </defs>
     <use xlink:href="#DejaVuSans-48"/>
     <use xlink:href="#DejaVuSans-6f" transform="translate(75.195312 0)"/>
     <use xlink:href="#DejaVuSans-6c" transform="translate(136.376953 0)"/>
     <use xlink:href="#DejaVuSans-6c" transform="translate(164.160156 0)"/>
     <use xlink:href="#DejaVuSans-6f" transform="translate(191.943359 0)"/>
     <use xlink:href="#DejaVuSans-77" transform="translate(253.125 0)"/>
     <use xlink:href="#DejaVuSans-20" transform="translate(334.912109 0)"/>
     <use xlink:href="#DejaVuSans-63" transform="translate(366.699219 0)"/>
     <use xlink:href="#DejaVuSans-6f" transform="translate(421.679688 0)"/>
     <use xlink:href="#DejaVuSans-72" transform="translate(482.861328 0)"/>
     <use xlink:href="#DejaVuSans-65" transform="translate(521.724609 0)"/>
    </g>
    <!-- Periodic photonic crystal cladding -->
    <g style="fill: #44546a" transform="translate(214.916905 209.556384) scale(0.075 -0.075)">
     <defs>
      <path id="DejaVuSans-50" d="M 1259 4147 
L 1259 2394 
L 2053 2394 
Q 2494 2394 2734 2622 
Q 2975 2850 2975 3272 
Q 2975 3691 2734 3919 
Q 2494 4147 2053 4147 
L 1259 4147 
z
M 628 4666 
L 2053 4666 
Q 2838 4666 3239 4311 
Q 3641 3956 3641 3272 
Q 3641 2581 3239 2228 
Q 2838 1875 2053 1875 
L 1259 1875 
L 1259 0 
L 628 0 
L 628 4666 
z
" transform="scale(0.015625)"/>
      <path id="DejaVuSans-70" d="M 1159 525 
L 1159 -1331 
L 581 -1331 
L 581 3500 
L 1159 3500 
L 1159 2969 
Q 1341 3281 1617 3432 
Q 1894 3584 2278 3584 
Q 2916 3584 3314 3078 
Q 3713 2572 3713 1747 
Q 3713 922 3314 415 
Q 2916 -91 2278 -91 
Q 1894 -91 1617 61 
Q 1341 213 1159 525 
z
M 3116 1747 
Q 3116 2381 2855 2742 
Q 2594 3103 2138 3103 
Q 1681 3103 1420 2742 
Q 1159 2381 1159 1747 
Q 1159 1113 1420 752 
Q 1681 391 2138 391 
Q 2594 391 2855 752 
Q 3116 1113 3116 1747 
z
" transform="scale(0.015625)"/>
      <path id="DejaVuSans-68" d="M 3513 2113 
L 3513 0 
L 2938 0 
L 2938 2094 
Q 2938 2591 2744 2837 
Q 2550 3084 2163 3084 
Q 1697 3084 1428 2787 
Q 1159 2491 1159 1978 
L 1159 0 
L 581 0 
L 581 4863 
L 1159 4863 
L 1159 2956 
Q 1366 3272 1645 3428 
Q 1925 3584 2291 3584 
Q 2894 3584 3203 3211 
Q 3513 2838 3513 2113 
z
" transform="scale(0.015625)"/>
      <path id="DejaVuSans-74" d="M 1172 4494 
L 1172 3500 
L 2356 3500 
L 2356 3053 
L 1172 3053 
L 1172 1153 
Q 1172 725 1289 603 
Q 1406 481 1766 481 
L 2356 481 
L 2356 0 
L 1766 0 
Q 1100 0 847 248 
Q 594 497 594 1153 
L 594 3053 
L 172 3053 
L 172 3500 
L 594 3500 
L 594 4494 
L 1172 4494 
z
" transform="scale(0.015625)"/>
      <path id="DejaVuSans-79" d="M 2059 -325 
Q 1816 -950 1584 -1140 
Q 1353 -1331 966 -1331 
L 506 -1331 
L 506 -850 
L 844 -850 
Q 1081 -850 1212 -737 
Q 1344 -625 1503 -206 
L 1606 56 
L 191 3500 
L 800 3500 
L 1894 763 
L 2988 3500 
L 3597 3500 
L 2059 -325 
z
" transform="scale(0.015625)"/>
      <path id="DejaVuSans-73" d="M 2834 3397 
L 2834 2853 
Q 2591 2978 2328 3040 
Q 2066 3103 1784 3103 
Q 1356 3103 1142 2972 
Q 928 2841 928 2578 
Q 928 2378 1081 2264 
Q 1234 2150 1697 2047 
L 1894 2003 
Q 2506 1872 2764 1633 
Q 3022 1394 3022 966 
Q 3022 478 2636 193 
Q 2250 -91 1575 -91 
Q 1294 -91 989 -36 
Q 684 19 347 128 
L 347 722 
Q 666 556 975 473 
Q 1284 391 1588 391 
Q 1994 391 2212 530 
Q 2431 669 2431 922 
Q 2431 1156 2273 1281 
Q 2116 1406 1581 1522 
L 1381 1569 
Q 847 1681 609 1914 
Q 372 2147 372 2553 
Q 372 3047 722 3315 
Q 1072 3584 1716 3584 
Q 2034 3584 2315 3537 
Q 2597 3491 2834 3397 
z
" transform="scale(0.015625)"/>
      <path id="DejaVuSans-67" d="M 2906 1791 
Q 2906 2416 2648 2759 
Q 2391 3103 1925 3103 
Q 1463 3103 1205 2759 
Q 947 2416 947 1791 
Q 947 1169 1205 825 
Q 1463 481 1925 481 
Q 2391 481 2648 825 
Q 2906 1169 2906 1791 
z
M 3481 434 
Q 3481 -459 3084 -895 
Q 2688 -1331 1869 -1331 
Q 1566 -1331 1297 -1286 
Q 1028 -1241 775 -1147 
L 775 -588 
Q 1028 -725 1275 -790 
Q 1522 -856 1778 -856 
Q 2344 -856 2625 -561 
Q 2906 -266 2906 331 
L 2906 616 
Q 2728 306 2450 153 
Q 2172 0 1784 0 
Q 1141 0 747 490 
Q 353 981 353 1791 
Q 353 2603 747 3093 
Q 1141 3584 1784 3584 
Q 2172 3584 2450 3431 
Q 2728 3278 2906 2969 
L 2906 3500 
L 3481 3500 
L 3481 434 
z
" transform="scale(0.015625)"/>
     </defs>
     <use xlink:href="#DejaVuSans-50"/>
     <use xlink:href="#DejaVuSans-65" transform="translate(56.677734 0)"/>
     <use xlink:href="#DejaVuSans-72" transform="translate(118.201172 0)"/>
     <use xlink:href="#DejaVuSans-69" transform="translate(159.314453 0)"/>
     <use xlink:href="#DejaVuSans-6f" transform="translate(187.097656 0)"/>
     <use xlink:href="#DejaVuSans-64" transform="translate(248.279297 0)"/>
     <use xlink:href="#DejaVuSans-69" transform="translate(311.755859 0)"/>
     <use xlink:href="#DejaVuSans-63" transform="translate(339.539062 0)"/>
     <use xlink:href="#DejaVuSans-20" transform="translate(394.519531 0)"/>
     <use xlink:href="#DejaVuSans-70" transform="translate(426.306641 0)"/>
     <use xlink:href="#DejaVuSans-68" transform="translate(489.783203 0)"/>
     <use xlink:href="#DejaVuSans-6f" transform="translate(553.162109 0)"/>
     <use xlink:href="#DejaVuSans-74" transform="translate(614.34375 0)"/>
     <use xlink:href="#DejaVuSans-6f" transform="translate(653.552734 0)"/>
     <use xlink:href="#DejaVuSans-6e" transform="translate(714.734375 0)"/>
     <use xlink:href="#DejaVuSans-69" transform="translate(778.113281 0)"/>
     <use xlink:href="#DejaVuSans-63" transform="translate(805.896484 0)"/>
     <use xlink:href="#DejaVuSans-20" transform="translate(860.876953 0)"/>
     <use xlink:href="#DejaVuSans-63" transform="translate(892.664062 0)"/>
     <use xlink:href="#DejaVuSans-72" transform="translate(947.644531 0)"/>
     <use xlink:href="#DejaVuSans-79" transform="translate(988.757812 0)"/>
     <use xlink:href="#DejaVuSans-73" transform="translate(1047.9375 0)"/>
     <use xlink:href="#DejaVuSans-74" transform="translate(1100.037109 0)"/>
     <use xlink:href="#DejaVuSans-61" transform="translate(1139.246094 0)"/>
     <use xlink:href="#DejaVuSans-6c" transform="translate(1200.525391 0)"/>
     <use xlink:href="#DejaVuSans-20" transform="translate(1228.308594 0)"/>
     <use xlink:href="#DejaVuSans-63" transform="translate(1260.095703 0)"/>
     <use xlink:href="#DejaVuSans-6c" transform="translate(1315.076172 0)"/>
     <use xlink:href="#DejaVuSans-61" transform="translate(1342.859375 0)"/>
     <use xlink:href="#DejaVuSans-64" transform="translate(1404.138672 0)"/>
     <use xlink:href="#DejaVuSans-64" transform="translate(1467.615234 0)"/>
     <use xlink:href="#DejaVuSans-69" transform="translate(1531.091797 0)"/>
     <use xlink:href="#DejaVuSans-6e" transform="translate(1558.875 0)"/>
     <use xlink:href="#DejaVuSans-67" transform="translate(1622.253906 0)"/>
    </g>
   </g>
   <g id="text_4">
    <!-- Photonic Bandgap Fiber -->
    <g style="fill: #44546a" transform="translate(213.005655 15.558281) scale(0.11 -0.11)">
     <defs>
      <path id="DejaVuSans-42" d="M 1259 2228 
L 1259 519 
L 2272 519 
Q 2781 519 3026 730 
Q 3272 941 3272 1375 
Q 3272 1813 3026 2020 
Q 2781 2228 2272 2228 
L 1259 2228 
z
M 1259 4147 
L 1259 2741 
L 2194 2741 
Q 2656 2741 2882 2914 
Q 3109 3088 3109 3444 
Q 3109 3797 2882 3972 
Q 2656 4147 2194 4147 
L 1259 4147 
z
M 628 4666 
L 2241 4666 
Q 2963 4666 3353 4366 
Q 3744 4066 3744 3513 
Q 3744 3084 3544 2831 
Q 3344 2578 2956 2516 
Q 3422 2416 3680 2098 
Q 3938 1781 3938 1306 
Q 3938 681 3513 340 
Q 3088 0 2303 0 
L 628 0 
L 628 4666 
z
" transform="scale(0.015625)"/>
     </defs>
     <use xlink:href="#DejaVuSans-50"/>
     <use xlink:href="#DejaVuSans-68" transform="translate(60.302734 0)"/>
     <use xlink:href="#DejaVuSans-6f" transform="translate(123.681641 0)"/>
     <use xlink:href="#DejaVuSans-74" transform="translate(184.863281 0)"/>
     <use xlink:href="#DejaVuSans-6f" transform="translate(224.072266 0)"/>
     <use xlink:href="#DejaVuSans-6e" transform="translate(285.253906 0)"/>
     <use xlink:href="#DejaVuSans-69" transform="translate(348.632812 0)"/>
     <use xlink:href="#DejaVuSans-63" transform="translate(376.416016 0)"/>
     <use xlink:href="#DejaVuSans-20" transform="translate(431.396484 0)"/>
     <use xlink:href="#DejaVuSans-42" transform="translate(463.183594 0)"/>
     <use xlink:href="#DejaVuSans-61" transform="translate(531.787109 0)"/>
     <use xlink:href="#DejaVuSans-6e" transform="translate(593.066406 0)"/>
     <use xlink:href="#DejaVuSans-64" transform="translate(656.445312 0)"/>
     <use xlink:href="#DejaVuSans-67" transform="translate(719.921875 0)"/>
     <use xlink:href="#DejaVuSans-61" transform="translate(783.398438 0)"/>
     <use xlink:href="#DejaVuSans-70" transform="translate(844.677734 0)"/>
     <use xlink:href="#DejaVuSans-20" transform="translate(908.154297 0)"/>
     <use xlink:href="#DejaVuSans-46" transform="translate(939.941406 0)"/>
     <use xlink:href="#DejaVuSans-69" transform="translate(990.210938 0)"/>
     <use xlink:href="#DejaVuSans-62" transform="translate(1017.994141 0)"/>
     <use xlink:href="#DejaVuSans-65" transform="translate(1081.470703 0)"/>
     <use xlink:href="#DejaVuSans-72" transform="translate(1142.994141 0)"/>
    </g>
   </g>
  </g>
  <g id="axes_3">
   <g id="patch_30">
    <path d="M 461.66747 182.873944 
C 480.209959 182.873944 497.995493 175.506935 511.107013 162.395415 
C 524.218533 149.283895 531.585542 131.498361 531.585542 112.955872 
C 531.585542 94.413382 524.218533 76.627849 511.107013 63.516329 
C 497.995493 50.404808 480.209959 43.037799 461.66747 43.037799 
C 443.12498 43.037799 425.339447 50.404808 412.227927 63.516329 
C 399.116407 76.627849 391.749398 94.413382 391.749398 112.955872 
C 391.749398 131.498361 399.116407 149.283895 412.227927 162.395415 
C 425.339447 175.506935 443.12498 182.873944 461.66747 182.873944 
z
" clip-path="url(#p0e5a6139df)" style="fill: #b0bec5; stroke: #44546a; stroke-width: 1.8; stroke-linejoin: miter"/>
   </g>
   <g id="patch_31">
    <path d="M 461.66747 89.533317 
C 465.932242 89.533317 470.022915 87.838905 473.038565 84.823256 
C 476.054214 81.807606 477.748627 77.716933 477.748627 73.452161 
C 477.748627 69.187388 476.054214 65.096715 473.038565 62.081066 
C 470.022915 59.065416 465.932242 57.371004 461.66747 57.371004 
C 457.402697 57.371004 453.312025 59.065416 450.296375 62.081066 
C 447.280725 65.096715 445.586313 69.187388 445.586313 73.452161 
C 445.586313 77.716933 447.280725 81.807606 450.296375 84.823256 
C 453.312025 87.838905 457.402697 89.533317 461.66747 89.533317 
z
" clip-path="url(#p0e5a6139df)" style="fill: #b0bec5; stroke: #78909c; stroke-width: 0.8; stroke-linejoin: miter"/>
   </g>
   <g id="patch_32">
    <path d="M 427.456253 109.285173 
C 431.721025 109.285173 435.811698 107.590761 438.827348 104.575111 
C 441.842997 101.559461 443.537409 97.468789 443.537409 93.204016 
C 443.537409 88.939244 441.842997 84.848571 438.827348 81.832921 
C 435.811698 78.817272 431.721025 77.12286 427.456253 77.12286 
C 423.19148 77.12286 419.100807 78.817272 416.085158 81.832921 
C 413.069508 84.848571 411.375096 88.939244 411.375096 93.204016 
C 411.375096 97.468789 413.069508 101.559461 416.085158 104.575111 
C 419.100807 107.590761 423.19148 109.285173 427.456253 109.285173 
z
" clip-path="url(#p0e5a6139df)" style="fill: #b0bec5; stroke: #78909c; stroke-width: 0.8; stroke-linejoin: miter"/>
   </g>
   <g id="patch_33">
    <path d="M 427.456253 148.788884 
C 431.721025 148.788884 435.811698 147.094472 438.827348 144.078822 
C 441.842997 141.063172 443.537409 136.9725 443.537409 132.707727 
C 443.537409 128.442954 441.842997 124.352282 438.827348 121.336632 
C 435.811698 118.320983 431.721025 116.62657 427.456253 116.62657 
C 423.19148 116.62657 419.100807 118.320983 416.085158 121.336632 
C 413.069508 124.352282 411.375096 128.442954 411.375096 132.707727 
C 411.375096 136.9725 413.069508 141.063172 416.085158 144.078822 
C 419.100807 147.094472 423.19148 148.788884 427.456253 148.788884 
z
" clip-path="url(#p0e5a6139df)" style="fill: #b0bec5; stroke: #78909c; stroke-width: 0.8; stroke-linejoin: miter"/>
   </g>
   <g id="patch_34">
    <path d="M 461.66747 168.540739 
C 465.932242 168.540739 470.022915 166.846327 473.038565 163.830677 
C 476.054214 160.815028 477.748627 156.724355 477.748627 152.459582 
C 477.748627 148.19481 476.054214 144.104137 473.038565 141.088488 
C 470.022915 138.072838 465.932242 136.378426 461.66747 136.378426 
C 457.402697 136.378426 453.312025 138.072838 450.296375 141.088488 
C 447.280725 144.104137 445.586313 148.19481 445.586313 152.459582 
C 445.586313 156.724355 447.280725 160.815028 450.296375 163.830677 
C 453.312025 166.846327 457.402697 168.540739 461.66747 168.540739 
z
" clip-path="url(#p0e5a6139df)" style="fill: #b0bec5; stroke: #78909c; stroke-width: 0.8; stroke-linejoin: miter"/>
   </g>
   <g id="patch_35">
    <path d="M 495.878687 148.788884 
C 500.14346 148.788884 504.234132 147.094472 507.249782 144.078822 
C 510.265432 141.063172 511.959844 136.9725 511.959844 132.707727 
C 511.959844 128.442954 510.265432 124.352282 507.249782 121.336632 
C 504.234132 118.320983 500.14346 116.62657 495.878687 116.62657 
C 491.613914 116.62657 487.523242 118.320983 484.507592 121.336632 
C 481.491942 124.352282 479.79753 128.442954 479.79753 132.707727 
C 479.79753 136.9725 481.491942 141.063172 484.507592 144.078822 
C 487.523242 147.094472 491.613914 148.788884 495.878687 148.788884 
z
" clip-path="url(#p0e5a6139df)" style="fill: #b0bec5; stroke: #78909c; stroke-width: 0.8; stroke-linejoin: miter"/>
   </g>
   <g id="patch_36">
    <path d="M 495.878687 109.285173 
C 500.14346 109.285173 504.234132 107.590761 507.249782 104.575111 
C 510.265432 101.559461 511.959844 97.468789 511.959844 93.204016 
C 511.959844 88.939244 510.265432 84.848571 507.249782 81.832921 
C 504.234132 78.817272 500.14346 77.12286 495.878687 77.12286 
C 491.613914 77.12286 487.523242 78.817272 484.507592 81.832921 
C 481.491942 84.848571 479.79753 88.939244 479.79753 93.204016 
C 479.79753 97.468789 481.491942 101.559461 484.507592 104.575111 
C 487.523242 107.590761 491.613914 109.285173 495.878687 109.285173 
z
" clip-path="url(#p0e5a6139df)" style="fill: #b0bec5; stroke: #78909c; stroke-width: 0.8; stroke-linejoin: miter"/>
   </g>
   <g id="patch_37">
    <path d="M 461.66747 87.785366 
C 465.46868 87.785366 469.114715 86.275129 471.802576 83.587267 
C 474.490438 80.899405 476.000675 77.253371 476.000675 73.452161 
C 476.000675 69.65095 474.490438 66.004916 471.802576 63.317054 
C 469.114715 60.629193 465.46868 59.118956 461.66747 59.118956 
C 457.86626 59.118956 454.220225 60.629193 451.532364 63.317054 
C 448.844502 66.004916 447.334265 69.65095 447.334265 73.452161 
C 447.334265 77.253371 448.844502 80.899405 451.532364 83.587267 
C 454.220225 86.275129 457.86626 87.785366 461.66747 87.785366 
z
" clip-path="url(#p0e5a6139df)" style="fill: #ffffff; stroke: #78909c; stroke-width: 0.5; stroke-linejoin: miter"/>
   </g>
   <g id="patch_38">
    <path d="M 427.456253 107.537221 
C 431.257463 107.537221 434.903497 106.026984 437.591359 103.339123 
C 440.279221 100.651261 441.789458 97.005227 441.789458 93.204016 
C 441.789458 89.402806 440.279221 85.756771 437.591359 83.06891 
C 434.903497 80.381048 431.257463 78.870811 427.456253 78.870811 
C 423.655042 78.870811 420.009008 80.381048 417.321146 83.06891 
C 414.633285 85.756771 413.123048 89.402806 413.123048 93.204016 
C 413.123048 97.005227 414.633285 100.651261 417.321146 103.339123 
C 420.009008 106.026984 423.655042 107.537221 427.456253 107.537221 
z
" clip-path="url(#p0e5a6139df)" style="fill: #ffffff; stroke: #78909c; stroke-width: 0.5; stroke-linejoin: miter"/>
   </g>
   <g id="patch_39">
    <path d="M 427.456253 147.040932 
C 431.257463 147.040932 434.903497 145.530695 437.591359 142.842833 
C 440.279221 140.154972 441.789458 136.508937 441.789458 132.707727 
C 441.789458 128.906517 440.279221 125.260482 437.591359 122.572621 
C 434.903497 119.884759 431.257463 118.374522 427.456253 118.374522 
C 423.655042 118.374522 420.009008 119.884759 417.321146 122.572621 
C 414.633285 125.260482 413.123048 128.906517 413.123048 132.707727 
C 413.123048 136.508937 414.633285 140.154972 417.321146 142.842833 
C 420.009008 145.530695 423.655042 147.040932 427.456253 147.040932 
z
" clip-path="url(#p0e5a6139df)" style="fill: #ffffff; stroke: #78909c; stroke-width: 0.5; stroke-linejoin: miter"/>
   </g>
   <g id="patch_40">
    <path d="M 461.66747 166.792787 
C 465.46868 166.792787 469.114715 165.28255 471.802576 162.594689 
C 474.490438 159.906827 476.000675 156.260793 476.000675 152.459582 
C 476.000675 148.658372 474.490438 145.012338 471.802576 142.324476 
C 469.114715 139.636615 465.46868 138.126378 461.66747 138.126378 
C 457.86626 138.126378 454.220225 139.636615 451.532364 142.324476 
C 448.844502 145.012338 447.334265 148.658372 447.334265 152.459582 
C 447.334265 156.260793 448.844502 159.906827 451.532364 162.594689 
C 454.220225 165.28255 457.86626 166.792787 461.66747 166.792787 
z
" clip-path="url(#p0e5a6139df)" style="fill: #ffffff; stroke: #78909c; stroke-width: 0.5; stroke-linejoin: miter"/>
   </g>
   <g id="patch_41">
    <path d="M 495.878687 147.040932 
C 499.679897 147.040932 503.325932 145.530695 506.013793 142.842833 
C 508.701655 140.154972 510.211892 136.508937 510.211892 132.707727 
C 510.211892 128.906517 508.701655 125.260482 506.013793 122.572621 
C 503.325932 119.884759 499.679897 118.374522 495.878687 118.374522 
C 492.077477 118.374522 488.431442 119.884759 485.743581 122.572621 
C 483.055719 125.260482 481.545482 128.906517 481.545482 132.707727 
C 481.545482 136.508937 483.055719 140.154972 485.743581 142.842833 
C 488.431442 145.530695 492.077477 147.040932 495.878687 147.040932 
z
" clip-path="url(#p0e5a6139df)" style="fill: #ffffff; stroke: #78909c; stroke-width: 0.5; stroke-linejoin: miter"/>
   </g>
   <g id="patch_42">
    <path d="M 495.878687 107.537221 
C 499.679897 107.537221 503.325932 106.026984 506.013793 103.339123 
C 508.701655 100.651261 510.211892 97.005227 510.211892 93.204016 
C 510.211892 89.402806 508.701655 85.756771 506.013793 83.06891 
C 503.325932 80.381048 499.679897 78.870811 495.878687 78.870811 
C 492.077477 78.870811 488.431442 80.381048 485.743581 83.06891 
C 483.055719 85.756771 481.545482 89.402806 481.545482 93.204016 
C 481.545482 97.005227 483.055719 100.651261 485.743581 103.339123 
C 488.431442 106.026984 492.077477 107.537221 495.878687 107.537221 
z
" clip-path="url(#p0e5a6139df)" style="fill: #ffffff; stroke: #78909c; stroke-width: 0.5; stroke-linejoin: miter"/>
   </g>
   <g id="text_5">
    <!-- Hollow core -->
    <g style="fill: #44546a" transform="translate(439.795009 201.158025) scale(0.075 -0.075)">
     <use xlink:href="#DejaVuSans-48"/>
     <use xlink:href="#DejaVuSans-6f" transform="translate(75.195312 0)"/>
     <use xlink:href="#DejaVuSans-6c" transform="translate(136.376953 0)"/>
     <use xlink:href="#DejaVuSans-6c" transform="translate(164.160156 0)"/>
     <use xlink:href="#DejaVuSans-6f" transform="translate(191.943359 0)"/>
     <use xlink:href="#DejaVuSans-77" transform="translate(253.125 0)"/>
     <use xlink:href="#DejaVuSans-20" transform="translate(334.912109 0)"/>
     <use xlink:href="#DejaVuSans-63" transform="translate(366.699219 0)"/>
     <use xlink:href="#DejaVuSans-6f" transform="translate(421.679688 0)"/>
     <use xlink:href="#DejaVuSans-72" transform="translate(482.861328 0)"/>
     <use xlink:href="#DejaVuSans-65" transform="translate(521.724609 0)"/>
    </g>
    <!-- Anti-resonant capillaries -->
    <g style="fill: #44546a" transform="translate(416.12665 209.556384) scale(0.075 -0.075)">
     <defs>
      <path id="DejaVuSans-41" d="M 2188 4044 
L 1331 1722 
L 3047 1722 
L 2188 4044 
z
M 1831 4666 
L 2547 4666 
L 4325 0 
L 3669 0 
L 3244 1197 
L 1141 1197 
L 716 0 
L 50 0 
L 1831 4666 
z
" transform="scale(0.015625)"/>
     </defs>
     <use xlink:href="#DejaVuSans-41"/>
     <use xlink:href="#DejaVuSans-6e" transform="translate(68.408203 0)"/>
     <use xlink:href="#DejaVuSans-74" transform="translate(131.787109 0)"/>
     <use xlink:href="#DejaVuSans-69" transform="translate(170.996094 0)"/>
     <use xlink:href="#DejaVuSans-2d" transform="translate(198.779297 0)"/>
     <use xlink:href="#DejaVuSans-72" transform="translate(234.863281 0)"/>
     <use xlink:href="#DejaVuSans-65" transform="translate(273.726562 0)"/>
     <use xlink:href="#DejaVuSans-73" transform="translate(335.25 0)"/>
     <use xlink:href="#DejaVuSans-6f" transform="translate(387.349609 0)"/>
     <use xlink:href="#DejaVuSans-6e" transform="translate(448.53125 0)"/>
     <use xlink:href="#DejaVuSans-61" transform="translate(511.910156 0)"/>
     <use xlink:href="#DejaVuSans-6e" transform="translate(573.189453 0)"/>
     <use xlink:href="#DejaVuSans-74" transform="translate(636.568359 0)"/>
     <use xlink:href="#DejaVuSans-20" transform="translate(675.777344 0)"/>
     <use xlink:href="#DejaVuSans-63" transform="translate(707.564453 0)"/>
     <use xlink:href="#DejaVuSans-61" transform="translate(762.544922 0)"/>
     <use xlink:href="#DejaVuSans-70" transform="translate(823.824219 0)"/>
     <use xlink:href="#DejaVuSans-69" transform="translate(887.300781 0)"/>
     <use xlink:href="#DejaVuSans-6c" transform="translate(915.083984 0)"/>
     <use xlink:href="#DejaVuSans-6c" transform="translate(942.867188 0)"/>
     <use xlink:href="#DejaVuSans-61" transform="translate(970.650391 0)"/>
     <use xlink:href="#DejaVuSans-72" transform="translate(1031.929688 0)"/>
     <use xlink:href="#DejaVuSans-69" transform="translate(1073.042969 0)"/>
     <use xlink:href="#DejaVuSans-65" transform="translate(1100.826172 0)"/>
     <use xlink:href="#DejaVuSans-73" transform="translate(1162.349609 0)"/>
    </g>
   </g>
   <g id="text_6">
    <!-- Anti-Resonant HCF -->
    <g style="fill: #44546a" transform="translate(410.176298 15.558281) scale(0.11 -0.11)">
     <defs>
      <path id="DejaVuSans-52" d="M 2841 2188 
Q 3044 2119 3236 1894 
Q 3428 1669 3622 1275 
L 4263 0 
L 3584 0 
L 2988 1197 
Q 2756 1666 2539 1819 
Q 2322 1972 1947 1972 
L 1259 1972 
L 1259 0 
L 628 0 
L 628 4666 
L 2053 4666 
Q 2853 4666 3247 4331 
Q 3641 3997 3641 3322 
Q 3641 2881 3436 2590 
Q 3231 2300 2841 2188 
z
M 1259 4147 
L 1259 2491 
L 2053 2491 
Q 2509 2491 2742 2702 
Q 2975 2913 2975 3322 
Q 2975 3731 2742 3939 
Q 2509 4147 2053 4147 
L 1259 4147 
z
" transform="scale(0.015625)"/>
     </defs>
     <use xlink:href="#DejaVuSans-41"/>
     <use xlink:href="#DejaVuSans-6e" transform="translate(68.408203 0)"/>
     <use xlink:href="#DejaVuSans-74" transform="translate(131.787109 0)"/>
     <use xlink:href="#DejaVuSans-69" transform="translate(170.996094 0)"/>
     <use xlink:href="#DejaVuSans-2d" transform="translate(198.779297 0)"/>
     <use xlink:href="#DejaVuSans-52" transform="translate(234.863281 0)"/>
     <use xlink:href="#DejaVuSans-65" transform="translate(299.845703 0)"/>
     <use xlink:href="#DejaVuSans-73" transform="translate(361.369141 0)"/>
     <use xlink:href="#DejaVuSans-6f" transform="translate(413.46875 0)"/>
     <use xlink:href="#DejaVuSans-6e" transform="translate(474.650391 0)"/>
     <use xlink:href="#DejaVuSans-61" transform="translate(538.029297 0)"/>
     <use xlink:href="#DejaVuSans-6e" transform="translate(599.308594 0)"/>
     <use xlink:href="#DejaVuSans-74" transform="translate(662.6875 0)"/>
     <use xlink:href="#DejaVuSans-20" transform="translate(701.896484 0)"/>
     <use xlink:href="#DejaVuSans-48" transform="translate(733.683594 0)"/>
     <use xlink:href="#DejaVuSans-43" transform="translate(808.878906 0)"/>
     <use xlink:href="#DejaVuSans-46" transform="translate(878.703125 0)"/>
    </g>
   </g>
   <g id="patch_43">
    <path d="M 461.66747 132.183341 
C 466.766654 132.183341 471.657676 130.157414 475.263344 126.551746 
C 478.869012 122.946078 480.89494 118.055056 480.89494 112.955872 
C 480.89494 107.856687 478.869012 102.965665 475.263344 99.359997 
C 471.657676 95.754329 466.766654 93.728402 461.66747 93.728402 
C 456.568285 93.728402 451.677264 95.754329 448.071596 99.359997 
C 444.465928 102.965665 442.44 107.856687 442.44 112.955872 
C 442.44 118.055056 444.465928 122.946078 448.071596 126.551746 
C 451.677264 130.157414 456.568285 132.183341 461.66747 132.183341 
z
" clip-path="url(#p0e5a6139df)" style="fill: #ffffff; stroke: #44546a; stroke-width: 1.4; stroke-linejoin: miter"/>
   </g>
  </g>
  <g id="axes_4">
   <g id="patch_44">
    <path d="M 645.20241 182.873944 
C 663.744899 182.873944 681.530433 175.506935 694.641953 162.395415 
C 707.753473 149.283895 715.120482 131.498361 715.120482 112.955872 
C 715.120482 94.413382 707.753473 76.627849 694.641953 63.516329 
C 681.530433 50.404808 663.744899 43.037799 645.20241 43.037799 
C 626.65992 43.037799 608.874387 50.404808 595.762867 63.516329 
C 582.651347 76.627849 575.284337 94.413382 575.284337 112.955872 
C 575.284337 131.498361 582.651347 149.283895 595.762867 162.395415 
C 608.874387 175.506935 626.65992 182.873944 645.20241 182.873944 
z
" clip-path="url(#pe9e34abb6f)" style="fill: #b0bec5; stroke: #44546a; stroke-width: 1.8; stroke-linejoin: miter"/>
   </g>
   <g id="patch_45">
    <path d="M 645.20241 163.296884 
C 658.553002 163.296884 671.358586 157.992637 680.798881 148.552343 
C 690.239175 139.112048 695.543422 126.306464 695.543422 112.955872 
C 695.543422 99.605279 690.239175 86.799695 680.798881 77.359401 
C 671.358586 67.919106 658.553002 62.61486 645.20241 62.61486 
C 631.851817 62.61486 619.046233 67.919106 609.605939 77.359401 
C 600.165644 86.799695 594.861398 99.605279 594.861398 112.955872 
C 594.861398 126.306464 600.165644 139.112048 609.605939 148.552343 
C 619.046233 157.992637 631.851817 163.296884 645.20241 163.296884 
z
" clip-path="url(#pe9e34abb6f)" style="fill: #ffffff; stroke: #44546a; stroke-width: 1.4; stroke-linejoin: miter"/>
   </g>
   <g id="text_7">
    <!-- Thick glass wall -->
    <g style="fill: #44546a" transform="translate(615.800652 201.158025) scale(0.075 -0.075)">
     <defs>
      <path id="DejaVuSans-54" d="M -19 4666 
L 3928 4666 
L 3928 4134 
L 2272 4134 
L 2272 0 
L 1638 0 
L 1638 4134 
L -19 4134 
L -19 4666 
z
" transform="scale(0.015625)"/>
      <path id="DejaVuSans-6b" d="M 581 4863 
L 1159 4863 
L 1159 1991 
L 2875 3500 
L 3609 3500 
L 1753 1863 
L 3688 0 
L 2938 0 
L 1159 1709 
L 1159 0 
L 581 0 
L 581 4863 
z
" transform="scale(0.015625)"/>
     </defs>
     <use xlink:href="#DejaVuSans-54"/>
     <use xlink:href="#DejaVuSans-68" transform="translate(61.083984 0)"/>
     <use xlink:href="#DejaVuSans-69" transform="translate(124.462891 0)"/>
     <use xlink:href="#DejaVuSans-63" transform="translate(152.246094 0)"/>
     <use xlink:href="#DejaVuSans-6b" transform="translate(207.226562 0)"/>
     <use xlink:href="#DejaVuSans-20" transform="translate(265.136719 0)"/>
     <use xlink:href="#DejaVuSans-67" transform="translate(296.923828 0)"/>
     <use xlink:href="#DejaVuSans-6c" transform="translate(360.400391 0)"/>
     <use xlink:href="#DejaVuSans-61" transform="translate(388.183594 0)"/>
     <use xlink:href="#DejaVuSans-73" transform="translate(449.462891 0)"/>
     <use xlink:href="#DejaVuSans-73" transform="translate(501.5625 0)"/>
     <use xlink:href="#DejaVuSans-20" transform="translate(553.662109 0)"/>
     <use xlink:href="#DejaVuSans-77" transform="translate(585.449219 0)"/>
     <use xlink:href="#DejaVuSans-61" transform="translate(667.236328 0)"/>
     <use xlink:href="#DejaVuSans-6c" transform="translate(728.515625 0)"/>
     <use xlink:href="#DejaVuSans-6c" transform="translate(756.298828 0)"/>
    </g>
    <!-- Large hollow core -->
    <g style="fill: #44546a" transform="translate(612.030144 209.556384) scale(0.075 -0.075)">
     <defs>
      <path id="DejaVuSans-4c" d="M 628 4666 
L 1259 4666 
L 1259 531 
L 3531 531 
L 3531 0 
L 628 0 
L 628 4666 
z
" transform="scale(0.015625)"/>
     </defs>
     <use xlink:href="#DejaVuSans-4c"/>
     <use xlink:href="#DejaVuSans-61" transform="translate(55.712891 0)"/>
     <use xlink:href="#DejaVuSans-72" transform="translate(116.992188 0)"/>
     <use xlink:href="#DejaVuSans-67" transform="translate(156.355469 0)"/>
     <use xlink:href="#DejaVuSans-65" transform="translate(219.832031 0)"/>
     <use xlink:href="#DejaVuSans-20" transform="translate(281.355469 0)"/>
     <use xlink:href="#DejaVuSans-68" transform="translate(313.142578 0)"/>
     <use xlink:href="#DejaVuSans-6f" transform="translate(376.521484 0)"/>
     <use xlink:href="#DejaVuSans-6c" transform="translate(437.703125 0)"/>
     <use xlink:href="#DejaVuSans-6c" transform="translate(465.486328 0)"/>
     <use xlink:href="#DejaVuSans-6f" transform="translate(493.269531 0)"/>
     <use xlink:href="#DejaVuSans-77" transform="translate(554.451172 0)"/>
     <use xlink:href="#DejaVuSans-20" transform="translate(636.238281 0)"/>
     <use xlink:href="#DejaVuSans-63" transform="translate(668.025391 0)"/>
     <use xlink:href="#DejaVuSans-6f" transform="translate(723.005859 0)"/>
     <use xlink:href="#DejaVuSans-72" transform="translate(784.1875 0)"/>
     <use xlink:href="#DejaVuSans-65" transform="translate(823.050781 0)"/>
    </g>
   </g>
   <g id="text_8">
    <!-- Hollow Capillary -->
    <g style="fill: #44546a" transform="translate(600.860378 15.558281) scale(0.11 -0.11)">
     <use xlink:href="#DejaVuSans-48"/>
     <use xlink:href="#DejaVuSans-6f" transform="translate(75.195312 0)"/>
     <use xlink:href="#DejaVuSans-6c" transform="translate(136.376953 0)"/>
     <use xlink:href="#DejaVuSans-6c" transform="translate(164.160156 0)"/>
     <use xlink:href="#DejaVuSans-6f" transform="translate(191.943359 0)"/>
     <use xlink:href="#DejaVuSans-77" transform="translate(253.125 0)"/>
     <use xlink:href="#DejaVuSans-20" transform="translate(334.912109 0)"/>
     <use xlink:href="#DejaVuSans-43" transform="translate(366.699219 0)"/>
     <use xlink:href="#DejaVuSans-61" transform="translate(436.523438 0)"/>
     <use xlink:href="#DejaVuSans-70" transform="translate(497.802734 0)"/>
     <use xlink:href="#DejaVuSans-69" transform="translate(561.279297 0)"/>
     <use xlink:href="#DejaVuSans-6c" transform="translate(589.0625 0)"/>
     <use xlink:href="#DejaVuSans-6c" transform="translate(616.845703 0)"/>
     <use xlink:href="#DejaVuSans-61" transform="translate(644.628906 0)"/>
     <use xlink:href="#DejaVuSans-72" transform="translate(705.908203 0)"/>
     <use xlink:href="#DejaVuSans-79" transform="translate(747.021484 0)"/>
    </g>
   </g>
  </g>
 </g>
 <defs>
  <clipPath id="p07a53559fd">
   <rect x="7.2" y="25.558281" width="174.795181" height="174.795181"/>
  </clipPath>
  <clipPath id="p2522d2d848">
   <rect x="190.73494" y="25.558281" width="174.795181" height="174.795181"/>
  </clipPath>
  <clipPath id="p0e5a6139df">
   <rect x="374.26988" y="25.558281" width="174.795181" height="174.795181"/>
  </clipPath>
  <clipPath id="pe9e34abb6f">
   <rect x="557.804819" y="25.558281" width="174.795181" height="174.795181"/>
  </clipPath>
 </defs>
</svg>
