<?xml version="1.0" encoding="utf-8" standalone="no"?>
<!DOCTYPE svg PUBLIC "-//W3C//DTD SVG 1.1//EN"
  "http://www.w3.org/Graphics/SVG/1.1/DTD/svg11.dtd">
<svg xmlns:xlink="http://www.w3.org/1999/xlink" width="639.596875pt" height="279.051875pt" viewBox="0 0 639.596875 279.051875" xmlns="http://www.w3.org/2000/svg" version="1.1">
 <metadata>
  <rdf:RDF xmlns:dc="http://purl.org/dc/elements/1.1/" xmlns:cc="http://creativecommons.org/ns#" xmlns:rdf="http://www.w3.org/1999/02/22-rdf-syntax-ns#">
   <cc:Work>
    <dc:type rdf:resource="http://purl.org/dc/dcmitype/StillImage"/>
    <dc:date>2026-03-23T21:39:40.409941</dc:date>
    <dc:format>image/svg+xml</dc:format>
    <dc:creator>
     <cc:Agent>
      <dc:title>Matplotlib v3.10.8, https://matplotlib.org/</dc:title>
     </cc:Agent>
    </dc:creator>
   </cc:Work>
  </rdf:RDF>
 </metadata>
 <defs>
  <style type="text/css">*{stroke-linejoin: round; stroke-linecap: butt}</style>
 </defs>
 <g id="figure_1">
  <g id="patch_1">
   <path d="M 0 279.051875 
L 639.596875 279.051875 
L 639.596875 0 
L 0 0 
z
" style="fill: #ffffff"/>
  </g>
  <g id="axes_1">
   <g id="patch_2">
    <path d="M 45.716875 239.56 
L 619.671875 239.56 
L 619.671875 7.2 
L 45.716875 7.2 
z
" style="fill: #ffffff"/>
   </g>
   <g id="FillBetweenPolyCollection_1">
    <defs>
     <path id="m4371a44f2f" d="M 6.616217 -43.568366 
L 6.616217 -43.568366 
L 6.653923 -43.568366 
L 6.691679 -43.568366 
L 6.729485 -43.568366 
L 6.767342 -43.568366 
L 6.80525 -43.568366 
L 6.843208 -43.568366 
L 6.881217 -43.568366 
L 6.919277 -43.568366 
L 6.957388 -43.568366 
L 6.99555 -43.568366 
L 7.033763 -43.568366 
L 7.072028 -43.568366 
L 7.110344 -43.568366 
L 7.148712 -43.568366 
L 7.187131 -43.568366 
L 7.225602 -43.568366 
L 7.264125 -43.568366 
L 7.302699 -43.568366 
L 7.341326 -43.568366 
L 7.380005 -43.568366 
L 7.418737 -43.568366 
L 7.45752 -43.568366 
L 7.496356 -43.568366 
L 7.535245 -43.568366 
L 7.574187 -43.568366 
L 7.613181 -43.568366 
L 7.652228 -43.568366 
L 7.691328 -43.568366 
L 7.730481 -43.568366 
L 7.769688 -43.568366 
L 7.808948 -43.568366 
L 7.848261 -43.568366 
L 7.887628 -43.568366 
L 7.927048 -43.568366 
L 7.966523 -43.568366 
L 8.006051 -43.568366 
L 8.045633 -43.568366 
L 8.085269 -43.568366 
L 8.12496 -43.568366 
L 8.164705 -43.568366 
L 8.204504 -43.568366 
L 8.244358 -43.568366 
L 8.284266 -43.568366 
L 8.32423 -43.568366 
L 8.364248 -43.568366 
L 8.404321 -43.568366 
L 8.44445 -43.568366 
L 8.484633 -43.568366 
L 8.524872 -43.568366 
L 8.565166 -43.568366 
L 8.605516 -43.568367 
L 8.645922 -43.568367 
L 8.686384 -43.568367 
L 8.726901 -43.568367 
L 8.767474 -43.568367 
L 8.808104 -43.568368 
L 8.84879 -43.568368 
L 8.889532 -43.568369 
L 8.930331 -43.568369 
L 8.971186 -43.568371 
L 9.012098 -43.568372 
L 9.053067 -43.568374 
L 9.094093 -43.568376 
L 9.135177 -43.568378 
L 9.176317 -43.568381 
L 9.217514 -43.568385 
L 9.25877 -43.56839 
L 9.300082 -43.568395 
L 9.341453 -43.568401 
L 9.382881 -43.568409 
L 9.424367 -43.568417 
L 9.465911 -43.568427 
L 9.507513 -43.568438 
L 9.549174 -43.56845 
L 9.590893 -43.568464 
L 9.632671 -43.568479 
L 9.674507 -43.568496 
L 9.716402 -43.568515 
L 9.758357 -43.568535 
L 9.80037 -43.568557 
L 9.842442 -43.568582 
L 9.884574 -43.568608 
L 9.926765 -43.568637 
L 9.969015 -43.568668 
L 10.011325 -43.568701 
L 10.053695 -43.568737 
L 10.096125 -43.568777 
L 10.138615 -43.568819 
L 10.181166 -43.568865 
L 10.223776 -43.568915 
L 10.266447 -43.568968 
L 10.309179 -43.569025 
L 10.351971 -43.569086 
L 10.394824 -43.56915 
L 10.437738 -43.569218 
L 10.480713 -43.569289 
L 10.523749 -43.569363 
L 10.566847 -43.569439 
L 10.610006 -43.569516 
L 10.653227 -43.569594 
L 10.69651 -43.569671 
L 10.739854 -43.569747 
L 10.78326 -43.569819 
L 10.826729 -43.569888 
L 10.87026 -43.569951 
L 10.913853 -43.570009 
L 10.957509 -43.570059 
L 11.001227 -43.570099 
L 11.045008 -43.570133 
L 11.088853 -43.570154 
L 11.13276 -43.570169 
L 11.17673 -43.570176 
L 11.220764 -43.570174 
L 11.264862 -43.570169 
L 11.309023 -43.570142 
L 11.353248 -43.570101 
L 11.397536 -43.570039 
L 11.441889 -43.569979 
L 11.486306 -43.569957 
L 11.530787 -43.5699 
L 11.575333 -43.569833 
L 11.619943 -43.569793 
L 11.664618 -43.569715 
L 11.709358 -43.569674 
L 11.754163 -43.569638 
L 11.799033 -43.569539 
L 11.843969 -43.569499 
L 11.88897 -43.569452 
L 11.934036 -43.569371 
L 11.979168 -43.569358 
L 12.024367 -43.569312 
L 12.069631 -43.569244 
L 12.114961 -43.56922 
L 12.160358 -43.569163 
L 12.205821 -43.569129 
L 12.251351 -43.569122 
L 12.296947 -43.569062 
L 12.342611 -43.569041 
L 12.388341 -43.569052 
L 12.434139 -43.569012 
L 12.480004 -43.568991 
L 12.525936 -43.568965 
L 12.571936 -43.568913 
L 12.618004 -43.568938 
L 12.66414 -43.568974 
L 12.710344 -43.568936 
L 12.756617 -43.568917 
L 12.802957 -43.568901 
L 12.849366 -43.568864 
L 12.895844 -43.568892 
L 12.942391 -43.568914 
L 12.989007 -43.568876 
L 13.035692 -43.568887 
L 13.082446 -43.568921 
L 13.12927 -43.568909 
L 13.176163 -43.568924 
L 13.223126 -43.56893 
L 13.270159 -43.568882 
L 13.317263 -43.568911 
L 13.364436 -43.568992 
L 13.41168 -43.568996 
L 13.458994 -43.569018 
L 13.506379 -43.569073 
L 13.553835 -43.569035 
L 13.601362 -43.569026 
L 13.648961 -43.569115 
L 13.69663 -43.569104 
L 13.744371 -43.569058 
L 13.792184 -43.569157 
L 13.840069 -43.569212 
L 13.888025 -43.569174 
L 13.936054 -43.56928 
L 13.984155 -43.569388 
L 14.032329 -43.569312 
L 14.080575 -43.569307 
L 14.128895 -43.569376 
L 14.177287 -43.569245 
L 14.225752 -43.569139 
L 14.274291 -43.569269 
L 14.322903 -43.569331 
L 14.371588 -43.56931 
L 14.420348 -43.569427 
L 14.469182 -43.569429 
L 14.518089 -43.5692 
L 14.567071 -43.569145 
L 14.616128 -43.569238 
L 14.665259 -43.569142 
L 14.714465 -43.569082 
L 14.763746 -43.569224 
L 14.813103 -43.569179 
L 14.862534 -43.568969 
L 14.912041 -43.569008 
L 14.961624 -43.5691 
L 15.011283 -43.568937 
L 15.061018 -43.56885 
L 15.110828 -43.568966 
L 15.160716 -43.568892 
L 15.21068 -43.568699 
L 15.26072 -43.568767 
L 15.310838 -43.568869 
L 15.361033 -43.568707 
L 15.411305 -43.568608 
L 15.461654 -43.568747 
L 15.512081 -43.56874 
L 15.562586 -43.568541 
L 15.613169 -43.568532 
L 15.66383 -43.568647 
L 15.71457 -43.568561 
L 15.765388 -43.568438 
L 15.816284 -43.568545 
L 15.86726 -43.568634 
L 15.918315 -43.568492 
L 15.969449 -43.568409 
L 16.020662 -43.56854 
L 16.071955 -43.568573 
L 16.123328 -43.568422 
L 16.174781 -43.56841 
L 16.226315 -43.568556 
L 16.277928 -43.568531 
L 16.329622 -43.568383 
L 16.381397 -43.568442 
L 16.433253 -43.568595 
L 16.48519 -43.568515 
L 16.537209 -43.568373 
L 16.589308 -43.568481 
L 16.64149 -43.568605 
L 16.693754 -43.568468 
L 16.746099 -43.568373 
L 16.798527 -43.568562 
L 16.851038 -43.568657 
L 16.903631 -43.568454 
L 16.956307 -43.568392 
L 17.009066 -43.568634 
L 17.061909 -43.568685 
L 17.114835 -43.56843 
L 17.167844 -43.568427 
L 17.220938 -43.568742 
L 17.274115 -43.568756 
L 17.327377 -43.568434 
L 17.380723 -43.568461 
L 17.434154 -43.568845 
L 17.48767 -43.568839 
L 17.541271 -43.568445 
L 17.594957 -43.568469 
L 17.648729 -43.568917 
L 17.702586 -43.56893 
L 17.75653 -43.568476 
L 17.810559 -43.56848 
L 17.864675 -43.569028 
L 17.918877 -43.569127 
L 17.973166 -43.568583 
L 18.027542 -43.568428 
L 18.082005 -43.569009 
L 18.136555 -43.569294 
L 18.191193 -43.568757 
L 18.245919 -43.568376 
L 18.300732 -43.568876 
L 18.355634 -43.569391 
L 18.410624 -43.569002 
L 18.465703 -43.5684 
L 18.520871 -43.568694 
L 18.576128 -43.569445 
L 18.631474 -43.569387 
L 18.686909 -43.568612 
L 18.742435 -43.568442 
L 18.79805 -43.569192 
L 18.853755 -43.569627 
L 18.909551 -43.569019 
L 18.965437 -43.568378 
L 19.021414 -43.5688 
L 19.077482 -43.569653 
L 19.133641 -43.569577 
L 19.189892 -43.568687 
L 19.246235 -43.568429 
L 19.302669 -43.569301 
L 19.359195 -43.57004 
L 19.415814 -43.569546 
L 19.472526 -43.568557 
L 19.52933 -43.568524 
L 19.586227 -43.569464 
L 19.643218 -43.569992 
L 19.700302 -43.569376 
L 19.75748 -43.568505 
L 19.814752 -43.568496 
L 19.872118 -43.569167 
L 19.929578 -43.569504 
L 19.987133 -43.56915 
L 20.044783 -43.568683 
L 20.102528 -43.56859 
L 20.160369 -43.568685 
L 20.218305 -43.56868 
L 20.276337 -43.568736 
L 20.334465 -43.569069 
L 20.392689 -43.569384 
L 20.45101 -43.569209 
L 20.509428 -43.568649 
L 20.567942 -43.568383 
L 20.626554 -43.568803 
L 20.685264 -43.569495 
L 20.744071 -43.569729 
L 20.802976 -43.569296 
L 20.86198 -43.568661 
L 20.921082 -43.568398 
L 20.980283 -43.568657 
L 21.039583 -43.569136 
L 21.098982 -43.569392 
L 21.15848 -43.569194 
L 21.218079 -43.568708 
L 21.277777 -43.568404 
L 21.337575 -43.568639 
L 21.397475 -43.569236 
L 21.457474 -43.569576 
L 21.517575 -43.569265 
L 21.577777 -43.568625 
L 21.638081 -43.568378 
L 21.698486 -43.568817 
L 21.758994 -43.569465 
L 21.819603 -43.56964 
L 21.880316 -43.569209 
L 21.941131 -43.568651 
L 22.002049 -43.568416 
L 22.06307 -43.568465 
L 22.124195 -43.568507 
L 22.185424 -43.568511 
L 22.246757 -43.568728 
L 22.308195 -43.569247 
L 22.369737 -43.569724 
L 22.431384 -43.569719 
L 22.493136 -43.569243 
L 22.554994 -43.568814 
L 22.616958 -43.568936 
L 22.679027 -43.569581 
L 22.741203 -43.570237 
L 22.803485 -43.57042 
L 22.865875 -43.570068 
L 22.928371 -43.569477 
L 22.990974 -43.568967 
L 23.053686 -43.568676 
L 23.116505 -43.568621 
L 23.179433 -43.568811 
L 23.242468 -43.569238 
L 23.305613 -43.569779 
L 23.368867 -43.570195 
L 23.43223 -43.570277 
L 23.495703 -43.570002 
L 23.559286 -43.569549 
L 23.622979 -43.569167 
L 23.686782 -43.569009 
L 23.750696 -43.569072 
L 23.814721 -43.56924 
L 23.878858 -43.569369 
L 23.943106 -43.569353 
L 24.007466 -43.569171 
L 24.071938 -43.568881 
L 24.136523 -43.568603 
L 24.201221 -43.568443 
L 24.266032 -43.568425 
L 24.330956 -43.568486 
L 24.395994 -43.568528 
L 24.461145 -43.5685 
L 24.526412 -43.568428 
L 24.591792 -43.568373 
L 24.657288 -43.568373 
L 24.722899 -43.568415 
L 24.788625 -43.568465 
L 24.854468 -43.568534 
L 24.920426 -43.568688 
L 24.986501 -43.56901 
L 25.052692 -43.569519 
L 25.119001 -43.57012 
L 25.185427 -43.570631 
L 25.25197 -43.570882 
L 25.318632 -43.570792 
L 25.385412 -43.570427 
L 25.45231 -43.569942 
L 25.519328 -43.56948 
L 25.586464 -43.569115 
L 25.653721 -43.568868 
L 25.721097 -43.568732 
L 25.788593 -43.568724 
L 25.85621 -43.568862 
L 25.923948 -43.569125 
L 25.991807 -43.569422 
L 26.059787 -43.569625 
L 26.127889 -43.569647 
L 26.196114 -43.569487 
L 26.26446 -43.569221 
L 26.33293 -43.56895 
L 26.401523 -43.568739 
L 26.470239 -43.568602 
L 26.539079 -43.568531 
L 26.608044 -43.568533 
L 26.677132 -43.568627 
L 26.746346 -43.568805 
L 26.815685 -43.569009 
L 26.885149 -43.569153 
L 26.954739 -43.569171 
L 27.024455 -43.569056 
L 27.094298 -43.568862 
L 27.164268 -43.568667 
L 27.234364 -43.568521 
L 27.304589 -43.56843 
L 27.374941 -43.568379 
L 27.445422 -43.568368 
L 27.516031 -43.56842 
L 27.586769 -43.56856 
L 27.657637 -43.568778 
L 27.728634 -43.569022 
L 27.799761 -43.56921 
L 27.871019 -43.569287 
L 27.942407 -43.569255 
L 28.013927 -43.56916 
L 28.085578 -43.569068 
L 28.15736 -43.569015 
L 28.229275 -43.56899 
L 28.301323 -43.568962 
L 28.373503 -43.568902 
L 28.445817 -43.568812 
L 28.518265 -43.568717 
L 28.590846 -43.568644 
L 28.663562 -43.5686 
L 28.736412 -43.56857 
L 28.809398 -43.568534 
L 28.88252 -43.568481 
L 28.955777 -43.568424 
L 29.02917 -43.568382 
L 29.102701 -43.56837 
L 29.176368 -43.568382 
L 29.250173 -43.568405 
L 29.324115 -43.568433 
L 29.398196 -43.568469 
L 29.472415 -43.568531 
L 29.546774 -43.568629 
L 29.621271 -43.568754 
L 29.695909 -43.568877 
L 29.770687 -43.568973 
L 29.845605 -43.569036 
L 29.920664 -43.569092 
L 29.995864 -43.56918 
L 30.071207 -43.569334 
L 30.146691 -43.569558 
L 30.222318 -43.569815 
L 30.298088 -43.570049 
L 30.374001 -43.570221 
L 30.450059 -43.570332 
L 30.52626 -43.570416 
L 30.602606 -43.570526 
L 30.679097 -43.570696 
L 30.755733 -43.570919 
L 30.832515 -43.571149 
L 30.909443 -43.571315 
L 30.986518 -43.571367 
L 31.063741 -43.57129 
L 31.14111 -43.571114 
L 31.218628 -43.570901 
L 31.296294 -43.570699 
L 31.374109 -43.570537 
L 31.452072 -43.570412 
L 31.530186 -43.570291 
L 31.60845 -43.57014 
L 31.686864 -43.569948 
L 31.765429 -43.569725 
L 31.844145 -43.569495 
L 31.923014 -43.569288 
L 32.002034 -43.569134 
L 32.081208 -43.569047 
L 32.160534 -43.569027 
L 32.240014 -43.569075 
L 32.319648 -43.56919 
L 32.399437 -43.569367 
L 32.47938 -43.569597 
L 32.559479 -43.569856 
L 32.639733 -43.570117 
L 32.720144 -43.570355 
L 32.800712 -43.570564 
L 32.881437 -43.570769 
L 32.962319 -43.57102 
L 33.04336 -43.571374 
L 33.124559 -43.57187 
L 33.205918 -43.572503 
L 33.287436 -43.573219 
L 33.369113 -43.573933 
L 33.450952 -43.574556 
L 33.532951 -43.575034 
L 33.615112 -43.575384 
L 33.697434 -43.575693 
L 33.779919 -43.576069 
L 33.862567 -43.576619 
L 33.945378 -43.577389 
L 34.028353 -43.578327 
L 34.111492 -43.579308 
L 34.194796 -43.580166 
L 34.278266 -43.580733 
L 34.361901 -43.580925 
L 34.445702 -43.580759 
L 34.52967 -43.580361 
L 34.613806 -43.579931 
L 34.698109 -43.579665 
L 34.78258 -43.579724 
L 34.867221 -43.580171 
L 34.95203 -43.580955 
L 35.037009 -43.581962 
L 35.122159 -43.583028 
L 35.207479 -43.58399 
L 35.292971 -43.584749 
L 35.378635 -43.585264 
L 35.464471 -43.585609 
L 35.55048 -43.585973 
L 35.636662 -43.586596 
L 35.723018 -43.587792 
L 35.809549 -43.589897 
L 35.896254 -43.593172 
L 35.983135 -43.597783 
L 36.070192 -43.603734 
L 36.157426 -43.610787 
L 36.244837 -43.618507 
L 36.332426 -43.626337 
L 36.420192 -43.633726 
L 36.508138 -43.640305 
L 36.596263 -43.645977 
L 36.684567 -43.651065 
L 36.773052 -43.656311 
L 36.861718 -43.662671 
L 36.950566 -43.671138 
L 37.039595 -43.682445 
L 37.128808 -43.696763 
L 37.218203 -43.713603 
L 37.307782 -43.731761 
L 37.397546 -43.749525 
L 37.487494 -43.76506 
L 37.577628 -43.776673 
L 37.667948 -43.783278 
L 37.758454 -43.784722 
L 37.849148 -43.781781 
L 37.940029 -43.776075 
L 38.031099 -43.769795 
L 38.122357 -43.765261 
L 38.213806 -43.764474 
L 38.305444 -43.768819 
L 38.397273 -43.778839 
L 38.489294 -43.794084 
L 38.581506 -43.813321 
L 38.673911 -43.834805 
L 38.766509 -43.856367 
L 38.8593 -43.875842 
L 38.952286 -43.891413 
L 39.045467 -43.901658 
L 39.138843 -43.905887 
L 39.232416 -43.904303 
L 39.326185 -43.897953 
L 39.420152 -43.888834 
L 39.514317 -43.879828 
L 39.608681 -43.874388 
L 39.703243 -43.876142 
L 39.798006 -43.888445 
L 39.892969 -43.913699 
L 39.988134 -43.952733 
L 40.0835 -44.004433 
L 40.179069 -44.065519 
L 40.274841 -44.130664 
L 40.370817 -44.193074 
L 40.466997 -44.245399 
L 40.563382 -44.280756 
L 40.659973 -44.293962 
L 40.75677 -44.282611 
L 40.853774 -44.24749 
L 40.950986 -44.192812 
L 41.048407 -44.125885 
L 41.146036 -44.05601 
L 41.243876 -43.993281 
L 41.341925 -43.947122 
L 41.440186 -43.924773 
L 41.538659 -43.930318 
L 41.637343 -43.964044 
L 41.736242 -44.022271 
L 41.835353 -44.097991 
L 41.93468 -44.181749 
L 42.034222 -44.262888 
L 42.133979 -44.331035 
L 42.233953 -44.377397 
L 42.334145 -44.395766 
L 42.434555 -44.383389 
L 42.535183 -44.341419 
L 42.636031 -44.274585 
L 42.737099 -44.191101 
L 42.838388 -44.102044 
L 42.939898 -44.020113 
L 43.041631 -43.958888 
L 43.143587 -43.931609 
L 43.245767 -43.94989 
L 43.348172 -44.022681 
L 43.450802 -44.155127 
L 43.553657 -44.347763 
L 43.65674 -44.595932 
L 43.76005 -44.889651 
L 43.863589 -45.21402 
L 43.967356 -45.549981 
L 44.071354 -45.876033 
L 44.175582 -46.17006 
L 44.280041 -46.411435 
L 44.384733 -46.583681 
L 44.489657 -46.676477 
L 44.594815 -46.687427 
L 44.700208 -46.623035 
L 44.805835 -46.498873 
L 44.911699 -46.338956 
L 45.0178 -46.173619 
L 45.124138 -46.036998 
L 45.230715 -45.964015 
L 45.337531 -45.986816 
L 45.444587 -46.131516 
L 45.551884 -46.41536 
L 45.659422 -46.845002 
L 45.767203 -47.415603 
L 45.875227 -48.110554 
L 45.983496 -48.90318 
L 46.092009 -49.75897 
L 46.200768 -50.637984 
L 46.309774 -51.498587 
L 46.419027 -52.300917 
L 46.528529 -53.009029 
L 46.638279 -53.593636 
L 46.74828 -54.034648 
L 46.858531 -54.320833 
L 46.969035 -54.450277 
L 47.07979 -54.430156 
L 47.1908 -54.274768 
L 47.302063 -54.004392 
L 47.413582 -53.64339 
L 47.525357 -53.218549 
L 47.637389 -52.757158 
L 47.749678 -52.286171 
L 47.862227 -51.831346 
L 47.975034 -51.415838 
L 48.088103 -51.060913 
L 48.201433 -50.785113 
L 48.315025 -50.603988 
L 48.428881 -50.530946 
L 48.543 -50.576238 
L 48.657385 -50.747059 
L 48.772036 -51.047667 
L 48.886954 -51.478736 
L 49.002139 -52.037209 
L 49.117594 -52.716042 
L 49.233318 -53.504397 
L 49.349313 -54.387307 
L 49.465579 -55.345955 
L 49.582118 -56.359231 
L 49.698931 -57.403666 
L 49.816018 -58.454237 
L 49.933381 -59.486468 
L 50.05102 -60.4765 
L 50.168937 -61.402629 
L 50.287132 -62.246948 
L 50.405606 -62.994744 
L 50.524361 -63.635642 
L 50.643398 -64.164404 
L 50.762716 -64.580668 
L 50.882319 -64.888039 
L 51.002205 -65.093839 
L 51.122377 -65.209832 
L 51.242836 -65.249897 
L 51.363582 -65.229571 
L 51.484616 -65.166403 
L 51.60594 -65.077598 
L 51.727555 -64.980417 
L 51.849461 -64.892002 
L 51.97166 -64.827393 
L 52.094153 -64.800484 
L 52.21694 -64.823797 
L 52.340024 -64.906816 
L 52.463404 -65.057326 
L 52.587082 -65.280965 
L 52.71106 -65.580133 
L 52.835338 -65.955192 
L 52.959917 -66.403531 
L 53.084798 -66.91991 
L 53.209983 -67.496903 
L 53.335472 -68.123667 
L 53.461267 -68.78767 
L 53.587369 -69.474568 
L 53.713779 -70.167414 
L 53.840498 -70.84872 
L 53.967527 -71.500007 
L 54.094867 -72.102376 
L 54.22252 -72.638261 
L 54.350487 -73.090338 
L 54.478768 -73.443183 
L 54.607366 -73.684136 
L 54.73628 -73.80238 
L 54.865513 -73.791153 
L 54.995065 -73.646902 
L 55.124938 -73.368699 
L 55.255133 -72.959995 
L 55.385651 -72.4274 
L 55.516493 -71.780088 
L 55.647661 -71.029947 
L 55.779155 -70.190869 
L 55.910977 -69.277731 
L 56.043129 -68.305885 
L 56.175611 -67.2912 
L 56.308424 -66.248835 
L 56.44157 -65.192775 
L 56.575051 -64.136142 
L 56.708866 -63.090027 
L 56.843019 -62.063421 
L 56.977509 -61.063941 
L 57.112339 -60.097131 
L 57.247509 -59.16661 
L 57.38302 -58.274637 
L 57.518875 -57.422334 
L 57.655074 -56.609864 
L 57.791619 -55.836203 
L 57.928511 -55.100035 
L 58.065751 -54.399953 
L 58.203341 -53.734427 
L 58.341282 -53.102041 
L 58.479575 -52.501361 
L 58.618222 -51.931722 
L 58.757224 -51.392368 
L 58.896582 -50.882502 
L 59.036299 -50.402188 
L 59.176374 -49.951337 
L 59.31681 -49.529765 
L 59.457608 -49.137335 
L 59.598769 -48.774053 
L 59.740295 -48.43973 
L 59.882187 -48.1337 
L 60.024446 -47.85559 
L 60.167075 -47.604669 
L 60.310074 -47.379769 
L 60.453445 -47.17995 
L 60.59719 -47.004202 
L 60.741309 -46.851198 
L 60.885805 -46.719625 
L 61.030678 -46.608398 
L 61.175931 -46.516438 
L 61.321564 -46.442666 
L 61.467579 -46.386049 
L 61.613979 -46.345739 
L 61.760763 -46.32096 
L 61.907935 -46.311124 
L 62.055494 -46.315788 
L 62.203444 -46.334435 
L 62.351785 -46.366955 
L 62.500519 -46.413082 
L 62.649647 -46.472551 
L 62.799172 -46.545451 
L 62.949094 -46.631528 
L 63.099415 -46.73045 
L 63.250137 -46.841705 
L 63.401262 -46.964645 
L 63.552791 -47.098288 
L 63.704725 -47.241012 
L 63.857067 -47.391125 
L 64.009818 -47.546372 
L 64.16298 -47.704011 
L 64.316553 -47.86097 
L 64.470541 -48.013577 
L 64.624944 -48.158314 
L 64.779765 -48.291381 
L 64.935004 -48.408767 
L 65.090665 -48.506997 
L 65.246747 -48.582526 
L 65.403254 -48.632344 
L 65.560187 -48.654142 
L 65.717547 -48.646 
L 65.875337 -48.606999 
L 66.033558 -48.536962 
L 66.192211 -48.436548 
L 66.3513 -48.307039 
L 66.510825 -48.150479 
L 66.670788 -47.969837 
L 66.831191 -47.768134 
L 66.992036 -47.5489 
L 67.153325 -47.316173 
L 67.315059 -47.073561 
L 67.477241 -46.824655 
L 67.639871 -46.572933 
L 67.802954 -46.321257 
L 67.966489 -46.072283 
L 68.130479 -45.82805 
L 68.294925 -45.59026 
L 68.459831 -45.36045 
L 68.625197 -45.139786 
L 68.791026 -44.929566 
L 68.957319 -44.730976 
L 69.124078 -44.545299 
L 69.291306 -44.373933 
L 69.459005 -44.218389 
L 69.627176 -44.080146 
L 69.627176 -43.568366 
L 69.627176 -43.568366 
L 69.459005 -43.568366 
L 69.291306 -43.568366 
L 69.124078 -43.568366 
L 68.957319 -43.568366 
L 68.791026 -43.568366 
L 68.625197 -43.568366 
L 68.459831 -43.568366 
L 68.294925 -43.568366 
L 68.130479 -43.568366 
L 67.966489 -43.568366 
L 67.802954 -43.568366 
L 67.639871 -43.568366 
L 67.477241 -43.568366 
L 67.315059 -43.568366 
L 67.153325 -43.568366 
L 66.992036 -43.568366 
L 66.831191 -43.568366 
L 66.670788 -43.568366 
L 66.510825 -43.568366 
L 66.3513 -43.568366 
L 66.192211 -43.568366 
L 66.033558 -43.568366 
L 65.875337 -43.568366 
L 65.717547 -43.568366 
L 65.560187 -43.568366 
L 65.403254 -43.568366 
L 65.246747 -43.568366 
L 65.090665 -43.568366 
L 64.935004 -43.568366 
L 64.779765 -43.568366 
L 64.624944 -43.568366 
L 64.470541 -43.568366 
L 64.316553 -43.568366 
L 64.16298 -43.568366 
L 64.009818 -43.568366 
L 63.857067 -43.568366 
L 63.704725 -43.568366 
L 63.552791 -43.568366 
L 63.401262 -43.568366 
L 63.250137 -43.568366 
L 63.099415 -43.568366 
L 62.949094 -43.568366 
L 62.799172 -43.568366 
L 62.649647 -43.568366 
L 62.500519 -43.568366 
L 62.351785 -43.568366 
L 62.203444 -43.568366 
L 62.055494 -43.568366 
L 61.907935 -43.568366 
L 61.760763 -43.568366 
L 61.613979 -43.568366 
L 61.467579 -43.568366 
L 61.321564 -43.568366 
L 61.175931 -43.568366 
L 61.030678 -43.568366 
L 60.885805 -43.568366 
L 60.741309 -43.568366 
L 60.59719 -43.568366 
L 60.453445 -43.568366 
L 60.310074 -43.568366 
L 60.167075 -43.568366 
L 60.024446 -43.568366 
L 59.882187 -43.568366 
L 59.740295 -43.568366 
L 59.598769 -43.568366 
L 59.457608 -43.568366 
L 59.31681 -43.568366 
L 59.176374 -43.568366 
L 59.036299 -43.568366 
L 58.896582 -43.568366 
L 58.757224 -43.568366 
L 58.618222 -43.568366 
L 58.479575 -43.568366 
L 58.341282 -43.568366 
L 58.203341 -43.568366 
L 58.065751 -43.568366 
L 57.928511 -43.568366 
L 57.791619 -43.568366 
L 57.655074 -43.568366 
L 57.518875 -43.568366 
L 57.38302 -43.568366 
L 57.247509 -43.568366 
L 57.112339 -43.568366 
L 56.977509 -43.568366 
L 56.843019 -43.568366 
L 56.708866 -43.568366 
L 56.575051 -43.568366 
L 56.44157 -43.568366 
L 56.308424 -43.568366 
L 56.175611 -43.568366 
L 56.043129 -43.568366 
L 55.910977 -43.568366 
L 55.779155 -43.568366 
L 55.647661 -43.568366 
L 55.516493 -43.568366 
L 55.385651 -43.568366 
L 55.255133 -43.568366 
L 55.124938 -43.568366 
L 54.995065 -43.568366 
L 54.865513 -43.568366 
L 54.73628 -43.568366 
L 54.607366 -43.568366 
L 54.478768 -43.568366 
L 54.350487 -43.568366 
L 54.22252 -43.568366 
L 54.094867 -43.568366 
L 53.967527 -43.568366 
L 53.840498 -43.568366 
L 53.713779 -43.568366 
L 53.587369 -43.568366 
L 53.461267 -43.568366 
L 53.335472 -43.568366 
L 53.209983 -43.568366 
L 53.084798 -43.568366 
L 52.959917 -43.568366 
L 52.835338 -43.568366 
L 52.71106 -43.568366 
L 52.587082 -43.568366 
L 52.463404 -43.568366 
L 52.340024 -43.568366 
L 52.21694 -43.568366 
L 52.094153 -43.568366 
L 51.97166 -43.568366 
L 51.849461 -43.568366 
L 51.727555 -43.568366 
L 51.60594 -43.568366 
L 51.484616 -43.568366 
L 51.363582 -43.568366 
L 51.242836 -43.568366 
L 51.122377 -43.568366 
L 51.002205 -43.568366 
L 50.882319 -43.568366 
L 50.762716 -43.568366 
L 50.643398 -43.568366 
L 50.524361 -43.568366 
L 50.405606 -43.568366 
L 50.287132 -43.568366 
L 50.168937 -43.568366 
L 50.05102 -43.568366 
L 49.933381 -43.568366 
L 49.816018 -43.568366 
L 49.698931 -43.568366 
L 49.582118 -43.568366 
L 49.465579 -43.568366 
L 49.349313 -43.568366 
L 49.233318 -43.568366 
L 49.117594 -43.568366 
L 49.002139 -43.568366 
L 48.886954 -43.568366 
L 48.772036 -43.568366 
L 48.657385 -43.568366 
L 48.543 -43.568366 
L 48.428881 -43.568366 
L 48.315025 -43.568366 
L 48.201433 -43.568366 
L 48.088103 -43.568366 
L 47.975034 -43.568366 
L 47.862227 -43.568366 
L 47.749678 -43.568366 
L 47.637389 -43.568366 
L 47.525357 -43.568366 
L 47.413582 -43.568366 
L 47.302063 -43.568366 
L 47.1908 -43.568366 
L 47.07979 -43.568366 
L 46.969035 -43.568366 
L 46.858531 -43.568366 
L 46.74828 -43.568366 
L 46.638279 -43.568366 
L 46.528529 -43.568366 
L 46.419027 -43.568366 
L 46.309774 -43.568366 
L 46.200768 -43.568366 
L 46.092009 -43.568366 
L 45.983496 -43.568366 
L 45.875227 -43.568366 
L 45.767203 -43.568366 
L 45.659422 -43.568366 
L 45.551884 -43.568366 
L 45.444587 -43.568366 
L 45.337531 -43.568366 
L 45.230715 -43.568366 
L 45.124138 -43.568366 
L 45.0178 -43.568366 
L 44.911699 -43.568366 
L 44.805835 -43.568366 
L 44.700208 -43.568366 
L 44.594815 -43.568366 
L 44.489657 -43.568366 
L 44.384733 -43.568366 
L 44.280041 -43.568366 
L 44.175582 -43.568366 
L 44.071354 -43.568366 
L 43.967356 -43.568366 
L 43.863589 -43.568366 
L 43.76005 -43.568366 
L 43.65674 -43.568366 
L 43.553657 -43.568366 
L 43.450802 -43.568366 
L 43.348172 -43.568366 
L 43.245767 -43.568366 
L 43.143587 -43.568366 
L 43.041631 -43.568366 
L 42.939898 -43.568366 
L 42.838388 -43.568366 
L 42.737099 -43.568366 
L 42.636031 -43.568366 
L 42.535183 -43.568366 
L 42.434555 -43.568366 
L 42.334145 -43.568366 
L 42.233953 -43.568366 
L 42.133979 -43.568366 
L 42.034222 -43.568366 
L 41.93468 -43.568366 
L 41.835353 -43.568366 
L 41.736242 -43.568366 
L 41.637343 -43.568366 
L 41.538659 -43.568366 
L 41.440186 -43.568366 
L 41.341925 -43.568366 
L 41.243876 -43.568366 
L 41.146036 -43.568366 
L 41.048407 -43.568366 
L 40.950986 -43.568366 
L 40.853774 -43.568366 
L 40.75677 -43.568366 
L 40.659973 -43.568366 
L 40.563382 -43.568366 
L 40.466997 -43.568366 
L 40.370817 -43.568366 
L 40.274841 -43.568366 
L 40.179069 -43.568366 
L 40.0835 -43.568366 
L 39.988134 -43.568366 
L 39.892969 -43.568366 
L 39.798006 -43.568366 
L 39.703243 -43.568366 
L 39.608681 -43.568366 
L 39.514317 -43.568366 
L 39.420152 -43.568366 
L 39.326185 -43.568366 
L 39.232416 -43.568366 
L 39.138843 -43.568366 
L 39.045467 -43.568366 
L 38.952286 -43.568366 
L 38.8593 -43.568366 
L 38.766509 -43.568366 
L 38.673911 -43.568366 
L 38.581506 -43.568366 
L 38.489294 -43.568366 
L 38.397273 -43.568366 
L 38.305444 -43.568366 
L 38.213806 -43.568366 
L 38.122357 -43.568366 
L 38.031099 -43.568366 
L 37.940029 -43.568366 
L 37.849148 -43.568366 
L 37.758454 -43.568366 
L 37.667948 -43.568366 
L 37.577628 -43.568366 
L 37.487494 -43.568366 
L 37.397546 -43.568366 
L 37.307782 -43.568366 
L 37.218203 -43.568366 
L 37.128808 -43.568366 
L 37.039595 -43.568366 
L 36.950566 -43.568366 
L 36.861718 -43.568366 
L 36.773052 -43.568366 
L 36.684567 -43.568366 
L 36.596263 -43.568366 
L 36.508138 -43.568366 
L 36.420192 -43.568366 
L 36.332426 -43.568366 
L 36.244837 -43.568366 
L 36.157426 -43.568366 
L 36.070192 -43.568366 
L 35.983135 -43.568366 
L 35.896254 -43.568366 
L 35.809549 -43.568366 
L 35.723018 -43.568366 
L 35.636662 -43.568366 
L 35.55048 -43.568366 
L 35.464471 -43.568366 
L 35.378635 -43.568366 
L 35.292971 -43.568366 
L 35.207479 -43.568366 
L 35.122159 -43.568366 
L 35.037009 -43.568366 
L 34.95203 -43.568366 
L 34.867221 -43.568366 
L 34.78258 -43.568366 
L 34.698109 -43.568366 
L 34.613806 -43.568366 
L 34.52967 -43.568366 
L 34.445702 -43.568366 
L 34.361901 -43.568366 
L 34.278266 -43.568366 
L 34.194796 -43.568366 
L 34.111492 -43.568366 
L 34.028353 -43.568366 
L 33.945378 -43.568366 
L 33.862567 -43.568366 
L 33.779919 -43.568366 
L 33.697434 -43.568366 
L 33.615112 -43.568366 
L 33.532951 -43.568366 
L 33.450952 -43.568366 
L 33.369113 -43.568366 
L 33.287436 -43.568366 
L 33.205918 -43.568366 
L 33.124559 -43.568366 
L 33.04336 -43.568366 
L 32.962319 -43.568366 
L 32.881437 -43.568366 
L 32.800712 -43.568366 
L 32.720144 -43.568366 
L 32.639733 -43.568366 
L 32.559479 -43.568366 
L 32.47938 -43.568366 
L 32.399437 -43.568366 
L 32.319648 -43.568366 
L 32.240014 -43.568366 
L 32.160534 -43.568366 
L 32.081208 -43.568366 
L 32.002034 -43.568366 
L 31.923014 -43.568366 
L 31.844145 -43.568366 
L 31.765429 -43.568366 
L 31.686864 -43.568366 
L 31.60845 -43.568366 
L 31.530186 -43.568366 
L 31.452072 -43.568366 
L 31.374109 -43.568366 
L 31.296294 -43.568366 
L 31.218628 -43.568366 
L 31.14111 -43.568366 
L 31.063741 -43.568366 
L 30.986518 -43.568366 
L 30.909443 -43.568366 
L 30.832515 -43.568366 
L 30.755733 -43.568366 
L 30.679097 -43.568366 
L 30.602606 -43.568366 
L 30.52626 -43.568366 
L 30.450059 -43.568366 
L 30.374001 -43.568366 
L 30.298088 -43.568366 
L 30.222318 -43.568366 
L 30.146691 -43.568366 
L 30.071207 -43.568366 
L 29.995864 -43.568366 
L 29.920664 -43.568366 
L 29.845605 -43.568366 
L 29.770687 -43.568366 
L 29.695909 -43.568366 
L 29.621271 -43.568366 
L 29.546774 -43.568366 
L 29.472415 -43.568366 
L 29.398196 -43.568366 
L 29.324115 -43.568366 
L 29.250173 -43.568366 
L 29.176368 -43.568366 
L 29.102701 -43.568366 
L 29.02917 -43.568366 
L 28.955777 -43.568366 
L 28.88252 -43.568366 
L 28.809398 -43.568366 
L 28.736412 -43.568366 
L 28.663562 -43.568366 
L 28.590846 -43.568366 
L 28.518265 -43.568366 
L 28.445817 -43.568366 
L 28.373503 -43.568366 
L 28.301323 -43.568366 
L 28.229275 -43.568366 
L 28.15736 -43.568366 
L 28.085578 -43.568366 
L 28.013927 -43.568366 
L 27.942407 -43.568366 
L 27.871019 -43.568366 
L 27.799761 -43.568366 
L 27.728634 -43.568366 
L 27.657637 -43.568366 
L 27.586769 -43.568366 
L 27.516031 -43.568366 
L 27.445422 -43.568366 
L 27.374941 -43.568366 
L 27.304589 -43.568366 
L 27.234364 -43.568366 
L 27.164268 -43.568366 
L 27.094298 -43.568366 
L 27.024455 -43.568366 
L 26.954739 -43.568366 
L 26.885149 -43.568366 
L 26.815685 -43.568366 
L 26.746346 -43.568366 
L 26.677132 -43.568366 
L 26.608044 -43.568366 
L 26.539079 -43.568366 
L 26.470239 -43.568366 
L 26.401523 -43.568366 
L 26.33293 -43.568366 
L 26.26446 -43.568366 
L 26.196114 -43.568366 
L 26.127889 -43.568366 
L 26.059787 -43.568366 
L 25.991807 -43.568366 
L 25.923948 -43.568366 
L 25.85621 -43.568366 
L 25.788593 -43.568366 
L 25.721097 -43.568366 
L 25.653721 -43.568366 
L 25.586464 -43.568366 
L 25.519328 -43.568366 
L 25.45231 -43.568366 
L 25.385412 -43.568366 
L 25.318632 -43.568366 
L 25.25197 -43.568366 
L 25.185427 -43.568366 
L 25.119001 -43.568366 
L 25.052692 -43.568366 
L 24.986501 -43.568366 
L 24.920426 -43.568366 
L 24.854468 -43.568366 
L 24.788625 -43.568366 
L 24.722899 -43.568366 
L 24.657288 -43.568366 
L 24.591792 -43.568366 
L 24.526412 -43.568366 
L 24.461145 -43.568366 
L 24.395994 -43.568366 
L 24.330956 -43.568366 
L 24.266032 -43.568366 
L 24.201221 -43.568366 
L 24.136523 -43.568366 
L 24.071938 -43.568366 
L 24.007466 -43.568366 
L 23.943106 -43.568366 
L 23.878858 -43.568366 
L 23.814721 -43.568366 
L 23.750696 -43.568366 
L 23.686782 -43.568366 
L 23.622979 -43.568366 
L 23.559286 -43.568366 
L 23.495703 -43.568366 
L 23.43223 -43.568366 
L 23.368867 -43.568366 
L 23.305613 -43.568366 
L 23.242468 -43.568366 
L 23.179433 -43.568366 
L 23.116505 -43.568366 
L 23.053686 -43.568366 
L 22.990974 -43.568366 
L 22.928371 -43.568366 
L 22.865875 -43.568366 
L 22.803485 -43.568366 
L 22.741203 -43.568366 
L 22.679027 -43.568366 
L 22.616958 -43.568366 
L 22.554994 -43.568366 
L 22.493136 -43.568366 
L 22.431384 -43.568366 
L 22.369737 -43.568366 
L 22.308195 -43.568366 
L 22.246757 -43.568366 
L 22.185424 -43.568366 
L 22.124195 -43.568366 
L 22.06307 -43.568366 
L 22.002049 -43.568366 
L 21.941131 -43.568366 
L 21.880316 -43.568366 
L 21.819603 -43.568366 
L 21.758994 -43.568366 
L 21.698486 -43.568366 
L 21.638081 -43.568366 
L 21.577777 -43.568366 
L 21.517575 -43.568366 
L 21.457474 -43.568366 
L 21.397475 -43.568366 
L 21.337575 -43.568366 
L 21.277777 -43.568366 
L 21.218079 -43.568366 
L 21.15848 -43.568366 
L 21.098982 -43.568366 
L 21.039583 -43.568366 
L 20.980283 -43.568366 
L 20.921082 -43.568366 
L 20.86198 -43.568366 
L 20.802976 -43.568366 
L 20.744071 -43.568366 
L 20.685264 -43.568366 
L 20.626554 -43.568366 
L 20.567942 -43.568366 
L 20.509428 -43.568366 
L 20.45101 -43.568366 
L 20.392689 -43.568366 
L 20.334465 -43.568366 
L 20.276337 -43.568366 
L 20.218305 -43.568366 
L 20.160369 -43.568366 
L 20.102528 -43.568366 
L 20.044783 -43.568366 
L 19.987133 -43.568366 
L 19.929578 -43.568366 
L 19.872118 -43.568366 
L 19.814752 -43.568366 
L 19.75748 -43.568366 
L 19.700302 -43.568366 
L 19.643218 -43.568366 
L 19.586227 -43.568366 
L 19.52933 -43.568366 
L 19.472526 -43.568366 
L 19.415814 -43.568366 
L 19.359195 -43.568366 
L 19.302669 -43.568366 
L 19.246235 -43.568366 
L 19.189892 -43.568366 
L 19.133641 -43.568366 
L 19.077482 -43.568366 
L 19.021414 -43.568366 
L 18.965437 -43.568366 
L 18.909551 -43.568366 
L 18.853755 -43.568366 
L 18.79805 -43.568366 
L 18.742435 -43.568366 
L 18.686909 -43.568366 
L 18.631474 -43.568366 
L 18.576128 -43.568366 
L 18.520871 -43.568366 
L 18.465703 -43.568366 
L 18.410624 -43.568366 
L 18.355634 -43.568366 
L 18.300732 -43.568366 
L 18.245919 -43.568366 
L 18.191193 -43.568366 
L 18.136555 -43.568366 
L 18.082005 -43.568366 
L 18.027542 -43.568366 
L 17.973166 -43.568366 
L 17.918877 -43.568366 
L 17.864675 -43.568366 
L 17.810559 -43.568366 
L 17.75653 -43.568366 
L 17.702586 -43.568366 
L 17.648729 -43.568366 
L 17.594957 -43.568366 
L 17.541271 -43.568366 
L 17.48767 -43.568366 
L 17.434154 -43.568366 
L 17.380723 -43.568366 
L 17.327377 -43.568366 
L 17.274115 -43.568366 
L 17.220938 -43.568366 
L 17.167844 -43.568366 
L 17.114835 -43.568366 
L 17.061909 -43.568366 
L 17.009066 -43.568366 
L 16.956307 -43.568366 
L 16.903631 -43.568366 
L 16.851038 -43.568366 
L 16.798527 -43.568366 
L 16.746099 -43.568366 
L 16.693754 -43.568366 
L 16.64149 -43.568366 
L 16.589308 -43.568366 
L 16.537209 -43.568366 
L 16.48519 -43.568366 
L 16.433253 -43.568366 
L 16.381397 -43.568366 
L 16.329622 -43.568366 
L 16.277928 -43.568366 
L 16.226315 -43.568366 
L 16.174781 -43.568366 
L 16.123328 -43.568366 
L 16.071955 -43.568366 
L 16.020662 -43.568366 
L 15.969449 -43.568366 
L 15.918315 -43.568366 
L 15.86726 -43.568366 
L 15.816284 -43.568366 
L 15.765388 -43.568366 
L 15.71457 -43.568366 
L 15.66383 -43.568366 
L 15.613169 -43.568366 
L 15.562586 -43.568366 
L 15.512081 -43.568366 
L 15.461654 -43.568366 
L 15.411305 -43.568366 
L 15.361033 -43.568366 
L 15.310838 -43.568366 
L 15.26072 -43.568366 
L 15.21068 -43.568366 
L 15.160716 -43.568366 
L 15.110828 -43.568366 
L 15.061018 -43.568366 
L 15.011283 -43.568366 
L 14.961624 -43.568366 
L 14.912041 -43.568366 
L 14.862534 -43.568366 
L 14.813103 -43.568366 
L 14.763746 -43.568366 
L 14.714465 -43.568366 
L 14.665259 -43.568366 
L 14.616128 -43.568366 
L 14.567071 -43.568366 
L 14.518089 -43.568366 
L 14.469182 -43.568366 
L 14.420348 -43.568366 
L 14.371588 -43.568366 
L 14.322903 -43.568366 
L 14.274291 -43.568366 
L 14.225752 -43.568366 
L 14.177287 -43.568366 
L 14.128895 -43.568366 
L 14.080575 -43.568366 
L 14.032329 -43.568366 
L 13.984155 -43.568366 
L 13.936054 -43.568366 
L 13.888025 -43.568366 
L 13.840069 -43.568366 
L 13.792184 -43.568366 
L 13.744371 -43.568366 
L 13.69663 -43.568366 
L 13.648961 -43.568366 
L 13.601362 -43.568366 
L 13.553835 -43.568366 
L 13.506379 -43.568366 
L 13.458994 -43.568366 
L 13.41168 -43.568366 
L 13.364436 -43.568366 
L 13.317263 -43.568366 
L 13.270159 -43.568366 
L 13.223126 -43.568366 
L 13.176163 -43.568366 
L 13.12927 -43.568366 
L 13.082446 -43.568366 
L 13.035692 -43.568366 
L 12.989007 -43.568366 
L 12.942391 -43.568366 
L 12.895844 -43.568366 
L 12.849366 -43.568366 
L 12.802957 -43.568366 
L 12.756617 -43.568366 
L 12.710344 -43.568366 
L 12.66414 -43.568366 
L 12.618004 -43.568366 
L 12.571936 -43.568366 
L 12.525936 -43.568366 
L 12.480004 -43.568366 
L 12.434139 -43.568366 
L 12.388341 -43.568366 
L 12.342611 -43.568366 
L 12.296947 -43.568366 
L 12.251351 -43.568366 
L 12.205821 -43.568366 
L 12.160358 -43.568366 
L 12.114961 -43.568366 
L 12.069631 -43.568366 
L 12.024367 -43.568366 
L 11.979168 -43.568366 
L 11.934036 -43.568366 
L 11.88897 -43.568366 
L 11.843969 -43.568366 
L 11.799033 -43.568366 
L 11.754163 -43.568366 
L 11.709358 -43.568366 
L 11.664618 -43.568366 
L 11.619943 -43.568366 
L 11.575333 -43.568366 
L 11.530787 -43.568366 
L 11.486306 -43.568366 
L 11.441889 -43.568366 
L 11.397536 -43.568366 
L 11.353248 -43.568366 
L 11.309023 -43.568366 
L 11.264862 -43.568366 
L 11.220764 -43.568366 
L 11.17673 -43.568366 
L 11.13276 -43.568366 
L 11.088853 -43.568366 
L 11.045008 -43.568366 
L 11.001227 -43.568366 
L 10.957509 -43.568366 
L 10.913853 -43.568366 
L 10.87026 -43.568366 
L 10.826729 -43.568366 
L 10.78326 -43.568366 
L 10.739854 -43.568366 
L 10.69651 -43.568366 
L 10.653227 -43.568366 
L 10.610006 -43.568366 
L 10.566847 -43.568366 
L 10.523749 -43.568366 
L 10.480713 -43.568366 
L 10.437738 -43.568366 
L 10.394824 -43.568366 
L 10.351971 -43.568366 
L 10.309179 -43.568366 
L 10.266447 -43.568366 
L 10.223776 -43.568366 
L 10.181166 -43.568366 
L 10.138615 -43.568366 
L 10.096125 -43.568366 
L 10.053695 -43.568366 
L 10.011325 -43.568366 
L 9.969015 -43.568366 
L 9.926765 -43.568366 
L 9.884574 -43.568366 
L 9.842442 -43.568366 
L 9.80037 -43.568366 
L 9.758357 -43.568366 
L 9.716402 -43.568366 
L 9.674507 -43.568366 
L 9.632671 -43.568366 
L 9.590893 -43.568366 
L 9.549174 -43.568366 
L 9.507513 -43.568366 
L 9.465911 -43.568366 
L 9.424367 -43.568366 
L 9.382881 -43.568366 
L 9.341453 -43.568366 
L 9.300082 -43.568366 
L 9.25877 -43.568366 
L 9.217514 -43.568366 
L 9.176317 -43.568366 
L 9.135177 -43.568366 
L 9.094093 -43.568366 
L 9.053067 -43.568366 
L 9.012098 -43.568366 
L 8.971186 -43.568366 
L 8.930331 -43.568366 
L 8.889532 -43.568366 
L 8.84879 -43.568366 
L 8.808104 -43.568366 
L 8.767474 -43.568366 
L 8.726901 -43.568366 
L 8.686384 -43.568366 
L 8.645922 -43.568366 
L 8.605516 -43.568366 
L 8.565166 -43.568366 
L 8.524872 -43.568366 
L 8.484633 -43.568366 
L 8.44445 -43.568366 
L 8.404321 -43.568366 
L 8.364248 -43.568366 
L 8.32423 -43.568366 
L 8.284266 -43.568366 
L 8.244358 -43.568366 
L 8.204504 -43.568366 
L 8.164705 -43.568366 
L 8.12496 -43.568366 
L 8.085269 -43.568366 
L 8.045633 -43.568366 
L 8.006051 -43.568366 
L 7.966523 -43.568366 
L 7.927048 -43.568366 
L 7.887628 -43.568366 
L 7.848261 -43.568366 
L 7.808948 -43.568366 
L 7.769688 -43.568366 
L 7.730481 -43.568366 
L 7.691328 -43.568366 
L 7.652228 -43.568366 
L 7.613181 -43.568366 
L 7.574187 -43.568366 
L 7.535245 -43.568366 
L 7.496356 -43.568366 
L 7.45752 -43.568366 
L 7.418737 -43.568366 
L 7.380005 -43.568366 
L 7.341326 -43.568366 
L 7.302699 -43.568366 
L 7.264125 -43.568366 
L 7.225602 -43.568366 
L 7.187131 -43.568366 
L 7.148712 -43.568366 
L 7.110344 -43.568366 
L 7.072028 -43.568366 
L 7.033763 -43.568366 
L 6.99555 -43.568366 
L 6.957388 -43.568366 
L 6.919277 -43.568366 
L 6.881217 -43.568366 
L 6.843208 -43.568366 
L 6.80525 -43.568366 
L 6.767342 -43.568366 
L 6.729485 -43.568366 
L 6.691679 -43.568366 
L 6.653923 -43.568366 
L 6.616217 -43.568366 
z
" style="stroke: #8c1515; stroke-opacity: 0.18"/>
    </defs>
    <g clip-path="url(#p80dd834822)">
     <use xlink:href="#m4371a44f2f" x="0" y="279.051875" style="fill: #8c1515; fill-opacity: 0.18; stroke: #8c1515; stroke-opacity: 0.18"/>
    </g>
   </g>
   <g id="matplotlib.axis_1">
    <g id="xtick_1">
     <g id="line2d_1">
      <path d="M 45.716875 239.56 
L 45.716875 7.2 
" clip-path="url(#p80dd834822)" style="fill: none; stroke: #eeeeee; stroke-width: 0.8; stroke-linecap: square"/>
     </g>
     <g id="line2d_2">
      <defs>
       <path id="ma5d288dab5" d="M 0 0 
L 0 3.5 
" style="stroke: #000000; stroke-width: 0.8"/>
      </defs>
      <g>
       <use xlink:href="#ma5d288dab5" x="45.716875" y="239.56" style="stroke: #000000; stroke-width: 0.8"/>
      </g>
     </g>
     <g id="text_1">
      <!-- 200 -->
      <g transform="translate(36.173125 254.158437) scale(0.1 -0.1)">
       <defs>
        <path id="DejaVuSans-32" d="M 1228 531 
L 3431 531 
L 3431 0 
L 469 0 
L 469 531 
Q 828 903 1448 1529 
Q 2069 2156 2228 2338 
Q 2531 2678 2651 2914 
Q 2772 3150 2772 3378 
Q 2772 3750 2511 3984 
Q 2250 4219 1831 4219 
Q 1534 4219 1204 4116 
Q 875 4013 500 3803 
L 500 4441 
Q 881 4594 1212 4672 
Q 1544 4750 1819 4750 
Q 2544 4750 2975 4387 
Q 3406 4025 3406 3419 
Q 3406 3131 3298 2873 
Q 3191 2616 2906 2266 
Q 2828 2175 2409 1742 
Q 1991 1309 1228 531 
z
" transform="scale(0.015625)"/>
        <path id="DejaVuSans-30" d="M 2034 4250 
Q 1547 4250 1301 3770 
Q 1056 3291 1056 2328 
Q 1056 1369 1301 889 
Q 1547 409 2034 409 
Q 2525 409 2770 889 
Q 3016 1369 3016 2328 
Q 3016 3291 2770 3770 
Q 2525 4250 2034 4250 
z
M 2034 4750 
Q 2819 4750 3233 4129 
Q 3647 3509 3647 2328 
Q 3647 1150 3233 529 
Q 2819 -91 2034 -91 
Q 1250 -91 836 529 
Q 422 1150 422 2328 
Q 422 3509 836 4129 
Q 1250 4750 2034 4750 
z
" transform="scale(0.015625)"/>
       </defs>
       <use xlink:href="#DejaVuSans-32"/>
       <use xlink:href="#DejaVuSans-30" transform="translate(63.623047 0)"/>
       <use xlink:href="#DejaVuSans-30" transform="translate(127.246094 0)"/>
      </g>
     </g>
    </g>
    <g id="xtick_2">
     <g id="line2d_3">
      <path d="M 141.376042 239.56 
L 141.376042 7.2 
" clip-path="url(#p80dd834822)" style="fill: none; stroke: #eeeeee; stroke-width: 0.8; stroke-linecap: square"/>
     </g>
     <g id="line2d_4">
      <g>
       <use xlink:href="#ma5d288dab5" x="141.376042" y="239.56" style="stroke: #000000; stroke-width: 0.8"/>
      </g>
     </g>
     <g id="text_2">
      <!-- 400 -->
      <g transform="translate(131.832292 254.158437) scale(0.1 -0.1)">
       <defs>
        <path id="DejaVuSans-34" d="M 2419 4116 
L 825 1625 
L 2419 1625 
L 2419 4116 
z
M 2253 4666 
L 3047 4666 
L 3047 1625 
L 3713 1625 
L 3713 1100 
L 3047 1100 
L 3047 0 
L 2419 0 
L 2419 1100 
L 313 1100 
L 313 1709 
L 2253 4666 
z
" transform="scale(0.015625)"/>
       </defs>
       <use xlink:href="#DejaVuSans-34"/>
       <use xlink:href="#DejaVuSans-30" transform="translate(63.623047 0)"/>
       <use xlink:href="#DejaVuSans-30" transform="translate(127.246094 0)"/>
      </g>
     </g>
    </g>
    <g id="xtick_3">
     <g id="line2d_5">
      <path d="M 237.035208 239.56 
L 237.035208 7.2 
" clip-path="url(#p80dd834822)" style="fill: none; stroke: #eeeeee; stroke-width: 0.8; stroke-linecap: square"/>
     </g>
     <g id="line2d_6">
      <g>
       <use xlink:href="#ma5d288dab5" x="237.035208" y="239.56" style="stroke: #000000; stroke-width: 0.8"/>
      </g>
     </g>
     <g id="text_3">
      <!-- 600 -->
      <g transform="translate(227.491458 254.158437) scale(0.1 -0.1)">
       <defs>
        <path id="DejaVuSans-36" d="M 2113 2584 
Q 1688 2584 1439 2293 
Q 1191 2003 1191 1497 
Q 1191 994 1439 701 
Q 1688 409 2113 409 
Q 2538 409 2786 701 
Q 3034 994 3034 1497 
Q 3034 2003 2786 2293 
Q 2538 2584 2113 2584 
z
M 3366 4563 
L 3366 3988 
Q 3128 4100 2886 4159 
Q 2644 4219 2406 4219 
Q 1781 4219 1451 3797 
Q 1122 3375 1075 2522 
Q 1259 2794 1537 2939 
Q 1816 3084 2150 3084 
Q 2853 3084 3261 2657 
Q 3669 2231 3669 1497 
Q 3669 778 3244 343 
Q 2819 -91 2113 -91 
Q 1303 -91 875 529 
Q 447 1150 447 2328 
Q 447 3434 972 4092 
Q 1497 4750 2381 4750 
Q 2619 4750 2861 4703 
Q 3103 4656 3366 4563 
z
" transform="scale(0.015625)"/>
       </defs>
       <use xlink:href="#DejaVuSans-36"/>
       <use xlink:href="#DejaVuSans-30" transform="translate(63.623047 0)"/>
       <use xlink:href="#DejaVuSans-30" transform="translate(127.246094 0)"/>
      </g>
     </g>
    </g>
    <g id="xtick_4">
     <g id="line2d_7">
      <path d="M 332.694375 239.56 
L 332.694375 7.2 
" clip-path="url(#p80dd834822)" style="fill: none; stroke: #eeeeee; stroke-width: 0.8; stroke-linecap: square"/>
     </g>
     <g id="line2d_8">
      <g>
       <use xlink:href="#ma5d288dab5" x="332.694375" y="239.56" style="stroke: #000000; stroke-width: 0.8"/>
      </g>
     </g>
     <g id="text_4">
      <!-- 800 -->
      <g transform="translate(323.150625 254.158437) scale(0.1 -0.1)">
       <defs>
        <path id="DejaVuSans-38" d="M 2034 2216 
Q 1584 2216 1326 1975 
Q 1069 1734 1069 1313 
Q 1069 891 1326 650 
Q 1584 409 2034 409 
Q 2484 409 2743 651 
Q 3003 894 3003 1313 
Q 3003 1734 2745 1975 
Q 2488 2216 2034 2216 
z
M 1403 2484 
Q 997 2584 770 2862 
Q 544 3141 544 3541 
Q 544 4100 942 4425 
Q 1341 4750 2034 4750 
Q 2731 4750 3128 4425 
Q 3525 4100 3525 3541 
Q 3525 3141 3298 2862 
Q 3072 2584 2669 2484 
Q 3125 2378 3379 2068 
Q 3634 1759 3634 1313 
Q 3634 634 3220 271 
Q 2806 -91 2034 -91 
Q 1263 -91 848 271 
Q 434 634 434 1313 
Q 434 1759 690 2068 
Q 947 2378 1403 2484 
z
M 1172 3481 
Q 1172 3119 1398 2916 
Q 1625 2713 2034 2713 
Q 2441 2713 2670 2916 
Q 2900 3119 2900 3481 
Q 2900 3844 2670 4047 
Q 2441 4250 2034 4250 
Q 1625 4250 1398 4047 
Q 1172 3844 1172 3481 
z
" transform="scale(0.015625)"/>
       </defs>
       <use xlink:href="#DejaVuSans-38"/>
       <use xlink:href="#DejaVuSans-30" transform="translate(63.623047 0)"/>
       <use xlink:href="#DejaVuSans-30" transform="translate(127.246094 0)"/>
      </g>
     </g>
    </g>
    <g id="xtick_5">
     <g id="line2d_9">
      <path d="M 428.353542 239.56 
L 428.353542 7.2 
" clip-path="url(#p80dd834822)" style="fill: none; stroke: #eeeeee; stroke-width: 0.8; stroke-linecap: square"/>
     </g>
     <g id="line2d_10">
      <g>
       <use xlink:href="#ma5d288dab5" x="428.353542" y="239.56" style="stroke: #000000; stroke-width: 0.8"/>
      </g>
     </g>
     <g id="text_5">
      <!-- 1000 -->
      <g transform="translate(415.628542 254.158437) scale(0.1 -0.1)">
       <defs>
        <path id="DejaVuSans-31" d="M 794 531 
L 1825 531 
L 1825 4091 
L 703 3866 
L 703 4441 
L 1819 4666 
L 2450 4666 
L 2450 531 
L 3481 531 
L 3481 0 
L 794 0 
L 794 531 
z
" transform="scale(0.015625)"/>
       </defs>
       <use xlink:href="#DejaVuSans-31"/>
       <use xlink:href="#DejaVuSans-30" transform="translate(63.623047 0)"/>
       <use xlink:href="#DejaVuSans-30" transform="translate(127.246094 0)"/>
       <use xlink:href="#DejaVuSans-30" transform="translate(190.869141 0)"/>
      </g>
     </g>
    </g>
    <g id="xtick_6">
     <g id="line2d_11">
      <path d="M 524.012708 239.56 
L 524.012708 7.2 
" clip-path="url(#p80dd834822)" style="fill: none; stroke: #eeeeee; stroke-width: 0.8; stroke-linecap: square"/>
     </g>
     <g id="line2d_12">
      <g>
       <use xlink:href="#ma5d288dab5" x="524.012708" y="239.56" style="stroke: #000000; stroke-width: 0.8"/>
      </g>
     </g>
     <g id="text_6">
      <!-- 1200 -->
      <g transform="translate(511.287708 254.158437) scale(0.1 -0.1)">
       <use xlink:href="#DejaVuSans-31"/>
       <use xlink:href="#DejaVuSans-32" transform="translate(63.623047 0)"/>
       <use xlink:href="#DejaVuSans-30" transform="translate(127.246094 0)"/>
       <use xlink:href="#DejaVuSans-30" transform="translate(190.869141 0)"/>
      </g>
     </g>
    </g>
    <g id="xtick_7">
     <g id="line2d_13">
      <path d="M 619.671875 239.56 
L 619.671875 7.2 
" clip-path="url(#p80dd834822)" style="fill: none; stroke: #eeeeee; stroke-width: 0.8; stroke-linecap: square"/>
     </g>
     <g id="line2d_14">
      <g>
       <use xlink:href="#ma5d288dab5" x="619.671875" y="239.56" style="stroke: #000000; stroke-width: 0.8"/>
      </g>
     </g>
     <g id="text_7">
      <!-- 1400 -->
      <g transform="translate(606.946875 254.158437) scale(0.1 -0.1)">
       <use xlink:href="#DejaVuSans-31"/>
       <use xlink:href="#DejaVuSans-34" transform="translate(63.623047 0)"/>
       <use xlink:href="#DejaVuSans-30" transform="translate(127.246094 0)"/>
       <use xlink:href="#DejaVuSans-30" transform="translate(190.869141 0)"/>
      </g>
     </g>
    </g>
    <g id="text_8">
     <!-- Wavelength (nm) -->
     <g transform="translate(280.86375 269.35625) scale(0.12 -0.12)">
      <defs>
       <path id="DejaVuSans-57" d="M 213 4666 
L 850 4666 
L 1831 722 
L 2809 4666 
L 3519 4666 
L 4500 722 
L 5478 4666 
L 6119 4666 
L 4947 0 
L 4153 0 
L 3169 4050 
L 2175 0 
L 1381 0 
L 213 4666 
z
" transform="scale(0.015625)"/>
       <path id="DejaVuSans-61" d="M 2194 1759 
Q 1497 1759 1228 1600 
Q 959 1441 959 1056 
Q 959 750 1161 570 
Q 1363 391 1709 391 
Q 2188 391 2477 730 
Q 2766 1069 2766 1631 
L 2766 1759 
L 2194 1759 
z
M 3341 1997 
L 3341 0 
L 2766 0 
L 2766 531 
Q 2569 213 2275 61 
Q 1981 -91 1556 -91 
Q 1019 -91 701 211 
Q 384 513 384 1019 
Q 384 1609 779 1909 
Q 1175 2209 1959 2209 
L 2766 2209 
L 2766 2266 
Q 2766 2663 2505 2880 
Q 2244 3097 1772 3097 
Q 1472 3097 1187 3025 
Q 903 2953 641 2809 
L 641 3341 
Q 956 3463 1253 3523 
Q 1550 3584 1831 3584 
Q 2591 3584 2966 3190 
Q 3341 2797 3341 1997 
z
" transform="scale(0.015625)"/>
       <path id="DejaVuSans-76" d="M 191 3500 
L 800 3500 
L 1894 563 
L 2988 3500 
L 3597 3500 
L 2284 0 
L 1503 0 
L 191 3500 
z
" transform="scale(0.015625)"/>
       <path id="DejaVuSans-65" d="M 3597 1894 
L 3597 1613 
L 953 1613 
Q 991 1019 1311 708 
Q 1631 397 2203 397 
Q 2534 397 2845 478 
Q 3156 559 3463 722 
L 3463 178 
Q 3153 47 2828 -22 
Q 2503 -91 2169 -91 
Q 1331 -91 842 396 
Q 353 884 353 1716 
Q 353 2575 817 3079 
Q 1281 3584 2069 3584 
Q 2775 3584 3186 3129 
Q 3597 2675 3597 1894 
z
M 3022 2063 
Q 3016 2534 2758 2815 
Q 2500 3097 2075 3097 
Q 1594 3097 1305 2825 
Q 1016 2553 972 2059 
L 3022 2063 
z
" transform="scale(0.015625)"/>
       <path id="DejaVuSans-6c" d="M 603 4863 
L 1178 4863 
L 1178 0 
L 603 0 
L 603 4863 
z
" transform="scale(0.015625)"/>
       <path id="DejaVuSans-6e" d="M 3513 2113 
L 3513 0 
L 2938 0 
L 2938 2094 
Q 2938 2591 2744 2837 
Q 2550 3084 2163 3084 
Q 1697 3084 1428 2787 
Q 1159 2491 1159 1978 
L 1159 0 
L 581 0 
L 581 3500 
L 1159 3500 
L 1159 2956 
Q 1366 3272 1645 3428 
Q 1925 3584 2291 3584 
Q 2894 3584 3203 3211 
Q 3513 2838 3513 2113 
z
" transform="scale(0.015625)"/>
       <path id="DejaVuSans-67" d="M 2906 1791 
Q 2906 2416 2648 2759 
Q 2391 3103 1925 3103 
Q 1463 3103 1205 2759 
Q 947 2416 947 1791 
Q 947 1169 1205 825 
Q 1463 481 1925 481 
Q 2391 481 2648 825 
Q 2906 1169 2906 1791 
z
M 3481 434 
Q 3481 -459 3084 -895 
Q 2688 -1331 1869 -1331 
Q 1566 -1331 1297 -1286 
Q 1028 -1241 775 -1147 
L 775 -588 
Q 1028 -725 1275 -790 
Q 1522 -856 1778 -856 
Q 2344 -856 2625 -561 
Q 2906 -266 2906 331 
L 2906 616 
Q 2728 306 2450 153 
Q 2172 0 1784 0 
Q 1141 0 747 490 
Q 353 981 353 1791 
Q 353 2603 747 3093 
Q 1141 3584 1784 3584 
Q 2172 3584 2450 3431 
Q 2728 3278 2906 2969 
L 2906 3500 
L 3481 3500 
L 3481 434 
z
" transform="scale(0.015625)"/>
       <path id="DejaVuSans-74" d="M 1172 4494 
L 1172 3500 
L 2356 3500 
L 2356 3053 
L 1172 3053 
L 1172 1153 
Q 1172 725 1289 603 
Q 1406 481 1766 481 
L 2356 481 
L 2356 0 
L 1766 0 
Q 1100 0 847 248 
Q 594 497 594 1153 
L 594 3053 
L 172 3053 
L 172 3500 
L 594 3500 
L 594 4494 
L 1172 4494 
z
" transform="scale(0.015625)"/>
       <path id="DejaVuSans-68" d="M 3513 2113 
L 3513 0 
L 2938 0 
L 2938 2094 
Q 2938 2591 2744 2837 
Q 2550 3084 2163 3084 
Q 1697 3084 1428 2787 
Q 1159 2491 1159 1978 
L 1159 0 
L 581 0 
L 581 4863 
L 1159 4863 
L 1159 2956 
Q 1366 3272 1645 3428 
Q 1925 3584 2291 3584 
Q 2894 3584 3203 3211 
Q 3513 2838 3513 2113 
z
" transform="scale(0.015625)"/>
       <path id="DejaVuSans-20" transform="scale(0.015625)"/>
       <path id="DejaVuSans-28" d="M 1984 4856 
Q 1566 4138 1362 3434 
Q 1159 2731 1159 2009 
Q 1159 1288 1364 580 
Q 1569 -128 1984 -844 
L 1484 -844 
Q 1016 -109 783 600 
Q 550 1309 550 2009 
Q 550 2706 781 3412 
Q 1013 4119 1484 4856 
L 1984 4856 
z
" transform="scale(0.015625)"/>
       <path id="DejaVuSans-6d" d="M 3328 2828 
Q 3544 3216 3844 3400 
Q 4144 3584 4550 3584 
Q 5097 3584 5394 3201 
Q 5691 2819 5691 2113 
L 5691 0 
L 5113 0 
L 5113 2094 
Q 5113 2597 4934 2840 
Q 4756 3084 4391 3084 
Q 3944 3084 3684 2787 
Q 3425 2491 3425 1978 
L 3425 0 
L 2847 0 
L 2847 2094 
Q 2847 2600 2669 2842 
Q 2491 3084 2119 3084 
Q 1678 3084 1418 2786 
Q 1159 2488 1159 1978 
L 1159 0 
L 581 0 
L 581 3500 
L 1159 3500 
L 1159 2956 
Q 1356 3278 1631 3431 
Q 1906 3584 2284 3584 
Q 2666 3584 2933 3390 
Q 3200 3197 3328 2828 
z
" transform="scale(0.015625)"/>
       <path id="DejaVuSans-29" d="M 513 4856 
L 1013 4856 
Q 1481 4119 1714 3412 
Q 1947 2706 1947 2009 
Q 1947 1309 1714 600 
Q 1481 -109 1013 -844 
L 513 -844 
Q 928 -128 1133 580 
Q 1338 1288 1338 2009 
Q 1338 2731 1133 3434 
Q 928 4138 513 4856 
z
" transform="scale(0.015625)"/>
      </defs>
      <use xlink:href="#DejaVuSans-57"/>
      <use xlink:href="#DejaVuSans-61" transform="translate(92.501953 0)"/>
      <use xlink:href="#DejaVuSans-76" transform="translate(153.78125 0)"/>
      <use xlink:href="#DejaVuSans-65" transform="translate(212.960938 0)"/>
      <use xlink:href="#DejaVuSans-6c" transform="translate(274.484375 0)"/>
      <use xlink:href="#DejaVuSans-65" transform="translate(302.267578 0)"/>
      <use xlink:href="#DejaVuSans-6e" transform="translate(363.791016 0)"/>
      <use xlink:href="#DejaVuSans-67" transform="translate(427.169922 0)"/>
      <use xlink:href="#DejaVuSans-74" transform="translate(490.646484 0)"/>
      <use xlink:href="#DejaVuSans-68" transform="translate(529.855469 0)"/>
      <use xlink:href="#DejaVuSans-20" transform="translate(593.234375 0)"/>
      <use xlink:href="#DejaVuSans-28" transform="translate(625.021484 0)"/>
      <use xlink:href="#DejaVuSans-6e" transform="translate(664.035156 0)"/>
      <use xlink:href="#DejaVuSans-6d" transform="translate(727.414062 0)"/>
      <use xlink:href="#DejaVuSans-29" transform="translate(824.826172 0)"/>
     </g>
    </g>
   </g>
   <g id="matplotlib.axis_2">
    <g id="ytick_1">
     <g id="line2d_15">
      <path d="M 45.716875 235.483509 
L 619.671875 235.483509 
" clip-path="url(#p80dd834822)" style="fill: none; stroke: #eeeeee; stroke-width: 0.8; stroke-linecap: square"/>
     </g>
     <g id="line2d_16">
      <defs>
       <path id="m0c9fd67937" d="M 0 0 
L -3.5 0 
" style="stroke: #000000; stroke-width: 0.8"/>
      </defs>
      <g>
       <use xlink:href="#m0c9fd67937" x="45.716875" y="235.483509" style="stroke: #000000; stroke-width: 0.8"/>
      </g>
     </g>
     <g id="text_9">
      <!-- 0.0 -->
      <g transform="translate(22.81375 239.282728) scale(0.1 -0.1)">
       <defs>
        <path id="DejaVuSans-2e" d="M 684 794 
L 1344 794 
L 1344 0 
L 684 0 
L 684 794 
z
" transform="scale(0.015625)"/>
       </defs>
       <use xlink:href="#DejaVuSans-30"/>
       <use xlink:href="#DejaVuSans-2e" transform="translate(63.623047 0)"/>
       <use xlink:href="#DejaVuSans-30" transform="translate(95.410156 0)"/>
      </g>
     </g>
    </g>
    <g id="ytick_2">
     <g id="line2d_17">
      <path d="M 45.716875 194.718596 
L 619.671875 194.718596 
" clip-path="url(#p80dd834822)" style="fill: none; stroke: #eeeeee; stroke-width: 0.8; stroke-linecap: square"/>
     </g>
     <g id="line2d_18">
      <g>
       <use xlink:href="#m0c9fd67937" x="45.716875" y="194.718596" style="stroke: #000000; stroke-width: 0.8"/>
      </g>
     </g>
     <g id="text_10">
      <!-- 0.2 -->
      <g transform="translate(22.81375 198.517815) scale(0.1 -0.1)">
       <use xlink:href="#DejaVuSans-30"/>
       <use xlink:href="#DejaVuSans-2e" transform="translate(63.623047 0)"/>
       <use xlink:href="#DejaVuSans-32" transform="translate(95.410156 0)"/>
      </g>
     </g>
    </g>
    <g id="ytick_3">
     <g id="line2d_19">
      <path d="M 45.716875 153.953684 
L 619.671875 153.953684 
" clip-path="url(#p80dd834822)" style="fill: none; stroke: #eeeeee; stroke-width: 0.8; stroke-linecap: square"/>
     </g>
     <g id="line2d_20">
      <g>
       <use xlink:href="#m0c9fd67937" x="45.716875" y="153.953684" style="stroke: #000000; stroke-width: 0.8"/>
      </g>
     </g>
     <g id="text_11">
      <!-- 0.4 -->
      <g transform="translate(22.81375 157.752903) scale(0.1 -0.1)">
       <use xlink:href="#DejaVuSans-30"/>
       <use xlink:href="#DejaVuSans-2e" transform="translate(63.623047 0)"/>
       <use xlink:href="#DejaVuSans-34" transform="translate(95.410156 0)"/>
      </g>
     </g>
    </g>
    <g id="ytick_4">
     <g id="line2d_21">
      <path d="M 45.716875 113.188772 
L 619.671875 113.188772 
" clip-path="url(#p80dd834822)" style="fill: none; stroke: #eeeeee; stroke-width: 0.8; stroke-linecap: square"/>
     </g>
     <g id="line2d_22">
      <g>
       <use xlink:href="#m0c9fd67937" x="45.716875" y="113.188772" style="stroke: #000000; stroke-width: 0.8"/>
      </g>
     </g>
     <g id="text_12">
      <!-- 0.6 -->
      <g transform="translate(22.81375 116.987991) scale(0.1 -0.1)">
       <use xlink:href="#DejaVuSans-30"/>
       <use xlink:href="#DejaVuSans-2e" transform="translate(63.623047 0)"/>
       <use xlink:href="#DejaVuSans-36" transform="translate(95.410156 0)"/>
      </g>
     </g>
    </g>
    <g id="ytick_5">
     <g id="line2d_23">
      <path d="M 45.716875 72.42386 
L 619.671875 72.42386 
" clip-path="url(#p80dd834822)" style="fill: none; stroke: #eeeeee; stroke-width: 0.8; stroke-linecap: square"/>
     </g>
     <g id="line2d_24">
      <g>
       <use xlink:href="#m0c9fd67937" x="45.716875" y="72.42386" style="stroke: #000000; stroke-width: 0.8"/>
      </g>
     </g>
     <g id="text_13">
      <!-- 0.8 -->
      <g transform="translate(22.81375 76.223078) scale(0.1 -0.1)">
       <use xlink:href="#DejaVuSans-30"/>
       <use xlink:href="#DejaVuSans-2e" transform="translate(63.623047 0)"/>
       <use xlink:href="#DejaVuSans-38" transform="translate(95.410156 0)"/>
      </g>
     </g>
    </g>
    <g id="ytick_6">
     <g id="line2d_25">
      <path d="M 45.716875 31.658947 
L 619.671875 31.658947 
" clip-path="url(#p80dd834822)" style="fill: none; stroke: #eeeeee; stroke-width: 0.8; stroke-linecap: square"/>
     </g>
     <g id="line2d_26">
      <g>
       <use xlink:href="#m0c9fd67937" x="45.716875" y="31.658947" style="stroke: #000000; stroke-width: 0.8"/>
      </g>
     </g>
     <g id="text_14">
      <!-- 1.0 -->
      <g transform="translate(22.81375 35.458166) scale(0.1 -0.1)">
       <use xlink:href="#DejaVuSans-31"/>
       <use xlink:href="#DejaVuSans-2e" transform="translate(63.623047 0)"/>
       <use xlink:href="#DejaVuSans-30" transform="translate(95.410156 0)"/>
      </g>
     </g>
    </g>
    <g id="text_15">
     <!-- Spectral Intensity (norm.) -->
     <g transform="translate(16.318125 200.34875) rotate(-90) scale(0.12 -0.12)">
      <defs>
       <path id="DejaVuSans-53" d="M 3425 4513 
L 3425 3897 
Q 3066 4069 2747 4153 
Q 2428 4238 2131 4238 
Q 1616 4238 1336 4038 
Q 1056 3838 1056 3469 
Q 1056 3159 1242 3001 
Q 1428 2844 1947 2747 
L 2328 2669 
Q 3034 2534 3370 2195 
Q 3706 1856 3706 1288 
Q 3706 609 3251 259 
Q 2797 -91 1919 -91 
Q 1588 -91 1214 -16 
Q 841 59 441 206 
L 441 856 
Q 825 641 1194 531 
Q 1563 422 1919 422 
Q 2459 422 2753 634 
Q 3047 847 3047 1241 
Q 3047 1584 2836 1778 
Q 2625 1972 2144 2069 
L 1759 2144 
Q 1053 2284 737 2584 
Q 422 2884 422 3419 
Q 422 4038 858 4394 
Q 1294 4750 2059 4750 
Q 2388 4750 2728 4690 
Q 3069 4631 3425 4513 
z
" transform="scale(0.015625)"/>
       <path id="DejaVuSans-70" d="M 1159 525 
L 1159 -1331 
L 581 -1331 
L 581 3500 
L 1159 3500 
L 1159 2969 
Q 1341 3281 1617 3432 
Q 1894 3584 2278 3584 
Q 2916 3584 3314 3078 
Q 3713 2572 3713 1747 
Q 3713 922 3314 415 
Q 2916 -91 2278 -91 
Q 1894 -91 1617 61 
Q 1341 213 1159 525 
z
M 3116 1747 
Q 3116 2381 2855 2742 
Q 2594 3103 2138 3103 
Q 1681 3103 1420 2742 
Q 1159 2381 1159 1747 
Q 1159 1113 1420 752 
Q 1681 391 2138 391 
Q 2594 391 2855 752 
Q 3116 1113 3116 1747 
z
" transform="scale(0.015625)"/>
       <path id="DejaVuSans-63" d="M 3122 3366 
L 3122 2828 
Q 2878 2963 2633 3030 
Q 2388 3097 2138 3097 
Q 1578 3097 1268 2742 
Q 959 2388 959 1747 
Q 959 1106 1268 751 
Q 1578 397 2138 397 
Q 2388 397 2633 464 
Q 2878 531 3122 666 
L 3122 134 
Q 2881 22 2623 -34 
Q 2366 -91 2075 -91 
Q 1284 -91 818 406 
Q 353 903 353 1747 
Q 353 2603 823 3093 
Q 1294 3584 2113 3584 
Q 2378 3584 2631 3529 
Q 2884 3475 3122 3366 
z
" transform="scale(0.015625)"/>
       <path id="DejaVuSans-72" d="M 2631 2963 
Q 2534 3019 2420 3045 
Q 2306 3072 2169 3072 
Q 1681 3072 1420 2755 
Q 1159 2438 1159 1844 
L 1159 0 
L 581 0 
L 581 3500 
L 1159 3500 
L 1159 2956 
Q 1341 3275 1631 3429 
Q 1922 3584 2338 3584 
Q 2397 3584 2469 3576 
Q 2541 3569 2628 3553 
L 2631 2963 
z
" transform="scale(0.015625)"/>
       <path id="DejaVuSans-49" d="M 628 4666 
L 1259 4666 
L 1259 0 
L 628 0 
L 628 4666 
z
" transform="scale(0.015625)"/>
       <path id="DejaVuSans-73" d="M 2834 3397 
L 2834 2853 
Q 2591 2978 2328 3040 
Q 2066 3103 1784 3103 
Q 1356 3103 1142 2972 
Q 928 2841 928 2578 
Q 928 2378 1081 2264 
Q 1234 2150 1697 2047 
L 1894 2003 
Q 2506 1872 2764 1633 
Q 3022 1394 3022 966 
Q 3022 478 2636 193 
Q 2250 -91 1575 -91 
Q 1294 -91 989 -36 
Q 684 19 347 128 
L 347 722 
Q 666 556 975 473 
Q 1284 391 1588 391 
Q 1994 391 2212 530 
Q 2431 669 2431 922 
Q 2431 1156 2273 1281 
Q 2116 1406 1581 1522 
L 1381 1569 
Q 847 1681 609 1914 
Q 372 2147 372 2553 
Q 372 3047 722 3315 
Q 1072 3584 1716 3584 
Q 2034 3584 2315 3537 
Q 2597 3491 2834 3397 
z
" transform="scale(0.015625)"/>
       <path id="DejaVuSans-69" d="M 603 3500 
L 1178 3500 
L 1178 0 
L 603 0 
L 603 3500 
z
M 603 4863 
L 1178 4863 
L 1178 4134 
L 603 4134 
L 603 4863 
z
" transform="scale(0.015625)"/>
       <path id="DejaVuSans-79" d="M 2059 -325 
Q 1816 -950 1584 -1140 
Q 1353 -1331 966 -1331 
L 506 -1331 
L 506 -850 
L 844 -850 
Q 1081 -850 1212 -737 
Q 1344 -625 1503 -206 
L 1606 56 
L 191 3500 
L 800 3500 
L 1894 763 
L 2988 3500 
L 3597 3500 
L 2059 -325 
z
" transform="scale(0.015625)"/>
       <path id="DejaVuSans-6f" d="M 1959 3097 
Q 1497 3097 1228 2736 
Q 959 2375 959 1747 
Q 959 1119 1226 758 
Q 1494 397 1959 397 
Q 2419 397 2687 759 
Q 2956 1122 2956 1747 
Q 2956 2369 2687 2733 
Q 2419 3097 1959 3097 
z
M 1959 3584 
Q 2709 3584 3137 3096 
Q 3566 2609 3566 1747 
Q 3566 888 3137 398 
Q 2709 -91 1959 -91 
Q 1206 -91 779 398 
Q 353 888 353 1747 
Q 353 2609 779 3096 
Q 1206 3584 1959 3584 
z
" transform="scale(0.015625)"/>
      </defs>
      <use xlink:href="#DejaVuSans-53"/>
      <use xlink:href="#DejaVuSans-70" transform="translate(63.476562 0)"/>
      <use xlink:href="#DejaVuSans-65" transform="translate(126.953125 0)"/>
      <use xlink:href="#DejaVuSans-63" transform="translate(188.476562 0)"/>
      <use xlink:href="#DejaVuSans-74" transform="translate(243.457031 0)"/>
      <use xlink:href="#DejaVuSans-72" transform="translate(282.666016 0)"/>
      <use xlink:href="#DejaVuSans-61" transform="translate(323.779297 0)"/>
      <use xlink:href="#DejaVuSans-6c" transform="translate(385.058594 0)"/>
      <use xlink:href="#DejaVuSans-20" transform="translate(412.841797 0)"/>
      <use xlink:href="#DejaVuSans-49" transform="translate(444.628906 0)"/>
      <use xlink:href="#DejaVuSans-6e" transform="translate(474.121094 0)"/>
      <use xlink:href="#DejaVuSans-74" transform="translate(537.5 0)"/>
      <use xlink:href="#DejaVuSans-65" transform="translate(576.708984 0)"/>
      <use xlink:href="#DejaVuSans-6e" transform="translate(638.232422 0)"/>
      <use xlink:href="#DejaVuSans-73" transform="translate(701.611328 0)"/>
      <use xlink:href="#DejaVuSans-69" transform="translate(753.710938 0)"/>
      <use xlink:href="#DejaVuSans-74" transform="translate(781.494141 0)"/>
      <use xlink:href="#DejaVuSans-79" transform="translate(820.703125 0)"/>
      <use xlink:href="#DejaVuSans-20" transform="translate(879.882812 0)"/>
      <use xlink:href="#DejaVuSans-28" transform="translate(911.669922 0)"/>
      <use xlink:href="#DejaVuSans-6e" transform="translate(950.683594 0)"/>
      <use xlink:href="#DejaVuSans-6f" transform="translate(1014.0625 0)"/>
      <use xlink:href="#DejaVuSans-72" transform="translate(1075.244141 0)"/>
      <use xlink:href="#DejaVuSans-6d" transform="translate(1114.607422 0)"/>
      <use xlink:href="#DejaVuSans-2e" transform="translate(1212.019531 0)"/>
      <use xlink:href="#DejaVuSans-29" transform="translate(1243.806641 0)"/>
     </g>
    </g>
   </g>
   <g id="line2d_27">
    <path d="M 45.659422 232.206873 
L 45.983496 230.148695 
L 46.638279 225.458239 
L 46.858531 224.731042 
L 47.07979 224.621719 
L 47.302063 225.047483 
L 47.862227 227.220529 
L 48.201433 228.266762 
L 48.428881 228.520929 
L 48.543 228.475637 
L 48.772036 228.004208 
L 49.117594 226.335833 
L 49.698931 221.648209 
L 50.405606 216.057131 
L 50.762716 214.471207 
L 51.122377 213.842043 
L 51.363582 213.822304 
L 52.21694 214.228078 
L 52.463404 213.994549 
L 52.835338 213.096683 
L 53.335472 210.928208 
L 54.350487 205.961537 
L 54.607366 205.367739 
L 54.865513 205.260722 
L 55.124938 205.683176 
L 55.516493 207.271787 
L 56.043129 210.74599 
L 57.655074 222.442011 
L 58.479575 226.550514 
L 59.31681 229.52211 
L 60.024446 231.196285 
L 60.59719 232.047673 
L 61.175931 232.535437 
L 61.760763 232.730915 
L 62.351785 232.68492 
L 62.949094 232.420347 
L 63.704725 231.810863 
L 65.090665 230.544878 
L 65.560187 230.397733 
L 66.033558 230.514913 
L 66.510825 230.901396 
L 67.153325 231.735702 
L 69.124078 234.506576 
L 69.795821 235.091245 
L 70.304623 235.324369 
L 70.817768 235.353535 
L 71.335311 235.183724 
L 72.032309 234.707994 
L 74.902299 232.333825 
L 75.641025 232.130873 
L 76.388544 232.134804 
L 77.145016 232.338849 
L 78.296865 232.931102 
L 81.269952 234.687721 
L 82.498148 235.100574 
L 83.960424 235.314369 
L 85.671641 235.310553 
L 88.097256 235.051402 
L 103.85177 232.749773 
L 108.147693 231.943479 
L 117.50213 230.643153 
L 121.215615 230.421127 
L 129.159653 230.189741 
L 135.822089 230.153076 
L 140.403721 230.371578 
L 148.408927 230.852269 
L 158.643266 230.948427 
L 167.178736 231.296572 
L 169.991184 231.244125 
L 175.241586 231.012978 
L 178.268251 231.211913 
L 183.926363 231.638024 
L 186.532142 231.6327 
L 189.196643 231.47418 
L 191.921873 231.046284 
L 195.41702 230.39069 
L 199.74689 229.766746 
L 201.224341 229.298496 
L 204.995612 227.949211 
L 205.763497 227.846559 
L 206.536022 227.892239 
L 207.313229 228.123162 
L 208.88186 229.009389 
L 212.888426 231.636815 
L 213.70467 231.853094 
L 214.526 231.81732 
L 216.184109 231.345871 
L 217.86314 230.630602 
L 221.285573 228.691806 
L 222.154894 228.529207 
L 223.029804 228.573429 
L 226.586444 229.455156 
L 228.399747 229.520186 
L 229.315346 229.693974 
L 230.236988 230.127727 
L 232.098644 231.21447 
L 233.038781 231.634386 
L 233.985206 231.888367 
L 234.937983 231.967203 
L 235.897176 231.848476 
L 237.83507 231.11999 
L 238.813905 230.747575 
L 239.799421 230.711474 
L 240.791687 231.172909 
L 243.809687 233.822112 
L 244.829659 234.022874 
L 245.856739 233.616344 
L 246.891001 232.760073 
L 248.981377 230.67861 
L 250.037644 229.993489 
L 251.101403 230.04697 
L 252.172732 231.088026 
L 253.251715 232.607796 
L 254.338432 233.462741 
L 255.432967 232.722996 
L 256.535404 229.977601 
L 257.645831 225.236593 
L 259.890999 212.372 
L 262.169185 198.360288 
L 263.320888 190.229955 
L 264.481122 183.691733 
L 265.649983 183.275926 
L 266.827566 190.846138 
L 270.41364 228.367301 
L 271.627109 234.592223 
L 272.849806 234.934097 
L 274.081837 229.93704 
L 275.323309 219.197348 
L 276.574331 202.453592 
L 277.835012 184.013733 
L 279.105467 170.157964 
L 280.385809 161.229048 
L 281.676153 154.380871 
L 282.976617 152.398307 
L 284.287322 159.091152 
L 285.608387 168.782997 
L 286.939938 171.366905 
L 288.282098 165.865648 
L 289.634995 163.0953 
L 290.99876 170.48829 
L 292.373522 181.681738 
L 293.759416 190.835548 
L 295.156577 201.460439 
L 296.565144 214.534003 
L 297.985257 222.664588 
L 299.417057 225.434641 
L 300.860691 227.457229 
L 302.316305 230.006629 
L 303.784049 231.215279 
L 305.264076 230.628405 
L 306.756539 228.648751 
L 308.261598 221.678637 
L 309.779411 209.635237 
L 311.310141 202.705782 
L 312.853955 204.223556 
L 314.411021 204.2856 
L 315.981509 199.400922 
L 317.565595 192.11488 
L 319.163455 185.303965 
L 320.775271 188.319043 
L 322.401225 203.916217 
L 324.041505 217.35217 
L 325.6963 217.790941 
L 327.365805 207.775127 
L 329.050216 198.973922 
L 330.749734 202.202939 
L 334.194911 225.868587 
L 335.940989 229.608967 
L 337.703013 228.268092 
L 339.481203 231.941646 
L 341.275781 232.434175 
L 343.086976 209.70348 
L 344.915019 156.992855 
L 346.760147 92.728221 
L 348.622599 50.568658 
L 350.502622 35.049391 
L 352.400466 31.658947 
L 354.316383 41.463831 
L 356.250635 63.923749 
L 358.203486 93.966549 
L 360.175205 142.114285 
L 362.166066 193.912851 
L 364.176351 221.062432 
L 366.206344 230.37879 
L 368.256338 231.472422 
L 370.326628 227.272439 
L 372.417518 220.562425 
L 374.529317 206.499687 
L 376.66234 182.509106 
L 378.816909 162.907243 
L 380.993352 155.084293 
L 383.192003 152.109148 
L 385.413205 152.675828 
L 387.657305 155.055953 
L 389.924661 154.330084 
L 392.215634 153.377883 
L 394.530597 156.467295 
L 396.869928 161.148212 
L 399.234014 165.431933 
L 401.62325 169.107076 
L 404.038039 171.745045 
L 406.478793 173.793859 
L 408.945934 175.389681 
L 411.439892 176.314792 
L 413.961106 176.716601 
L 416.510026 176.635158 
L 419.08711 176.326981 
L 424.327662 176.089083 
L 426.9921 176.013635 
L 429.686645 176.062114 
L 432.411809 176.300214 
L 435.168118 176.714534 
L 437.956109 177.324611 
L 440.776331 178.097068 
L 443.629347 179.017563 
L 446.51573 180.133817 
L 449.436072 181.409216 
L 452.390973 182.863662 
L 458.406941 186.353355 
L 461.469285 188.32622 
L 464.568749 190.555504 
L 470.881768 195.530053 
L 490.785873 212.099016 
L 494.252079 214.677384 
L 497.76301 217.071356 
L 501.319538 219.247408 
L 504.922557 221.229575 
L 508.572983 222.974966 
L 512.27176 224.509675 
L 516.019854 225.853014 
L 519.818257 226.999985 
L 523.667991 228.006121 
L 527.570101 228.885037 
L 535.53579 230.338801 
L 543.724294 231.522718 
L 552.145097 232.518731 
L 560.808225 233.36535 
L 569.724291 234.067058 
L 578.904536 234.615197 
L 588.36088 235.006921 
L 603.090953 235.335797 
L 623.822167 235.46785 
L 623.822167 235.46785 
" clip-path="url(#p80dd834822)" style="fill: none; stroke: #8c1515; stroke-width: 1.5; stroke-linecap: square"/>
   </g>
   <g id="line2d_28">
    <path d="M 69.631667 239.56 
L 69.631667 7.2 
" clip-path="url(#p80dd834822)" style="fill: none; stroke-dasharray: 3.7,1.6; stroke-dashoffset: 0; stroke: #44546a; stroke-opacity: 0.6"/>
   </g>
   <g id="patch_3">
    <path d="M 45.716875 239.56 
L 45.716875 7.2 
" style="fill: none; stroke: #000000; stroke-width: 0.8; stroke-linejoin: miter; stroke-linecap: square"/>
   </g>
   <g id="patch_4">
    <path d="M 619.671875 239.56 
L 619.671875 7.2 
" style="fill: none; stroke: #000000; stroke-width: 0.8; stroke-linejoin: miter; stroke-linecap: square"/>
   </g>
   <g id="patch_5">
    <path d="M 45.716875 239.56 
L 619.671875 239.56 
" style="fill: none; stroke: #000000; stroke-width: 0.8; stroke-linejoin: miter; stroke-linecap: square"/>
   </g>
   <g id="patch_6">
    <path d="M 45.716875 7.2 
L 619.671875 7.2 
" style="fill: none; stroke: #000000; stroke-width: 0.8; stroke-linejoin: miter; stroke-linecap: square"/>
   </g>
   <g id="patch_7">
    <path d="M 148.778882 157.782949 
Q 111.461463 196.444924 58.36871 204.695642 
" style="fill: none; stroke: #44546a; stroke-width: 1.5; stroke-linecap: round"/>
    <path d="M 62.628386 206.057685 
L 58.36871 204.695642 
L 62.014151 202.105127 
" style="fill: none; stroke: #44546a; stroke-width: 1.5; stroke-linecap: round"/>
   </g>
   <g id="text_16">
    <!-- Resonant Dispersive -->
    <g style="fill: #44546a" transform="translate(109.740301 141.057297) scale(0.1 -0.1)">
     <defs>
      <path id="DejaVuSans-52" d="M 2841 2188 
Q 3044 2119 3236 1894 
Q 3428 1669 3622 1275 
L 4263 0 
L 3584 0 
L 2988 1197 
Q 2756 1666 2539 1819 
Q 2322 1972 1947 1972 
L 1259 1972 
L 1259 0 
L 628 0 
L 628 4666 
L 2053 4666 
Q 2853 4666 3247 4331 
Q 3641 3997 3641 3322 
Q 3641 2881 3436 2590 
Q 3231 2300 2841 2188 
z
M 1259 4147 
L 1259 2491 
L 2053 2491 
Q 2509 2491 2742 2702 
Q 2975 2913 2975 3322 
Q 2975 3731 2742 3939 
Q 2509 4147 2053 4147 
L 1259 4147 
z
" transform="scale(0.015625)"/>
      <path id="DejaVuSans-44" d="M 1259 4147 
L 1259 519 
L 2022 519 
Q 2988 519 3436 956 
Q 3884 1394 3884 2338 
Q 3884 3275 3436 3711 
Q 2988 4147 2022 4147 
L 1259 4147 
z
M 628 4666 
L 1925 4666 
Q 3281 4666 3915 4102 
Q 4550 3538 4550 2338 
Q 4550 1131 3912 565 
Q 3275 0 1925 0 
L 628 0 
L 628 4666 
z
" transform="scale(0.015625)"/>
     </defs>
     <use xlink:href="#DejaVuSans-52"/>
     <use xlink:href="#DejaVuSans-65" transform="translate(64.982422 0)"/>
     <use xlink:href="#DejaVuSans-73" transform="translate(126.505859 0)"/>
     <use xlink:href="#DejaVuSans-6f" transform="translate(178.605469 0)"/>
     <use xlink:href="#DejaVuSans-6e" transform="translate(239.787109 0)"/>
     <use xlink:href="#DejaVuSans-61" transform="translate(303.166016 0)"/>
     <use xlink:href="#DejaVuSans-6e" transform="translate(364.445312 0)"/>
     <use xlink:href="#DejaVuSans-74" transform="translate(427.824219 0)"/>
     <use xlink:href="#DejaVuSans-20" transform="translate(467.033203 0)"/>
     <use xlink:href="#DejaVuSans-44" transform="translate(498.820312 0)"/>
     <use xlink:href="#DejaVuSans-69" transform="translate(575.822266 0)"/>
     <use xlink:href="#DejaVuSans-73" transform="translate(603.605469 0)"/>
     <use xlink:href="#DejaVuSans-70" transform="translate(655.705078 0)"/>
     <use xlink:href="#DejaVuSans-65" transform="translate(719.181641 0)"/>
     <use xlink:href="#DejaVuSans-72" transform="translate(780.705078 0)"/>
     <use xlink:href="#DejaVuSans-73" transform="translate(821.818359 0)"/>
     <use xlink:href="#DejaVuSans-69" transform="translate(873.917969 0)"/>
     <use xlink:href="#DejaVuSans-76" transform="translate(901.701172 0)"/>
     <use xlink:href="#DejaVuSans-65" transform="translate(960.880859 0)"/>
    </g>
    <!-- Wave Emission -->
    <g style="fill: #44546a" transform="translate(109.740301 152.255109) scale(0.1 -0.1)">
     <defs>
      <path id="DejaVuSans-45" d="M 628 4666 
L 3578 4666 
L 3578 4134 
L 1259 4134 
L 1259 2753 
L 3481 2753 
L 3481 2222 
L 1259 2222 
L 1259 531 
L 3634 531 
L 3634 0 
L 628 0 
L 628 4666 
z
" transform="scale(0.015625)"/>
     </defs>
     <use xlink:href="#DejaVuSans-57"/>
     <use xlink:href="#DejaVuSans-61" transform="translate(92.501953 0)"/>
     <use xlink:href="#DejaVuSans-76" transform="translate(153.78125 0)"/>
     <use xlink:href="#DejaVuSans-65" transform="translate(212.960938 0)"/>
     <use xlink:href="#DejaVuSans-20" transform="translate(274.484375 0)"/>
     <use xlink:href="#DejaVuSans-45" transform="translate(306.271484 0)"/>
     <use xlink:href="#DejaVuSans-6d" transform="translate(369.455078 0)"/>
     <use xlink:href="#DejaVuSans-69" transform="translate(466.867188 0)"/>
     <use xlink:href="#DejaVuSans-73" transform="translate(494.650391 0)"/>
     <use xlink:href="#DejaVuSans-73" transform="translate(546.75 0)"/>
     <use xlink:href="#DejaVuSans-69" transform="translate(598.849609 0)"/>
     <use xlink:href="#DejaVuSans-6f" transform="translate(626.632812 0)"/>
     <use xlink:href="#DejaVuSans-6e" transform="translate(687.814453 0)"/>
    </g>
   </g>
   <g id="text_17">
    <g id="patch_8">
     <path d="M 25.413319 146.627924 
L 88.978631 146.627924 
Q 91.678631 146.627924 91.678631 143.927924 
L 91.678631 115.061549 
Q 91.678631 112.361549 88.978631 112.361549 
L 25.413319 112.361549 
Q 22.713319 112.361549 22.713319 115.061549 
L 22.713319 143.927924 
Q 22.713319 146.627924 25.413319 146.627924 
z
" style="fill: #ffffff; opacity: 0.85; stroke: #8c1515; stroke-width: 0.8; stroke-linejoin: miter"/>
    </g>
    <!-- 8 µJ -->
    <g style="fill: #8c1515" transform="translate(48.712069 121.900143) scale(0.09 -0.09)">
     <defs>
      <path id="DejaVuSans-b5" d="M 544 -1331 
L 544 3500 
L 1119 3500 
L 1119 1325 
Q 1119 872 1334 640 
Q 1550 409 1972 409 
Q 2434 409 2667 671 
Q 2900 934 2900 1459 
L 2900 3500 
L 3475 3500 
L 3475 806 
Q 3475 619 3529 530 
Q 3584 441 3700 441 
Q 3728 441 3778 458 
Q 3828 475 3916 513 
L 3916 50 
Q 3788 -22 3673 -56 
Q 3559 -91 3450 -91 
Q 3234 -91 3106 31 
Q 2978 153 2931 403 
Q 2775 156 2548 32 
Q 2322 -91 2016 -91 
Q 1697 -91 1473 31 
Q 1250 153 1119 397 
L 1119 -1331 
L 544 -1331 
z
" transform="scale(0.015625)"/>
      <path id="DejaVuSans-4a" d="M 628 4666 
L 1259 4666 
L 1259 325 
Q 1259 -519 939 -900 
Q 619 -1281 -91 -1281 
L -331 -1281 
L -331 -750 
L -134 -750 
Q 284 -750 456 -515 
Q 628 -281 628 325 
L 628 4666 
z
" transform="scale(0.015625)"/>
     </defs>
     <use xlink:href="#DejaVuSans-38"/>
     <use xlink:href="#DejaVuSans-20" transform="translate(63.623047 0)"/>
     <use xlink:href="#DejaVuSans-b5" transform="translate(95.410156 0)"/>
     <use xlink:href="#DejaVuSans-4a" transform="translate(159.033203 0)"/>
    </g>
    <!-- 22.2% of total -->
    <g style="fill: #8c1515" transform="translate(25.413319 131.978174) scale(0.09 -0.09)">
     <defs>
      <path id="DejaVuSans-25" d="M 4653 2053 
Q 4381 2053 4226 1822 
Q 4072 1591 4072 1178 
Q 4072 772 4226 539 
Q 4381 306 4653 306 
Q 4919 306 5073 539 
Q 5228 772 5228 1178 
Q 5228 1588 5073 1820 
Q 4919 2053 4653 2053 
z
M 4653 2450 
Q 5147 2450 5437 2106 
Q 5728 1763 5728 1178 
Q 5728 594 5436 251 
Q 5144 -91 4653 -91 
Q 4153 -91 3862 251 
Q 3572 594 3572 1178 
Q 3572 1766 3864 2108 
Q 4156 2450 4653 2450 
z
M 1428 4353 
Q 1159 4353 1004 4120 
Q 850 3888 850 3481 
Q 850 3069 1003 2837 
Q 1156 2606 1428 2606 
Q 1700 2606 1854 2837 
Q 2009 3069 2009 3481 
Q 2009 3884 1853 4118 
Q 1697 4353 1428 4353 
z
M 4250 4750 
L 4750 4750 
L 1831 -91 
L 1331 -91 
L 4250 4750 
z
M 1428 4750 
Q 1922 4750 2215 4408 
Q 2509 4066 2509 3481 
Q 2509 2891 2217 2550 
Q 1925 2209 1428 2209 
Q 931 2209 642 2551 
Q 353 2894 353 3481 
Q 353 4063 643 4406 
Q 934 4750 1428 4750 
z
" transform="scale(0.015625)"/>
      <path id="DejaVuSans-66" d="M 2375 4863 
L 2375 4384 
L 1825 4384 
Q 1516 4384 1395 4259 
Q 1275 4134 1275 3809 
L 1275 3500 
L 2222 3500 
L 2222 3053 
L 1275 3053 
L 1275 0 
L 697 0 
L 697 3053 
L 147 3053 
L 147 3500 
L 697 3500 
L 697 3744 
Q 697 4328 969 4595 
Q 1241 4863 1831 4863 
L 2375 4863 
z
" transform="scale(0.015625)"/>
     </defs>
     <use xlink:href="#DejaVuSans-32"/>
     <use xlink:href="#DejaVuSans-32" transform="translate(63.623047 0)"/>
     <use xlink:href="#DejaVuSans-2e" transform="translate(127.246094 0)"/>
     <use xlink:href="#DejaVuSans-32" transform="translate(159.033203 0)"/>
     <use xlink:href="#DejaVuSans-25" transform="translate(222.65625 0)"/>
     <use xlink:href="#DejaVuSans-20" transform="translate(317.675781 0)"/>
     <use xlink:href="#DejaVuSans-6f" transform="translate(349.462891 0)"/>
     <use xlink:href="#DejaVuSans-66" transform="translate(410.644531 0)"/>
     <use xlink:href="#DejaVuSans-20" transform="translate(445.849609 0)"/>
     <use xlink:href="#DejaVuSans-74" transform="translate(477.636719 0)"/>
     <use xlink:href="#DejaVuSans-6f" transform="translate(516.845703 0)"/>
     <use xlink:href="#DejaVuSans-74" transform="translate(578.027344 0)"/>
     <use xlink:href="#DejaVuSans-61" transform="translate(617.236328 0)"/>
     <use xlink:href="#DejaVuSans-6c" transform="translate(678.515625 0)"/>
    </g>
    <!-- energy -->
    <g style="fill: #8c1515" transform="translate(41.514881 142.056206) scale(0.09 -0.09)">
     <use xlink:href="#DejaVuSans-65"/>
     <use xlink:href="#DejaVuSans-6e" transform="translate(61.523438 0)"/>
     <use xlink:href="#DejaVuSans-65" transform="translate(124.902344 0)"/>
     <use xlink:href="#DejaVuSans-72" transform="translate(186.425781 0)"/>
     <use xlink:href="#DejaVuSans-67" transform="translate(225.789062 0)"/>
     <use xlink:href="#DejaVuSans-79" transform="translate(289.265625 0)"/>
    </g>
   </g>
  </g>
 </g>
 <defs>
  <clipPath id="p80dd834822">
   <rect x="45.716875" y="7.2" width="573.955" height="232.36"/>
  </clipPath>
 </defs>
</svg>
