<?xml version="1.0" encoding="utf-8" standalone="no"?>
<!DOCTYPE svg PUBLIC "-//W3C//DTD SVG 1.1//EN"
  "http://www.w3.org/Graphics/SVG/1.1/DTD/svg11.dtd">
<svg xmlns:xlink="http://www.w3.org/1999/xlink" width="307.652891pt" height="170.2865pt" viewBox="0 0 307.652891 170.2865" xmlns="http://www.w3.org/2000/svg" version="1.1">
 <metadata>
  <rdf:RDF xmlns:dc="http://purl.org/dc/elements/1.1/" xmlns:cc="http://creativecommons.org/ns#" xmlns:rdf="http://www.w3.org/1999/02/22-rdf-syntax-ns#">
   <cc:Work>
    <dc:type rdf:resource="http://purl.org/dc/dcmitype/StillImage"/>
    <dc:date>2026-04-05T15:23:50.222592</dc:date>
    <dc:format>image/svg+xml</dc:format>
    <dc:creator>
     <cc:Agent>
      <dc:title>Matplotlib v3.10.8, https://matplotlib.org/</dc:title>
     </cc:Agent>
    </dc:creator>
   </cc:Work>
  </rdf:RDF>
 </metadata>
 <defs>
  <style type="text/css">*{stroke-linejoin: round; stroke-linecap: butt}</style>
 </defs>
 <g id="figure_1">
  <g id="patch_1">
   <path d="M 0 170.2865 
L 307.652891 170.2865 
L 307.652891 0 
L 0 0 
z
" style="fill: #ffffff"/>
  </g>
  <g id="axes_1">
   <g id="patch_2">
    <path d="M 31.62 151.344 
L 265.98 151.344 
L 265.98 7.2 
L 31.62 7.2 
z
" style="fill: #ffffff"/>
   </g>
   <g id="FillBetweenPolyCollection_1">
    <defs>
     <path id="madfd2ef033" d="M 31.62 -24.0905 
L 31.62 -24.108274 
L 31.854595 -24.108901 
L 32.089189 -24.109549 
L 32.323784 -24.110218 
L 32.558378 -24.110909 
L 32.792973 -24.111623 
L 33.027568 -24.11236 
L 33.262162 -24.113121 
L 33.496757 -24.113908 
L 33.731351 -24.11472 
L 33.965946 -24.115558 
L 34.200541 -24.116424 
L 34.435135 -24.117318 
L 34.66973 -24.11824 
L 34.904324 -24.119193 
L 35.138919 -24.120176 
L 35.373514 -24.12119 
L 35.608108 -24.122237 
L 35.842703 -24.123317 
L 36.077297 -24.124432 
L 36.311892 -24.125583 
L 36.546486 -24.126769 
L 36.781081 -24.127994 
L 37.015676 -24.129257 
L 37.25027 -24.130559 
L 37.484865 -24.131903 
L 37.719459 -24.133289 
L 37.954054 -24.134718 
L 38.188649 -24.136191 
L 38.423243 -24.137711 
L 38.657838 -24.139277 
L 38.892432 -24.140892 
L 39.127027 -24.142557 
L 39.361622 -24.144273 
L 39.596216 -24.146042 
L 39.830811 -24.147865 
L 40.065405 -24.149744 
L 40.3 -24.15168 
L 40.534595 -24.153675 
L 40.769189 -24.15573 
L 41.003784 -24.157848 
L 41.238378 -24.16003 
L 41.472973 -24.162277 
L 41.707568 -24.164592 
L 41.942162 -24.166976 
L 42.176757 -24.169431 
L 42.411351 -24.17196 
L 42.645946 -24.174563 
L 42.880541 -24.177244 
L 43.115135 -24.180004 
L 43.34973 -24.182846 
L 43.584324 -24.185771 
L 43.818919 -24.188782 
L 44.053514 -24.191881 
L 44.288108 -24.195071 
L 44.522703 -24.198353 
L 44.757297 -24.201731 
L 44.991892 -24.205206 
L 45.226486 -24.208782 
L 45.461081 -24.212461 
L 45.695676 -24.216246 
L 45.93027 -24.220139 
L 46.164865 -24.224143 
L 46.399459 -24.228262 
L 46.634054 -24.232497 
L 46.868649 -24.236853 
L 47.103243 -24.241331 
L 47.337838 -24.245936 
L 47.572432 -24.250671 
L 47.807027 -24.255538 
L 48.041622 -24.260541 
L 48.276216 -24.265684 
L 48.510811 -24.270969 
L 48.745405 -24.276401 
L 48.98 -24.281984 
L 49.214595 -24.28772 
L 49.449189 -24.293615 
L 49.683784 -24.29967 
L 49.918378 -24.305892 
L 50.152973 -24.312283 
L 50.387568 -24.318848 
L 50.622162 -24.32559 
L 50.856757 -24.332515 
L 51.091351 -24.339627 
L 51.325946 -24.34693 
L 51.560541 -24.354429 
L 51.795135 -24.362128 
L 52.02973 -24.370032 
L 52.264324 -24.378147 
L 52.498919 -24.386476 
L 52.733514 -24.395025 
L 52.968108 -24.4038 
L 53.202703 -24.412805 
L 53.437297 -24.422045 
L 53.671892 -24.431527 
L 53.906486 -24.441256 
L 54.141081 -24.451238 
L 54.375676 -24.461477 
L 54.61027 -24.471981 
L 54.844865 -24.482755 
L 55.079459 -24.493805 
L 55.314054 -24.505138 
L 55.548649 -24.516759 
L 55.783243 -24.528676 
L 56.017838 -24.540895 
L 56.252432 -24.553422 
L 56.487027 -24.566265 
L 56.721622 -24.57943 
L 56.956216 -24.592924 
L 57.190811 -24.606755 
L 57.425405 -24.62093 
L 57.66 -24.635456 
L 57.894595 -24.650341 
L 58.129189 -24.665593 
L 58.363784 -24.681219 
L 58.598378 -24.697228 
L 58.832973 -24.713627 
L 59.067568 -24.730425 
L 59.302162 -24.74763 
L 59.536757 -24.765251 
L 59.771351 -24.783297 
L 60.005946 -24.801775 
L 60.240541 -24.820696 
L 60.475135 -24.840068 
L 60.70973 -24.8599 
L 60.944324 -24.880203 
L 61.178919 -24.900984 
L 61.413514 -24.922255 
L 61.648108 -24.944025 
L 61.882703 -24.966304 
L 62.117297 -24.989102 
L 62.351892 -25.012429 
L 62.586486 -25.036297 
L 62.821081 -25.060714 
L 63.055676 -25.085693 
L 63.29027 -25.111244 
L 63.524865 -25.137379 
L 63.759459 -25.164108 
L 63.994054 -25.191443 
L 64.228649 -25.219396 
L 64.463243 -25.247978 
L 64.697838 -25.277201 
L 64.932432 -25.307077 
L 65.167027 -25.337619 
L 65.401622 -25.368839 
L 65.636216 -25.40075 
L 65.870811 -25.433363 
L 66.105405 -25.466694 
L 66.34 -25.500753 
L 66.574595 -25.535555 
L 66.809189 -25.571113 
L 67.043784 -25.60744 
L 67.278378 -25.644551 
L 67.512973 -25.682459 
L 67.747568 -25.721179 
L 67.982162 -25.760724 
L 68.216757 -25.80111 
L 68.451351 -25.84235 
L 68.685946 -25.88446 
L 68.920541 -25.927455 
L 69.155135 -25.971349 
L 69.38973 -26.016159 
L 69.624324 -26.061899 
L 69.858919 -26.108586 
L 70.093514 -26.156234 
L 70.328108 -26.204861 
L 70.562703 -26.254482 
L 70.797297 -26.305114 
L 71.031892 -26.356773 
L 71.266486 -26.409477 
L 71.501081 -26.46324 
L 71.735676 -26.518082 
L 71.97027 -26.574019 
L 72.204865 -26.631069 
L 72.439459 -26.689248 
L 72.674054 -26.748575 
L 72.908649 -26.809068 
L 73.143243 -26.870744 
L 73.377838 -26.933622 
L 73.612432 -26.99772 
L 73.847027 -27.063057 
L 74.081622 -27.129651 
L 74.316216 -27.197521 
L 74.550811 -27.266686 
L 74.785405 -27.337165 
L 75.02 -27.408978 
L 75.254595 -27.482144 
L 75.489189 -27.556682 
L 75.723784 -27.632612 
L 75.958378 -27.709954 
L 76.192973 -27.788728 
L 76.427568 -27.868954 
L 76.662162 -27.950652 
L 76.896757 -28.033843 
L 77.131351 -28.118547 
L 77.365946 -28.204785 
L 77.600541 -28.292577 
L 77.835135 -28.381944 
L 78.06973 -28.472908 
L 78.304324 -28.565489 
L 78.538919 -28.659708 
L 78.773514 -28.755587 
L 79.008108 -28.853147 
L 79.242703 -28.95241 
L 79.477297 -29.053397 
L 79.711892 -29.15613 
L 79.946486 -29.26063 
L 80.181081 -29.366919 
L 80.415676 -29.47502 
L 80.65027 -29.584953 
L 80.884865 -29.696742 
L 81.119459 -29.810408 
L 81.354054 -29.925973 
L 81.588649 -30.04346 
L 81.823243 -30.16289 
L 82.057838 -30.284286 
L 82.292432 -30.40767 
L 82.527027 -30.533064 
L 82.761622 -30.660492 
L 82.996216 -30.789974 
L 83.230811 -30.921534 
L 83.465405 -31.055193 
L 83.7 -31.190975 
L 83.934595 -31.328901 
L 84.169189 -31.468993 
L 84.403784 -31.611275 
L 84.638378 -31.755768 
L 84.872973 -31.902494 
L 85.107568 -32.051476 
L 85.342162 -32.202736 
L 85.576757 -32.356296 
L 85.811351 -32.512177 
L 86.045946 -32.670403 
L 86.280541 -32.830994 
L 86.515135 -32.993972 
L 86.74973 -33.159359 
L 86.984324 -33.327177 
L 87.218919 -33.497448 
L 87.453514 -33.670191 
L 87.688108 -33.845429 
L 87.922703 -34.023183 
L 88.157297 -34.203474 
L 88.391892 -34.386322 
L 88.626486 -34.571748 
L 88.861081 -34.759772 
L 89.095676 -34.950415 
L 89.33027 -35.143697 
L 89.564865 -35.339637 
L 89.799459 -35.538256 
L 90.034054 -35.739573 
L 90.268649 -35.943606 
L 90.503243 -36.150376 
L 90.737838 -36.3599 
L 90.972432 -36.572198 
L 91.207027 -36.787287 
L 91.441622 -37.005186 
L 91.676216 -37.225912 
L 91.910811 -37.449482 
L 92.145405 -37.675914 
L 92.38 -37.905225 
L 92.614595 -38.137431 
L 92.849189 -38.372547 
L 93.083784 -38.610591 
L 93.318378 -38.851576 
L 93.552973 -39.09552 
L 93.787568 -39.342435 
L 94.022162 -39.592336 
L 94.256757 -39.845239 
L 94.491351 -40.101154 
L 94.725946 -40.360097 
L 94.960541 -40.62208 
L 95.195135 -40.887115 
L 95.42973 -41.155213 
L 95.664324 -41.426387 
L 95.898919 -41.700646 
L 96.133514 -41.978002 
L 96.368108 -42.258465 
L 96.602703 -42.542043 
L 96.837297 -42.828747 
L 97.071892 -43.118583 
L 97.306486 -43.411561 
L 97.541081 -43.707687 
L 97.775676 -44.006968 
L 98.01027 -44.309411 
L 98.244865 -44.615021 
L 98.479459 -44.923803 
L 98.714054 -45.235763 
L 98.948649 -45.550903 
L 99.183243 -45.869227 
L 99.417838 -46.190737 
L 99.652432 -46.515437 
L 99.887027 -46.843327 
L 100.121622 -47.174408 
L 100.356216 -47.508679 
L 100.590811 -47.846142 
L 100.825405 -48.186793 
L 101.06 -48.530633 
L 101.294595 -48.877656 
L 101.529189 -49.227862 
L 101.763784 -49.581244 
L 101.998378 -49.937799 
L 102.232973 -50.297522 
L 102.467568 -50.660405 
L 102.702162 -51.026442 
L 102.936757 -51.395626 
L 103.171351 -51.767946 
L 103.405946 -52.143396 
L 103.640541 -52.521963 
L 103.875135 -52.903639 
L 104.10973 -53.288409 
L 104.344324 -53.676264 
L 104.578919 -54.067188 
L 104.813514 -54.461168 
L 105.048108 -54.858189 
L 105.282703 -55.258236 
L 105.517297 -55.661291 
L 105.751892 -56.067338 
L 105.986486 -56.476357 
L 106.221081 -56.88833 
L 106.455676 -57.303237 
L 106.69027 -57.721057 
L 106.924865 -58.141768 
L 107.159459 -58.565348 
L 107.394054 -58.991773 
L 107.628649 -59.421018 
L 107.863243 -59.853059 
L 108.097838 -60.287868 
L 108.332432 -60.72542 
L 108.567027 -61.165685 
L 108.801622 -61.608636 
L 109.036216 -62.054242 
L 109.270811 -62.502473 
L 109.505405 -62.953296 
L 109.74 -63.40668 
L 109.974595 -63.862591 
L 110.209189 -64.320994 
L 110.443784 -64.781855 
L 110.678378 -65.245136 
L 110.912973 -65.710801 
L 111.147568 -66.178812 
L 111.382162 -66.64913 
L 111.616757 -67.121714 
L 111.851351 -67.596525 
L 112.085946 -68.073519 
L 112.320541 -68.552656 
L 112.555135 -69.03389 
L 112.78973 -69.517177 
L 113.024324 -70.002473 
L 113.258919 -70.489731 
L 113.493514 -70.978902 
L 113.728108 -71.469941 
L 113.962703 -71.962797 
L 114.197297 -72.45742 
L 114.431892 -72.95376 
L 114.666486 -73.451764 
L 114.901081 -73.951382 
L 115.135676 -74.452558 
L 115.37027 -74.955239 
L 115.604865 -75.459369 
L 115.839459 -75.964893 
L 116.074054 -76.471754 
L 116.308649 -76.979894 
L 116.543243 -77.489254 
L 116.777838 -77.999776 
L 117.012432 -78.511398 
L 117.247027 -79.024061 
L 117.481622 -79.537702 
L 117.716216 -80.052258 
L 117.950811 -80.567667 
L 118.185405 -81.083865 
L 118.42 -81.600786 
L 118.654595 -82.118365 
L 118.889189 -82.636536 
L 119.123784 -83.155231 
L 119.358378 -83.674384 
L 119.592973 -84.193925 
L 119.827568 -84.713785 
L 120.062162 -85.233896 
L 120.296757 -85.754185 
L 120.531351 -86.274583 
L 120.765946 -86.795017 
L 121.000541 -87.315416 
L 121.235135 -87.835706 
L 121.46973 -88.355814 
L 121.704324 -88.875666 
L 121.938919 -89.395188 
L 122.173514 -89.914304 
L 122.408108 -90.432938 
L 122.642703 -90.951015 
L 122.877297 -91.468457 
L 123.111892 -91.985189 
L 123.346486 -92.501132 
L 123.581081 -93.016209 
L 123.815676 -93.53034 
L 124.05027 -94.043448 
L 124.284865 -94.555453 
L 124.519459 -95.066276 
L 124.754054 -95.575837 
L 124.988649 -96.084056 
L 125.223243 -96.590853 
L 125.457838 -97.096146 
L 125.692432 -97.599855 
L 125.927027 -98.1019 
L 126.161622 -98.602197 
L 126.396216 -99.100667 
L 126.630811 -99.597227 
L 126.865405 -100.091796 
L 127.1 -100.584291 
L 127.334595 -101.07463 
L 127.569189 -101.562732 
L 127.803784 -102.048513 
L 128.038378 -102.531893 
L 128.272973 -103.012788 
L 128.507568 -103.491116 
L 128.742162 -103.966796 
L 128.976757 -104.439744 
L 129.211351 -104.90988 
L 129.445946 -105.37712 
L 129.680541 -105.841384 
L 129.915135 -106.302589 
L 130.14973 -106.760654 
L 130.384324 -107.215498 
L 130.618919 -107.66704 
L 130.853514 -108.115198 
L 131.088108 -108.559892 
L 131.322703 -109.001043 
L 131.557297 -109.438569 
L 131.791892 -109.872392 
L 132.026486 -110.302432 
L 132.261081 -110.728611 
L 132.495676 -111.150849 
L 132.73027 -111.569069 
L 132.964865 -111.983194 
L 133.199459 -112.393146 
L 133.434054 -112.798848 
L 133.668649 -113.200226 
L 133.903243 -113.597203 
L 134.137838 -113.989704 
L 134.372432 -114.377655 
L 134.607027 -114.760984 
L 134.841622 -115.139615 
L 135.076216 -115.513478 
L 135.310811 -115.882501 
L 135.545405 -116.246612 
L 135.78 -116.605742 
L 136.014595 -116.959821 
L 136.249189 -117.30878 
L 136.483784 -117.652553 
L 136.718378 -117.991071 
L 136.952973 -118.324269 
L 137.187568 -118.652081 
L 137.422162 -118.974444 
L 137.656757 -119.291293 
L 137.891351 -119.602566 
L 138.125946 -119.908202 
L 138.360541 -120.20814 
L 138.595135 -120.502321 
L 138.82973 -120.790686 
L 139.064324 -121.073177 
L 139.298919 -121.349738 
L 139.533514 -121.620313 
L 139.768108 -121.884849 
L 140.002703 -122.143292 
L 140.237297 -122.395591 
L 140.471892 -122.641693 
L 140.706486 -122.88155 
L 140.941081 -123.115113 
L 141.175676 -123.342335 
L 141.41027 -123.563168 
L 141.644865 -123.77757 
L 141.879459 -123.985495 
L 142.114054 -124.186902 
L 142.348649 -124.381748 
L 142.583243 -124.569996 
L 142.817838 -124.751605 
L 143.052432 -124.926538 
L 143.287027 -125.094761 
L 143.521622 -125.256237 
L 143.756216 -125.410934 
L 143.990811 -125.55882 
L 144.225405 -125.699865 
L 144.46 -125.834039 
L 144.694595 -125.961315 
L 144.929189 -126.081666 
L 145.163784 -126.195067 
L 145.398378 -126.301495 
L 145.632973 -126.400928 
L 145.867568 -126.493346 
L 146.102162 -126.578728 
L 146.336757 -126.657058 
L 146.571351 -126.728319 
L 146.805946 -126.792496 
L 147.040541 -126.849576 
L 147.275135 -126.899547 
L 147.50973 -126.942399 
L 147.744324 -126.978122 
L 147.978919 -127.00671 
L 148.213514 -127.028156 
L 148.448108 -127.042456 
L 148.682703 -127.049606 
L 148.917297 -127.049606 
L 149.151892 -127.042456 
L 149.386486 -127.028156 
L 149.621081 -127.00671 
L 149.855676 -126.978122 
L 150.09027 -126.942399 
L 150.324865 -126.899547 
L 150.559459 -126.849576 
L 150.794054 -126.792496 
L 151.028649 -126.728319 
L 151.263243 -126.657058 
L 151.497838 -126.578728 
L 151.732432 -126.493346 
L 151.967027 -126.400928 
L 152.201622 -126.301495 
L 152.436216 -126.195067 
L 152.670811 -126.081666 
L 152.905405 -125.961315 
L 153.14 -125.834039 
L 153.374595 -125.699865 
L 153.609189 -125.55882 
L 153.843784 -125.410934 
L 154.078378 -125.256237 
L 154.312973 -125.094761 
L 154.547568 -124.926538 
L 154.782162 -124.751605 
L 155.016757 -124.569996 
L 155.251351 -124.381748 
L 155.485946 -124.186902 
L 155.720541 -123.985495 
L 155.955135 -123.77757 
L 156.18973 -123.563168 
L 156.424324 -123.342335 
L 156.658919 -123.115113 
L 156.893514 -122.88155 
L 157.128108 -122.641693 
L 157.362703 -122.395591 
L 157.597297 -122.143292 
L 157.831892 -121.884849 
L 158.066486 -121.620313 
L 158.301081 -121.349738 
L 158.535676 -121.073177 
L 158.77027 -120.790686 
L 159.004865 -120.502321 
L 159.239459 -120.20814 
L 159.474054 -119.908202 
L 159.708649 -119.602566 
L 159.943243 -119.291293 
L 160.177838 -118.974444 
L 160.412432 -118.652081 
L 160.647027 -118.324269 
L 160.881622 -117.991071 
L 161.116216 -117.652553 
L 161.350811 -117.30878 
L 161.585405 -116.959821 
L 161.82 -116.605742 
L 162.054595 -116.246612 
L 162.289189 -115.882501 
L 162.523784 -115.513478 
L 162.758378 -115.139615 
L 162.992973 -114.760984 
L 163.227568 -114.377655 
L 163.462162 -113.989704 
L 163.696757 -113.597203 
L 163.931351 -113.200226 
L 164.165946 -112.798848 
L 164.400541 -112.393146 
L 164.635135 -111.983194 
L 164.86973 -111.569069 
L 165.104324 -111.150849 
L 165.338919 -110.728611 
L 165.573514 -110.302432 
L 165.808108 -109.872392 
L 166.042703 -109.438569 
L 166.277297 -109.001043 
L 166.511892 -108.559892 
L 166.746486 -108.115198 
L 166.981081 -107.66704 
L 167.215676 -107.215498 
L 167.45027 -106.760654 
L 167.684865 -106.302589 
L 167.919459 -105.841384 
L 168.154054 -105.37712 
L 168.388649 -104.90988 
L 168.623243 -104.439744 
L 168.857838 -103.966796 
L 169.092432 -103.491116 
L 169.327027 -103.012788 
L 169.561622 -102.531893 
L 169.796216 -102.048513 
L 170.030811 -101.562732 
L 170.265405 -101.07463 
L 170.5 -100.584291 
L 170.734595 -100.091796 
L 170.969189 -99.597227 
L 171.203784 -99.100667 
L 171.438378 -98.602197 
L 171.672973 -98.1019 
L 171.907568 -97.599855 
L 172.142162 -97.096146 
L 172.376757 -96.590853 
L 172.611351 -96.084056 
L 172.845946 -95.575837 
L 173.080541 -95.066276 
L 173.315135 -94.555453 
L 173.54973 -94.043448 
L 173.784324 -93.53034 
L 174.018919 -93.016209 
L 174.253514 -92.501132 
L 174.488108 -91.985189 
L 174.722703 -91.468457 
L 174.957297 -90.951015 
L 175.191892 -90.432938 
L 175.426486 -89.914304 
L 175.661081 -89.395188 
L 175.895676 -88.875666 
L 176.13027 -88.355814 
L 176.364865 -87.835706 
L 176.599459 -87.315416 
L 176.834054 -86.795017 
L 177.068649 -86.274583 
L 177.303243 -85.754185 
L 177.537838 -85.233896 
L 177.772432 -84.713785 
L 178.007027 -84.193925 
L 178.241622 -83.674384 
L 178.476216 -83.155231 
L 178.710811 -82.636536 
L 178.945405 -82.118365 
L 179.18 -81.600786 
L 179.414595 -81.083865 
L 179.649189 -80.567667 
L 179.883784 -80.052258 
L 180.118378 -79.537702 
L 180.352973 -79.024061 
L 180.587568 -78.511398 
L 180.822162 -77.999776 
L 181.056757 -77.489254 
L 181.291351 -76.979894 
L 181.525946 -76.471754 
L 181.760541 -75.964893 
L 181.995135 -75.459369 
L 182.22973 -74.955239 
L 182.464324 -74.452558 
L 182.698919 -73.951382 
L 182.933514 -73.451764 
L 183.168108 -72.95376 
L 183.402703 -72.45742 
L 183.637297 -71.962797 
L 183.871892 -71.469941 
L 184.106486 -70.978902 
L 184.341081 -70.489731 
L 184.575676 -70.002473 
L 184.81027 -69.517177 
L 185.044865 -69.03389 
L 185.279459 -68.552656 
L 185.514054 -68.073519 
L 185.748649 -67.596525 
L 185.983243 -67.121714 
L 186.217838 -66.64913 
L 186.452432 -66.178812 
L 186.687027 -65.710801 
L 186.921622 -65.245136 
L 187.156216 -64.781855 
L 187.390811 -64.320994 
L 187.625405 -63.862591 
L 187.86 -63.40668 
L 188.094595 -62.953296 
L 188.329189 -62.502473 
L 188.563784 -62.054242 
L 188.798378 -61.608636 
L 189.032973 -61.165685 
L 189.267568 -60.72542 
L 189.502162 -60.287868 
L 189.736757 -59.853059 
L 189.971351 -59.421018 
L 190.205946 -58.991773 
L 190.440541 -58.565348 
L 190.675135 -58.141768 
L 190.90973 -57.721057 
L 191.144324 -57.303237 
L 191.378919 -56.88833 
L 191.613514 -56.476357 
L 191.848108 -56.067338 
L 192.082703 -55.661291 
L 192.317297 -55.258236 
L 192.551892 -54.858189 
L 192.786486 -54.461168 
L 193.021081 -54.067188 
L 193.255676 -53.676264 
L 193.49027 -53.288409 
L 193.724865 -52.903639 
L 193.959459 -52.521963 
L 194.194054 -52.143396 
L 194.428649 -51.767946 
L 194.663243 -51.395626 
L 194.897838 -51.026442 
L 195.132432 -50.660405 
L 195.367027 -50.297522 
L 195.601622 -49.937799 
L 195.836216 -49.581244 
L 196.070811 -49.227862 
L 196.305405 -48.877656 
L 196.54 -48.530633 
L 196.774595 -48.186793 
L 197.009189 -47.846142 
L 197.243784 -47.508679 
L 197.478378 -47.174408 
L 197.712973 -46.843327 
L 197.947568 -46.515437 
L 198.182162 -46.190737 
L 198.416757 -45.869227 
L 198.651351 -45.550903 
L 198.885946 -45.235763 
L 199.120541 -44.923803 
L 199.355135 -44.615021 
L 199.58973 -44.309411 
L 199.824324 -44.006968 
L 200.058919 -43.707687 
L 200.293514 -43.411561 
L 200.528108 -43.118583 
L 200.762703 -42.828747 
L 200.997297 -42.542043 
L 201.231892 -42.258465 
L 201.466486 -41.978002 
L 201.701081 -41.700646 
L 201.935676 -41.426387 
L 202.17027 -41.155213 
L 202.404865 -40.887115 
L 202.639459 -40.62208 
L 202.874054 -40.360097 
L 203.108649 -40.101154 
L 203.343243 -39.845239 
L 203.577838 -39.592336 
L 203.812432 -39.342435 
L 204.047027 -39.09552 
L 204.281622 -38.851576 
L 204.516216 -38.610591 
L 204.750811 -38.372547 
L 204.985405 -38.137431 
L 205.22 -37.905225 
L 205.454595 -37.675914 
L 205.689189 -37.449482 
L 205.923784 -37.225912 
L 206.158378 -37.005186 
L 206.392973 -36.787287 
L 206.627568 -36.572198 
L 206.862162 -36.3599 
L 207.096757 -36.150376 
L 207.331351 -35.943606 
L 207.565946 -35.739573 
L 207.800541 -35.538256 
L 208.035135 -35.339637 
L 208.26973 -35.143697 
L 208.504324 -34.950415 
L 208.738919 -34.759772 
L 208.973514 -34.571748 
L 209.208108 -34.386322 
L 209.442703 -34.203474 
L 209.677297 -34.023183 
L 209.911892 -33.845429 
L 210.146486 -33.670191 
L 210.381081 -33.497448 
L 210.615676 -33.327177 
L 210.85027 -33.159359 
L 211.084865 -32.993972 
L 211.319459 -32.830994 
L 211.554054 -32.670403 
L 211.788649 -32.512177 
L 212.023243 -32.356296 
L 212.257838 -32.202736 
L 212.492432 -32.051476 
L 212.727027 -31.902494 
L 212.961622 -31.755768 
L 213.196216 -31.611275 
L 213.430811 -31.468993 
L 213.665405 -31.328901 
L 213.9 -31.190975 
L 214.134595 -31.055193 
L 214.369189 -30.921534 
L 214.603784 -30.789974 
L 214.838378 -30.660492 
L 215.072973 -30.533064 
L 215.307568 -30.40767 
L 215.542162 -30.284286 
L 215.776757 -30.16289 
L 216.011351 -30.04346 
L 216.245946 -29.925973 
L 216.480541 -29.810408 
L 216.715135 -29.696742 
L 216.94973 -29.584953 
L 217.184324 -29.47502 
L 217.418919 -29.366919 
L 217.653514 -29.26063 
L 217.888108 -29.15613 
L 218.122703 -29.053397 
L 218.357297 -28.95241 
L 218.591892 -28.853147 
L 218.826486 -28.755587 
L 219.061081 -28.659708 
L 219.295676 -28.565489 
L 219.53027 -28.472908 
L 219.764865 -28.381944 
L 219.999459 -28.292577 
L 220.234054 -28.204785 
L 220.468649 -28.118547 
L 220.703243 -28.033843 
L 220.937838 -27.950652 
L 221.172432 -27.868954 
L 221.407027 -27.788728 
L 221.641622 -27.709954 
L 221.876216 -27.632612 
L 222.110811 -27.556682 
L 222.345405 -27.482144 
L 222.58 -27.408978 
L 222.814595 -27.337165 
L 223.049189 -27.266686 
L 223.283784 -27.197521 
L 223.518378 -27.129651 
L 223.752973 -27.063057 
L 223.987568 -26.99772 
L 224.222162 -26.933622 
L 224.456757 -26.870744 
L 224.691351 -26.809068 
L 224.925946 -26.748575 
L 225.160541 -26.689248 
L 225.395135 -26.631069 
L 225.62973 -26.574019 
L 225.864324 -26.518082 
L 226.098919 -26.46324 
L 226.333514 -26.409477 
L 226.568108 -26.356773 
L 226.802703 -26.305114 
L 227.037297 -26.254482 
L 227.271892 -26.204861 
L 227.506486 -26.156234 
L 227.741081 -26.108586 
L 227.975676 -26.061899 
L 228.21027 -26.016159 
L 228.444865 -25.971349 
L 228.679459 -25.927455 
L 228.914054 -25.88446 
L 229.148649 -25.84235 
L 229.383243 -25.80111 
L 229.617838 -25.760724 
L 229.852432 -25.721179 
L 230.087027 -25.682459 
L 230.321622 -25.644551 
L 230.556216 -25.60744 
L 230.790811 -25.571113 
L 231.025405 -25.535555 
L 231.26 -25.500753 
L 231.494595 -25.466694 
L 231.729189 -25.433363 
L 231.963784 -25.40075 
L 232.198378 -25.368839 
L 232.432973 -25.337619 
L 232.667568 -25.307077 
L 232.902162 -25.277201 
L 233.136757 -25.247978 
L 233.371351 -25.219396 
L 233.605946 -25.191443 
L 233.840541 -25.164108 
L 234.075135 -25.137379 
L 234.30973 -25.111244 
L 234.544324 -25.085693 
L 234.778919 -25.060714 
L 235.013514 -25.036297 
L 235.248108 -25.012429 
L 235.482703 -24.989102 
L 235.717297 -24.966304 
L 235.951892 -24.944025 
L 236.186486 -24.922255 
L 236.421081 -24.900984 
L 236.655676 -24.880203 
L 236.89027 -24.8599 
L 237.124865 -24.840068 
L 237.359459 -24.820696 
L 237.594054 -24.801775 
L 237.828649 -24.783297 
L 238.063243 -24.765251 
L 238.297838 -24.74763 
L 238.532432 -24.730425 
L 238.767027 -24.713627 
L 239.001622 -24.697228 
L 239.236216 -24.681219 
L 239.470811 -24.665593 
L 239.705405 -24.650341 
L 239.94 -24.635456 
L 240.174595 -24.62093 
L 240.409189 -24.606755 
L 240.643784 -24.592924 
L 240.878378 -24.57943 
L 241.112973 -24.566265 
L 241.347568 -24.553422 
L 241.582162 -24.540895 
L 241.816757 -24.528676 
L 242.051351 -24.516759 
L 242.285946 -24.505138 
L 242.520541 -24.493805 
L 242.755135 -24.482755 
L 242.98973 -24.471981 
L 243.224324 -24.461477 
L 243.458919 -24.451238 
L 243.693514 -24.441256 
L 243.928108 -24.431527 
L 244.162703 -24.422045 
L 244.397297 -24.412805 
L 244.631892 -24.4038 
L 244.866486 -24.395025 
L 245.101081 -24.386476 
L 245.335676 -24.378147 
L 245.57027 -24.370032 
L 245.804865 -24.362128 
L 246.039459 -24.354429 
L 246.274054 -24.34693 
L 246.508649 -24.339627 
L 246.743243 -24.332515 
L 246.977838 -24.32559 
L 247.212432 -24.318848 
L 247.447027 -24.312283 
L 247.681622 -24.305892 
L 247.916216 -24.29967 
L 248.150811 -24.293615 
L 248.385405 -24.28772 
L 248.62 -24.281984 
L 248.854595 -24.276401 
L 249.089189 -24.270969 
L 249.323784 -24.265684 
L 249.558378 -24.260541 
L 249.792973 -24.255538 
L 250.027568 -24.250671 
L 250.262162 -24.245936 
L 250.496757 -24.241331 
L 250.731351 -24.236853 
L 250.965946 -24.232497 
L 251.200541 -24.228262 
L 251.435135 -24.224143 
L 251.66973 -24.220139 
L 251.904324 -24.216246 
L 252.138919 -24.212461 
L 252.373514 -24.208782 
L 252.608108 -24.205206 
L 252.842703 -24.201731 
L 253.077297 -24.198353 
L 253.311892 -24.195071 
L 253.546486 -24.191881 
L 253.781081 -24.188782 
L 254.015676 -24.185771 
L 254.25027 -24.182846 
L 254.484865 -24.180004 
L 254.719459 -24.177244 
L 254.954054 -24.174563 
L 255.188649 -24.17196 
L 255.423243 -24.169431 
L 255.657838 -24.166976 
L 255.892432 -24.164592 
L 256.127027 -24.162277 
L 256.361622 -24.16003 
L 256.596216 -24.157848 
L 256.830811 -24.15573 
L 257.065405 -24.153675 
L 257.3 -24.15168 
L 257.534595 -24.149744 
L 257.769189 -24.147865 
L 258.003784 -24.146042 
L 258.238378 -24.144273 
L 258.472973 -24.142557 
L 258.707568 -24.140892 
L 258.942162 -24.139277 
L 259.176757 -24.137711 
L 259.411351 -24.136191 
L 259.645946 -24.134718 
L 259.880541 -24.133289 
L 260.115135 -24.131903 
L 260.34973 -24.130559 
L 260.584324 -24.129257 
L 260.818919 -24.127994 
L 261.053514 -24.126769 
L 261.288108 -24.125583 
L 261.522703 -24.124432 
L 261.757297 -24.123317 
L 261.991892 -24.122237 
L 262.226486 -24.12119 
L 262.461081 -24.120176 
L 262.695676 -24.119193 
L 262.93027 -24.11824 
L 263.164865 -24.117318 
L 263.399459 -24.116424 
L 263.634054 -24.115558 
L 263.868649 -24.11472 
L 264.103243 -24.113908 
L 264.337838 -24.113121 
L 264.572432 -24.11236 
L 264.807027 -24.111623 
L 265.041622 -24.110909 
L 265.276216 -24.110218 
L 265.510811 -24.109549 
L 265.745405 -24.108901 
L 265.98 -24.108274 
L 265.98 -24.0905 
L 265.98 -24.0905 
L 265.745405 -24.0905 
L 265.510811 -24.0905 
L 265.276216 -24.0905 
L 265.041622 -24.0905 
L 264.807027 -24.0905 
L 264.572432 -24.0905 
L 264.337838 -24.0905 
L 264.103243 -24.0905 
L 263.868649 -24.0905 
L 263.634054 -24.0905 
L 263.399459 -24.0905 
L 263.164865 -24.0905 
L 262.93027 -24.0905 
L 262.695676 -24.0905 
L 262.461081 -24.0905 
L 262.226486 -24.0905 
L 261.991892 -24.0905 
L 261.757297 -24.0905 
L 261.522703 -24.0905 
L 261.288108 -24.0905 
L 261.053514 -24.0905 
L 260.818919 -24.0905 
L 260.584324 -24.0905 
L 260.34973 -24.0905 
L 260.115135 -24.0905 
L 259.880541 -24.0905 
L 259.645946 -24.0905 
L 259.411351 -24.0905 
L 259.176757 -24.0905 
L 258.942162 -24.0905 
L 258.707568 -24.0905 
L 258.472973 -24.0905 
L 258.238378 -24.0905 
L 258.003784 -24.0905 
L 257.769189 -24.0905 
L 257.534595 -24.0905 
L 257.3 -24.0905 
L 257.065405 -24.0905 
L 256.830811 -24.0905 
L 256.596216 -24.0905 
L 256.361622 -24.0905 
L 256.127027 -24.0905 
L 255.892432 -24.0905 
L 255.657838 -24.0905 
L 255.423243 -24.0905 
L 255.188649 -24.0905 
L 254.954054 -24.0905 
L 254.719459 -24.0905 
L 254.484865 -24.0905 
L 254.25027 -24.0905 
L 254.015676 -24.0905 
L 253.781081 -24.0905 
L 253.546486 -24.0905 
L 253.311892 -24.0905 
L 253.077297 -24.0905 
L 252.842703 -24.0905 
L 252.608108 -24.0905 
L 252.373514 -24.0905 
L 252.138919 -24.0905 
L 251.904324 -24.0905 
L 251.66973 -24.0905 
L 251.435135 -24.0905 
L 251.200541 -24.0905 
L 250.965946 -24.0905 
L 250.731351 -24.0905 
L 250.496757 -24.0905 
L 250.262162 -24.0905 
L 250.027568 -24.0905 
L 249.792973 -24.0905 
L 249.558378 -24.0905 
L 249.323784 -24.0905 
L 249.089189 -24.0905 
L 248.854595 -24.0905 
L 248.62 -24.0905 
L 248.385405 -24.0905 
L 248.150811 -24.0905 
L 247.916216 -24.0905 
L 247.681622 -24.0905 
L 247.447027 -24.0905 
L 247.212432 -24.0905 
L 246.977838 -24.0905 
L 246.743243 -24.0905 
L 246.508649 -24.0905 
L 246.274054 -24.0905 
L 246.039459 -24.0905 
L 245.804865 -24.0905 
L 245.57027 -24.0905 
L 245.335676 -24.0905 
L 245.101081 -24.0905 
L 244.866486 -24.0905 
L 244.631892 -24.0905 
L 244.397297 -24.0905 
L 244.162703 -24.0905 
L 243.928108 -24.0905 
L 243.693514 -24.0905 
L 243.458919 -24.0905 
L 243.224324 -24.0905 
L 242.98973 -24.0905 
L 242.755135 -24.0905 
L 242.520541 -24.0905 
L 242.285946 -24.0905 
L 242.051351 -24.0905 
L 241.816757 -24.0905 
L 241.582162 -24.0905 
L 241.347568 -24.0905 
L 241.112973 -24.0905 
L 240.878378 -24.0905 
L 240.643784 -24.0905 
L 240.409189 -24.0905 
L 240.174595 -24.0905 
L 239.94 -24.0905 
L 239.705405 -24.0905 
L 239.470811 -24.0905 
L 239.236216 -24.0905 
L 239.001622 -24.0905 
L 238.767027 -24.0905 
L 238.532432 -24.0905 
L 238.297838 -24.0905 
L 238.063243 -24.0905 
L 237.828649 -24.0905 
L 237.594054 -24.0905 
L 237.359459 -24.0905 
L 237.124865 -24.0905 
L 236.89027 -24.0905 
L 236.655676 -24.0905 
L 236.421081 -24.0905 
L 236.186486 -24.0905 
L 235.951892 -24.0905 
L 235.717297 -24.0905 
L 235.482703 -24.0905 
L 235.248108 -24.0905 
L 235.013514 -24.0905 
L 234.778919 -24.0905 
L 234.544324 -24.0905 
L 234.30973 -24.0905 
L 234.075135 -24.0905 
L 233.840541 -24.0905 
L 233.605946 -24.0905 
L 233.371351 -24.0905 
L 233.136757 -24.0905 
L 232.902162 -24.0905 
L 232.667568 -24.0905 
L 232.432973 -24.0905 
L 232.198378 -24.0905 
L 231.963784 -24.0905 
L 231.729189 -24.0905 
L 231.494595 -24.0905 
L 231.26 -24.0905 
L 231.025405 -24.0905 
L 230.790811 -24.0905 
L 230.556216 -24.0905 
L 230.321622 -24.0905 
L 230.087027 -24.0905 
L 229.852432 -24.0905 
L 229.617838 -24.0905 
L 229.383243 -24.0905 
L 229.148649 -24.0905 
L 228.914054 -24.0905 
L 228.679459 -24.0905 
L 228.444865 -24.0905 
L 228.21027 -24.0905 
L 227.975676 -24.0905 
L 227.741081 -24.0905 
L 227.506486 -24.0905 
L 227.271892 -24.0905 
L 227.037297 -24.0905 
L 226.802703 -24.0905 
L 226.568108 -24.0905 
L 226.333514 -24.0905 
L 226.098919 -24.0905 
L 225.864324 -24.0905 
L 225.62973 -24.0905 
L 225.395135 -24.0905 
L 225.160541 -24.0905 
L 224.925946 -24.0905 
L 224.691351 -24.0905 
L 224.456757 -24.0905 
L 224.222162 -24.0905 
L 223.987568 -24.0905 
L 223.752973 -24.0905 
L 223.518378 -24.0905 
L 223.283784 -24.0905 
L 223.049189 -24.0905 
L 222.814595 -24.0905 
L 222.58 -24.0905 
L 222.345405 -24.0905 
L 222.110811 -24.0905 
L 221.876216 -24.0905 
L 221.641622 -24.0905 
L 221.407027 -24.0905 
L 221.172432 -24.0905 
L 220.937838 -24.0905 
L 220.703243 -24.0905 
L 220.468649 -24.0905 
L 220.234054 -24.0905 
L 219.999459 -24.0905 
L 219.764865 -24.0905 
L 219.53027 -24.0905 
L 219.295676 -24.0905 
L 219.061081 -24.0905 
L 218.826486 -24.0905 
L 218.591892 -24.0905 
L 218.357297 -24.0905 
L 218.122703 -24.0905 
L 217.888108 -24.0905 
L 217.653514 -24.0905 
L 217.418919 -24.0905 
L 217.184324 -24.0905 
L 216.94973 -24.0905 
L 216.715135 -24.0905 
L 216.480541 -24.0905 
L 216.245946 -24.0905 
L 216.011351 -24.0905 
L 215.776757 -24.0905 
L 215.542162 -24.0905 
L 215.307568 -24.0905 
L 215.072973 -24.0905 
L 214.838378 -24.0905 
L 214.603784 -24.0905 
L 214.369189 -24.0905 
L 214.134595 -24.0905 
L 213.9 -24.0905 
L 213.665405 -24.0905 
L 213.430811 -24.0905 
L 213.196216 -24.0905 
L 212.961622 -24.0905 
L 212.727027 -24.0905 
L 212.492432 -24.0905 
L 212.257838 -24.0905 
L 212.023243 -24.0905 
L 211.788649 -24.0905 
L 211.554054 -24.0905 
L 211.319459 -24.0905 
L 211.084865 -24.0905 
L 210.85027 -24.0905 
L 210.615676 -24.0905 
L 210.381081 -24.0905 
L 210.146486 -24.0905 
L 209.911892 -24.0905 
L 209.677297 -24.0905 
L 209.442703 -24.0905 
L 209.208108 -24.0905 
L 208.973514 -24.0905 
L 208.738919 -24.0905 
L 208.504324 -24.0905 
L 208.26973 -24.0905 
L 208.035135 -24.0905 
L 207.800541 -24.0905 
L 207.565946 -24.0905 
L 207.331351 -24.0905 
L 207.096757 -24.0905 
L 206.862162 -24.0905 
L 206.627568 -24.0905 
L 206.392973 -24.0905 
L 206.158378 -24.0905 
L 205.923784 -24.0905 
L 205.689189 -24.0905 
L 205.454595 -24.0905 
L 205.22 -24.0905 
L 204.985405 -24.0905 
L 204.750811 -24.0905 
L 204.516216 -24.0905 
L 204.281622 -24.0905 
L 204.047027 -24.0905 
L 203.812432 -24.0905 
L 203.577838 -24.0905 
L 203.343243 -24.0905 
L 203.108649 -24.0905 
L 202.874054 -24.0905 
L 202.639459 -24.0905 
L 202.404865 -24.0905 
L 202.17027 -24.0905 
L 201.935676 -24.0905 
L 201.701081 -24.0905 
L 201.466486 -24.0905 
L 201.231892 -24.0905 
L 200.997297 -24.0905 
L 200.762703 -24.0905 
L 200.528108 -24.0905 
L 200.293514 -24.0905 
L 200.058919 -24.0905 
L 199.824324 -24.0905 
L 199.58973 -24.0905 
L 199.355135 -24.0905 
L 199.120541 -24.0905 
L 198.885946 -24.0905 
L 198.651351 -24.0905 
L 198.416757 -24.0905 
L 198.182162 -24.0905 
L 197.947568 -24.0905 
L 197.712973 -24.0905 
L 197.478378 -24.0905 
L 197.243784 -24.0905 
L 197.009189 -24.0905 
L 196.774595 -24.0905 
L 196.54 -24.0905 
L 196.305405 -24.0905 
L 196.070811 -24.0905 
L 195.836216 -24.0905 
L 195.601622 -24.0905 
L 195.367027 -24.0905 
L 195.132432 -24.0905 
L 194.897838 -24.0905 
L 194.663243 -24.0905 
L 194.428649 -24.0905 
L 194.194054 -24.0905 
L 193.959459 -24.0905 
L 193.724865 -24.0905 
L 193.49027 -24.0905 
L 193.255676 -24.0905 
L 193.021081 -24.0905 
L 192.786486 -24.0905 
L 192.551892 -24.0905 
L 192.317297 -24.0905 
L 192.082703 -24.0905 
L 191.848108 -24.0905 
L 191.613514 -24.0905 
L 191.378919 -24.0905 
L 191.144324 -24.0905 
L 190.90973 -24.0905 
L 190.675135 -24.0905 
L 190.440541 -24.0905 
L 190.205946 -24.0905 
L 189.971351 -24.0905 
L 189.736757 -24.0905 
L 189.502162 -24.0905 
L 189.267568 -24.0905 
L 189.032973 -24.0905 
L 188.798378 -24.0905 
L 188.563784 -24.0905 
L 188.329189 -24.0905 
L 188.094595 -24.0905 
L 187.86 -24.0905 
L 187.625405 -24.0905 
L 187.390811 -24.0905 
L 187.156216 -24.0905 
L 186.921622 -24.0905 
L 186.687027 -24.0905 
L 186.452432 -24.0905 
L 186.217838 -24.0905 
L 185.983243 -24.0905 
L 185.748649 -24.0905 
L 185.514054 -24.0905 
L 185.279459 -24.0905 
L 185.044865 -24.0905 
L 184.81027 -24.0905 
L 184.575676 -24.0905 
L 184.341081 -24.0905 
L 184.106486 -24.0905 
L 183.871892 -24.0905 
L 183.637297 -24.0905 
L 183.402703 -24.0905 
L 183.168108 -24.0905 
L 182.933514 -24.0905 
L 182.698919 -24.0905 
L 182.464324 -24.0905 
L 182.22973 -24.0905 
L 181.995135 -24.0905 
L 181.760541 -24.0905 
L 181.525946 -24.0905 
L 181.291351 -24.0905 
L 181.056757 -24.0905 
L 180.822162 -24.0905 
L 180.587568 -24.0905 
L 180.352973 -24.0905 
L 180.118378 -24.0905 
L 179.883784 -24.0905 
L 179.649189 -24.0905 
L 179.414595 -24.0905 
L 179.18 -24.0905 
L 178.945405 -24.0905 
L 178.710811 -24.0905 
L 178.476216 -24.0905 
L 178.241622 -24.0905 
L 178.007027 -24.0905 
L 177.772432 -24.0905 
L 177.537838 -24.0905 
L 177.303243 -24.0905 
L 177.068649 -24.0905 
L 176.834054 -24.0905 
L 176.599459 -24.0905 
L 176.364865 -24.0905 
L 176.13027 -24.0905 
L 175.895676 -24.0905 
L 175.661081 -24.0905 
L 175.426486 -24.0905 
L 175.191892 -24.0905 
L 174.957297 -24.0905 
L 174.722703 -24.0905 
L 174.488108 -24.0905 
L 174.253514 -24.0905 
L 174.018919 -24.0905 
L 173.784324 -24.0905 
L 173.54973 -24.0905 
L 173.315135 -24.0905 
L 173.080541 -24.0905 
L 172.845946 -24.0905 
L 172.611351 -24.0905 
L 172.376757 -24.0905 
L 172.142162 -24.0905 
L 171.907568 -24.0905 
L 171.672973 -24.0905 
L 171.438378 -24.0905 
L 171.203784 -24.0905 
L 170.969189 -24.0905 
L 170.734595 -24.0905 
L 170.5 -24.0905 
L 170.265405 -24.0905 
L 170.030811 -24.0905 
L 169.796216 -24.0905 
L 169.561622 -24.0905 
L 169.327027 -24.0905 
L 169.092432 -24.0905 
L 168.857838 -24.0905 
L 168.623243 -24.0905 
L 168.388649 -24.0905 
L 168.154054 -24.0905 
L 167.919459 -24.0905 
L 167.684865 -24.0905 
L 167.45027 -24.0905 
L 167.215676 -24.0905 
L 166.981081 -24.0905 
L 166.746486 -24.0905 
L 166.511892 -24.0905 
L 166.277297 -24.0905 
L 166.042703 -24.0905 
L 165.808108 -24.0905 
L 165.573514 -24.0905 
L 165.338919 -24.0905 
L 165.104324 -24.0905 
L 164.86973 -24.0905 
L 164.635135 -24.0905 
L 164.400541 -24.0905 
L 164.165946 -24.0905 
L 163.931351 -24.0905 
L 163.696757 -24.0905 
L 163.462162 -24.0905 
L 163.227568 -24.0905 
L 162.992973 -24.0905 
L 162.758378 -24.0905 
L 162.523784 -24.0905 
L 162.289189 -24.0905 
L 162.054595 -24.0905 
L 161.82 -24.0905 
L 161.585405 -24.0905 
L 161.350811 -24.0905 
L 161.116216 -24.0905 
L 160.881622 -24.0905 
L 160.647027 -24.0905 
L 160.412432 -24.0905 
L 160.177838 -24.0905 
L 159.943243 -24.0905 
L 159.708649 -24.0905 
L 159.474054 -24.0905 
L 159.239459 -24.0905 
L 159.004865 -24.0905 
L 158.77027 -24.0905 
L 158.535676 -24.0905 
L 158.301081 -24.0905 
L 158.066486 -24.0905 
L 157.831892 -24.0905 
L 157.597297 -24.0905 
L 157.362703 -24.0905 
L 157.128108 -24.0905 
L 156.893514 -24.0905 
L 156.658919 -24.0905 
L 156.424324 -24.0905 
L 156.18973 -24.0905 
L 155.955135 -24.0905 
L 155.720541 -24.0905 
L 155.485946 -24.0905 
L 155.251351 -24.0905 
L 155.016757 -24.0905 
L 154.782162 -24.0905 
L 154.547568 -24.0905 
L 154.312973 -24.0905 
L 154.078378 -24.0905 
L 153.843784 -24.0905 
L 153.609189 -24.0905 
L 153.374595 -24.0905 
L 153.14 -24.0905 
L 152.905405 -24.0905 
L 152.670811 -24.0905 
L 152.436216 -24.0905 
L 152.201622 -24.0905 
L 151.967027 -24.0905 
L 151.732432 -24.0905 
L 151.497838 -24.0905 
L 151.263243 -24.0905 
L 151.028649 -24.0905 
L 150.794054 -24.0905 
L 150.559459 -24.0905 
L 150.324865 -24.0905 
L 150.09027 -24.0905 
L 149.855676 -24.0905 
L 149.621081 -24.0905 
L 149.386486 -24.0905 
L 149.151892 -24.0905 
L 148.917297 -24.0905 
L 148.682703 -24.0905 
L 148.448108 -24.0905 
L 148.213514 -24.0905 
L 147.978919 -24.0905 
L 147.744324 -24.0905 
L 147.50973 -24.0905 
L 147.275135 -24.0905 
L 147.040541 -24.0905 
L 146.805946 -24.0905 
L 146.571351 -24.0905 
L 146.336757 -24.0905 
L 146.102162 -24.0905 
L 145.867568 -24.0905 
L 145.632973 -24.0905 
L 145.398378 -24.0905 
L 145.163784 -24.0905 
L 144.929189 -24.0905 
L 144.694595 -24.0905 
L 144.46 -24.0905 
L 144.225405 -24.0905 
L 143.990811 -24.0905 
L 143.756216 -24.0905 
L 143.521622 -24.0905 
L 143.287027 -24.0905 
L 143.052432 -24.0905 
L 142.817838 -24.0905 
L 142.583243 -24.0905 
L 142.348649 -24.0905 
L 142.114054 -24.0905 
L 141.879459 -24.0905 
L 141.644865 -24.0905 
L 141.41027 -24.0905 
L 141.175676 -24.0905 
L 140.941081 -24.0905 
L 140.706486 -24.0905 
L 140.471892 -24.0905 
L 140.237297 -24.0905 
L 140.002703 -24.0905 
L 139.768108 -24.0905 
L 139.533514 -24.0905 
L 139.298919 -24.0905 
L 139.064324 -24.0905 
L 138.82973 -24.0905 
L 138.595135 -24.0905 
L 138.360541 -24.0905 
L 138.125946 -24.0905 
L 137.891351 -24.0905 
L 137.656757 -24.0905 
L 137.422162 -24.0905 
L 137.187568 -24.0905 
L 136.952973 -24.0905 
L 136.718378 -24.0905 
L 136.483784 -24.0905 
L 136.249189 -24.0905 
L 136.014595 -24.0905 
L 135.78 -24.0905 
L 135.545405 -24.0905 
L 135.310811 -24.0905 
L 135.076216 -24.0905 
L 134.841622 -24.0905 
L 134.607027 -24.0905 
L 134.372432 -24.0905 
L 134.137838 -24.0905 
L 133.903243 -24.0905 
L 133.668649 -24.0905 
L 133.434054 -24.0905 
L 133.199459 -24.0905 
L 132.964865 -24.0905 
L 132.73027 -24.0905 
L 132.495676 -24.0905 
L 132.261081 -24.0905 
L 132.026486 -24.0905 
L 131.791892 -24.0905 
L 131.557297 -24.0905 
L 131.322703 -24.0905 
L 131.088108 -24.0905 
L 130.853514 -24.0905 
L 130.618919 -24.0905 
L 130.384324 -24.0905 
L 130.14973 -24.0905 
L 129.915135 -24.0905 
L 129.680541 -24.0905 
L 129.445946 -24.0905 
L 129.211351 -24.0905 
L 128.976757 -24.0905 
L 128.742162 -24.0905 
L 128.507568 -24.0905 
L 128.272973 -24.0905 
L 128.038378 -24.0905 
L 127.803784 -24.0905 
L 127.569189 -24.0905 
L 127.334595 -24.0905 
L 127.1 -24.0905 
L 126.865405 -24.0905 
L 126.630811 -24.0905 
L 126.396216 -24.0905 
L 126.161622 -24.0905 
L 125.927027 -24.0905 
L 125.692432 -24.0905 
L 125.457838 -24.0905 
L 125.223243 -24.0905 
L 124.988649 -24.0905 
L 124.754054 -24.0905 
L 124.519459 -24.0905 
L 124.284865 -24.0905 
L 124.05027 -24.0905 
L 123.815676 -24.0905 
L 123.581081 -24.0905 
L 123.346486 -24.0905 
L 123.111892 -24.0905 
L 122.877297 -24.0905 
L 122.642703 -24.0905 
L 122.408108 -24.0905 
L 122.173514 -24.0905 
L 121.938919 -24.0905 
L 121.704324 -24.0905 
L 121.46973 -24.0905 
L 121.235135 -24.0905 
L 121.000541 -24.0905 
L 120.765946 -24.0905 
L 120.531351 -24.0905 
L 120.296757 -24.0905 
L 120.062162 -24.0905 
L 119.827568 -24.0905 
L 119.592973 -24.0905 
L 119.358378 -24.0905 
L 119.123784 -24.0905 
L 118.889189 -24.0905 
L 118.654595 -24.0905 
L 118.42 -24.0905 
L 118.185405 -24.0905 
L 117.950811 -24.0905 
L 117.716216 -24.0905 
L 117.481622 -24.0905 
L 117.247027 -24.0905 
L 117.012432 -24.0905 
L 116.777838 -24.0905 
L 116.543243 -24.0905 
L 116.308649 -24.0905 
L 116.074054 -24.0905 
L 115.839459 -24.0905 
L 115.604865 -24.0905 
L 115.37027 -24.0905 
L 115.135676 -24.0905 
L 114.901081 -24.0905 
L 114.666486 -24.0905 
L 114.431892 -24.0905 
L 114.197297 -24.0905 
L 113.962703 -24.0905 
L 113.728108 -24.0905 
L 113.493514 -24.0905 
L 113.258919 -24.0905 
L 113.024324 -24.0905 
L 112.78973 -24.0905 
L 112.555135 -24.0905 
L 112.320541 -24.0905 
L 112.085946 -24.0905 
L 111.851351 -24.0905 
L 111.616757 -24.0905 
L 111.382162 -24.0905 
L 111.147568 -24.0905 
L 110.912973 -24.0905 
L 110.678378 -24.0905 
L 110.443784 -24.0905 
L 110.209189 -24.0905 
L 109.974595 -24.0905 
L 109.74 -24.0905 
L 109.505405 -24.0905 
L 109.270811 -24.0905 
L 109.036216 -24.0905 
L 108.801622 -24.0905 
L 108.567027 -24.0905 
L 108.332432 -24.0905 
L 108.097838 -24.0905 
L 107.863243 -24.0905 
L 107.628649 -24.0905 
L 107.394054 -24.0905 
L 107.159459 -24.0905 
L 106.924865 -24.0905 
L 106.69027 -24.0905 
L 106.455676 -24.0905 
L 106.221081 -24.0905 
L 105.986486 -24.0905 
L 105.751892 -24.0905 
L 105.517297 -24.0905 
L 105.282703 -24.0905 
L 105.048108 -24.0905 
L 104.813514 -24.0905 
L 104.578919 -24.0905 
L 104.344324 -24.0905 
L 104.10973 -24.0905 
L 103.875135 -24.0905 
L 103.640541 -24.0905 
L 103.405946 -24.0905 
L 103.171351 -24.0905 
L 102.936757 -24.0905 
L 102.702162 -24.0905 
L 102.467568 -24.0905 
L 102.232973 -24.0905 
L 101.998378 -24.0905 
L 101.763784 -24.0905 
L 101.529189 -24.0905 
L 101.294595 -24.0905 
L 101.06 -24.0905 
L 100.825405 -24.0905 
L 100.590811 -24.0905 
L 100.356216 -24.0905 
L 100.121622 -24.0905 
L 99.887027 -24.0905 
L 99.652432 -24.0905 
L 99.417838 -24.0905 
L 99.183243 -24.0905 
L 98.948649 -24.0905 
L 98.714054 -24.0905 
L 98.479459 -24.0905 
L 98.244865 -24.0905 
L 98.01027 -24.0905 
L 97.775676 -24.0905 
L 97.541081 -24.0905 
L 97.306486 -24.0905 
L 97.071892 -24.0905 
L 96.837297 -24.0905 
L 96.602703 -24.0905 
L 96.368108 -24.0905 
L 96.133514 -24.0905 
L 95.898919 -24.0905 
L 95.664324 -24.0905 
L 95.42973 -24.0905 
L 95.195135 -24.0905 
L 94.960541 -24.0905 
L 94.725946 -24.0905 
L 94.491351 -24.0905 
L 94.256757 -24.0905 
L 94.022162 -24.0905 
L 93.787568 -24.0905 
L 93.552973 -24.0905 
L 93.318378 -24.0905 
L 93.083784 -24.0905 
L 92.849189 -24.0905 
L 92.614595 -24.0905 
L 92.38 -24.0905 
L 92.145405 -24.0905 
L 91.910811 -24.0905 
L 91.676216 -24.0905 
L 91.441622 -24.0905 
L 91.207027 -24.0905 
L 90.972432 -24.0905 
L 90.737838 -24.0905 
L 90.503243 -24.0905 
L 90.268649 -24.0905 
L 90.034054 -24.0905 
L 89.799459 -24.0905 
L 89.564865 -24.0905 
L 89.33027 -24.0905 
L 89.095676 -24.0905 
L 88.861081 -24.0905 
L 88.626486 -24.0905 
L 88.391892 -24.0905 
L 88.157297 -24.0905 
L 87.922703 -24.0905 
L 87.688108 -24.0905 
L 87.453514 -24.0905 
L 87.218919 -24.0905 
L 86.984324 -24.0905 
L 86.74973 -24.0905 
L 86.515135 -24.0905 
L 86.280541 -24.0905 
L 86.045946 -24.0905 
L 85.811351 -24.0905 
L 85.576757 -24.0905 
L 85.342162 -24.0905 
L 85.107568 -24.0905 
L 84.872973 -24.0905 
L 84.638378 -24.0905 
L 84.403784 -24.0905 
L 84.169189 -24.0905 
L 83.934595 -24.0905 
L 83.7 -24.0905 
L 83.465405 -24.0905 
L 83.230811 -24.0905 
L 82.996216 -24.0905 
L 82.761622 -24.0905 
L 82.527027 -24.0905 
L 82.292432 -24.0905 
L 82.057838 -24.0905 
L 81.823243 -24.0905 
L 81.588649 -24.0905 
L 81.354054 -24.0905 
L 81.119459 -24.0905 
L 80.884865 -24.0905 
L 80.65027 -24.0905 
L 80.415676 -24.0905 
L 80.181081 -24.0905 
L 79.946486 -24.0905 
L 79.711892 -24.0905 
L 79.477297 -24.0905 
L 79.242703 -24.0905 
L 79.008108 -24.0905 
L 78.773514 -24.0905 
L 78.538919 -24.0905 
L 78.304324 -24.0905 
L 78.06973 -24.0905 
L 77.835135 -24.0905 
L 77.600541 -24.0905 
L 77.365946 -24.0905 
L 77.131351 -24.0905 
L 76.896757 -24.0905 
L 76.662162 -24.0905 
L 76.427568 -24.0905 
L 76.192973 -24.0905 
L 75.958378 -24.0905 
L 75.723784 -24.0905 
L 75.489189 -24.0905 
L 75.254595 -24.0905 
L 75.02 -24.0905 
L 74.785405 -24.0905 
L 74.550811 -24.0905 
L 74.316216 -24.0905 
L 74.081622 -24.0905 
L 73.847027 -24.0905 
L 73.612432 -24.0905 
L 73.377838 -24.0905 
L 73.143243 -24.0905 
L 72.908649 -24.0905 
L 72.674054 -24.0905 
L 72.439459 -24.0905 
L 72.204865 -24.0905 
L 71.97027 -24.0905 
L 71.735676 -24.0905 
L 71.501081 -24.0905 
L 71.266486 -24.0905 
L 71.031892 -24.0905 
L 70.797297 -24.0905 
L 70.562703 -24.0905 
L 70.328108 -24.0905 
L 70.093514 -24.0905 
L 69.858919 -24.0905 
L 69.624324 -24.0905 
L 69.38973 -24.0905 
L 69.155135 -24.0905 
L 68.920541 -24.0905 
L 68.685946 -24.0905 
L 68.451351 -24.0905 
L 68.216757 -24.0905 
L 67.982162 -24.0905 
L 67.747568 -24.0905 
L 67.512973 -24.0905 
L 67.278378 -24.0905 
L 67.043784 -24.0905 
L 66.809189 -24.0905 
L 66.574595 -24.0905 
L 66.34 -24.0905 
L 66.105405 -24.0905 
L 65.870811 -24.0905 
L 65.636216 -24.0905 
L 65.401622 -24.0905 
L 65.167027 -24.0905 
L 64.932432 -24.0905 
L 64.697838 -24.0905 
L 64.463243 -24.0905 
L 64.228649 -24.0905 
L 63.994054 -24.0905 
L 63.759459 -24.0905 
L 63.524865 -24.0905 
L 63.29027 -24.0905 
L 63.055676 -24.0905 
L 62.821081 -24.0905 
L 62.586486 -24.0905 
L 62.351892 -24.0905 
L 62.117297 -24.0905 
L 61.882703 -24.0905 
L 61.648108 -24.0905 
L 61.413514 -24.0905 
L 61.178919 -24.0905 
L 60.944324 -24.0905 
L 60.70973 -24.0905 
L 60.475135 -24.0905 
L 60.240541 -24.0905 
L 60.005946 -24.0905 
L 59.771351 -24.0905 
L 59.536757 -24.0905 
L 59.302162 -24.0905 
L 59.067568 -24.0905 
L 58.832973 -24.0905 
L 58.598378 -24.0905 
L 58.363784 -24.0905 
L 58.129189 -24.0905 
L 57.894595 -24.0905 
L 57.66 -24.0905 
L 57.425405 -24.0905 
L 57.190811 -24.0905 
L 56.956216 -24.0905 
L 56.721622 -24.0905 
L 56.487027 -24.0905 
L 56.252432 -24.0905 
L 56.017838 -24.0905 
L 55.783243 -24.0905 
L 55.548649 -24.0905 
L 55.314054 -24.0905 
L 55.079459 -24.0905 
L 54.844865 -24.0905 
L 54.61027 -24.0905 
L 54.375676 -24.0905 
L 54.141081 -24.0905 
L 53.906486 -24.0905 
L 53.671892 -24.0905 
L 53.437297 -24.0905 
L 53.202703 -24.0905 
L 52.968108 -24.0905 
L 52.733514 -24.0905 
L 52.498919 -24.0905 
L 52.264324 -24.0905 
L 52.02973 -24.0905 
L 51.795135 -24.0905 
L 51.560541 -24.0905 
L 51.325946 -24.0905 
L 51.091351 -24.0905 
L 50.856757 -24.0905 
L 50.622162 -24.0905 
L 50.387568 -24.0905 
L 50.152973 -24.0905 
L 49.918378 -24.0905 
L 49.683784 -24.0905 
L 49.449189 -24.0905 
L 49.214595 -24.0905 
L 48.98 -24.0905 
L 48.745405 -24.0905 
L 48.510811 -24.0905 
L 48.276216 -24.0905 
L 48.041622 -24.0905 
L 47.807027 -24.0905 
L 47.572432 -24.0905 
L 47.337838 -24.0905 
L 47.103243 -24.0905 
L 46.868649 -24.0905 
L 46.634054 -24.0905 
L 46.399459 -24.0905 
L 46.164865 -24.0905 
L 45.93027 -24.0905 
L 45.695676 -24.0905 
L 45.461081 -24.0905 
L 45.226486 -24.0905 
L 44.991892 -24.0905 
L 44.757297 -24.0905 
L 44.522703 -24.0905 
L 44.288108 -24.0905 
L 44.053514 -24.0905 
L 43.818919 -24.0905 
L 43.584324 -24.0905 
L 43.34973 -24.0905 
L 43.115135 -24.0905 
L 42.880541 -24.0905 
L 42.645946 -24.0905 
L 42.411351 -24.0905 
L 42.176757 -24.0905 
L 41.942162 -24.0905 
L 41.707568 -24.0905 
L 41.472973 -24.0905 
L 41.238378 -24.0905 
L 41.003784 -24.0905 
L 40.769189 -24.0905 
L 40.534595 -24.0905 
L 40.3 -24.0905 
L 40.065405 -24.0905 
L 39.830811 -24.0905 
L 39.596216 -24.0905 
L 39.361622 -24.0905 
L 39.127027 -24.0905 
L 38.892432 -24.0905 
L 38.657838 -24.0905 
L 38.423243 -24.0905 
L 38.188649 -24.0905 
L 37.954054 -24.0905 
L 37.719459 -24.0905 
L 37.484865 -24.0905 
L 37.25027 -24.0905 
L 37.015676 -24.0905 
L 36.781081 -24.0905 
L 36.546486 -24.0905 
L 36.311892 -24.0905 
L 36.077297 -24.0905 
L 35.842703 -24.0905 
L 35.608108 -24.0905 
L 35.373514 -24.0905 
L 35.138919 -24.0905 
L 34.904324 -24.0905 
L 34.66973 -24.0905 
L 34.435135 -24.0905 
L 34.200541 -24.0905 
L 33.965946 -24.0905 
L 33.731351 -24.0905 
L 33.496757 -24.0905 
L 33.262162 -24.0905 
L 33.027568 -24.0905 
L 32.792973 -24.0905 
L 32.558378 -24.0905 
L 32.323784 -24.0905 
L 32.089189 -24.0905 
L 31.854595 -24.0905 
L 31.62 -24.0905 
z
" style="stroke: #e65100; stroke-opacity: 0.18"/>
    </defs>
    <g clip-path="url(#p349dc1a0cd)">
     <use xlink:href="#madfd2ef033" x="0" y="170.2865" style="fill: #e65100; fill-opacity: 0.18; stroke: #e65100; stroke-opacity: 0.18"/>
    </g>
   </g>
   <g id="matplotlib.axis_1">
    <g id="text_1">
     <!-- Time -->
     <g style="fill: #44546a" transform="translate(139.013125 161.42275) scale(0.08 -0.08)">
      <defs>
       <path id="DejaVuSans-54" d="M -19 4666 
L 3928 4666 
L 3928 4134 
L 2272 4134 
L 2272 0 
L 1638 0 
L 1638 4134 
L -19 4134 
L -19 4666 
z
" transform="scale(0.015625)"/>
       <path id="DejaVuSans-69" d="M 603 3500 
L 1178 3500 
L 1178 0 
L 603 0 
L 603 3500 
z
M 603 4863 
L 1178 4863 
L 1178 4134 
L 603 4134 
L 603 4863 
z
" transform="scale(0.015625)"/>
       <path id="DejaVuSans-6d" d="M 3328 2828 
Q 3544 3216 3844 3400 
Q 4144 3584 4550 3584 
Q 5097 3584 5394 3201 
Q 5691 2819 5691 2113 
L 5691 0 
L 5113 0 
L 5113 2094 
Q 5113 2597 4934 2840 
Q 4756 3084 4391 3084 
Q 3944 3084 3684 2787 
Q 3425 2491 3425 1978 
L 3425 0 
L 2847 0 
L 2847 2094 
Q 2847 2600 2669 2842 
Q 2491 3084 2119 3084 
Q 1678 3084 1418 2786 
Q 1159 2488 1159 1978 
L 1159 0 
L 581 0 
L 581 3500 
L 1159 3500 
L 1159 2956 
Q 1356 3278 1631 3431 
Q 1906 3584 2284 3584 
Q 2666 3584 2933 3390 
Q 3200 3197 3328 2828 
z
" transform="scale(0.015625)"/>
       <path id="DejaVuSans-65" d="M 3597 1894 
L 3597 1613 
L 953 1613 
Q 991 1019 1311 708 
Q 1631 397 2203 397 
Q 2534 397 2845 478 
Q 3156 559 3463 722 
L 3463 178 
Q 3153 47 2828 -22 
Q 2503 -91 2169 -91 
Q 1331 -91 842 396 
Q 353 884 353 1716 
Q 353 2575 817 3079 
Q 1281 3584 2069 3584 
Q 2775 3584 3186 3129 
Q 3597 2675 3597 1894 
z
M 3022 2063 
Q 3016 2534 2758 2815 
Q 2500 3097 2075 3097 
Q 1594 3097 1305 2825 
Q 1016 2553 972 2059 
L 3022 2063 
z
" transform="scale(0.015625)"/>
      </defs>
      <use xlink:href="#DejaVuSans-54"/>
      <use xlink:href="#DejaVuSans-69" transform="translate(57.958984 0)"/>
      <use xlink:href="#DejaVuSans-6d" transform="translate(85.742188 0)"/>
      <use xlink:href="#DejaVuSans-65" transform="translate(183.154297 0)"/>
     </g>
    </g>
   </g>
   <g id="matplotlib.axis_2">
    <g id="ytick_1">
     <g id="line2d_1">
      <defs>
       <path id="m81051b2874" d="M 0 0 
L -3 0 
" style="stroke: #e65100; stroke-width: 0.8"/>
      </defs>
      <g>
       <use xlink:href="#m81051b2874" x="31.62" y="146.196" style="fill: #e65100; stroke: #e65100; stroke-width: 0.8"/>
      </g>
     </g>
     <g id="text_2">
      <!-- 0 -->
      <g style="fill: #e65100" transform="translate(20.03 149.235375) scale(0.08 -0.08)">
       <defs>
        <path id="DejaVuSans-30" d="M 2034 4250 
Q 1547 4250 1301 3770 
Q 1056 3291 1056 2328 
Q 1056 1369 1301 889 
Q 1547 409 2034 409 
Q 2525 409 2770 889 
Q 3016 1369 3016 2328 
Q 3016 3291 2770 3770 
Q 2525 4250 2034 4250 
z
M 2034 4750 
Q 2819 4750 3233 4129 
Q 3647 3509 3647 2328 
Q 3647 1150 3233 529 
Q 2819 -91 2034 -91 
Q 1250 -91 836 529 
Q 422 1150 422 2328 
Q 422 3509 836 4129 
Q 1250 4750 2034 4750 
z
" transform="scale(0.015625)"/>
       </defs>
       <use xlink:href="#DejaVuSans-30"/>
      </g>
     </g>
    </g>
    <g id="ytick_2">
     <g id="line2d_2">
      <g>
       <use xlink:href="#m81051b2874" x="31.62" y="43.236" style="fill: #e65100; stroke: #e65100; stroke-width: 0.8"/>
      </g>
     </g>
     <g id="text_3">
      <!-- $I_0$ -->
      <g style="fill: #e65100" transform="translate(18.96 46.275375) scale(0.08 -0.08)">
       <defs>
        <path id="DejaVuSans-Oblique-49" d="M 1081 4666 
L 1716 4666 
L 806 0 
L 172 0 
L 1081 4666 
z
" transform="scale(0.015625)"/>
       </defs>
       <use xlink:href="#DejaVuSans-Oblique-49" transform="translate(0 0.09375)"/>
       <use xlink:href="#DejaVuSans-30" transform="translate(29.492188 -16.3125) scale(0.7)"/>
      </g>
     </g>
    </g>
    <g id="text_4">
     <!-- Intensity  $I(t)$ -->
     <g style="fill: #e65100" transform="translate(13.28 105.112) rotate(-90) scale(0.08 -0.08)">
      <defs>
       <path id="DejaVuSans-49" d="M 628 4666 
L 1259 4666 
L 1259 0 
L 628 0 
L 628 4666 
z
" transform="scale(0.015625)"/>
       <path id="DejaVuSans-6e" d="M 3513 2113 
L 3513 0 
L 2938 0 
L 2938 2094 
Q 2938 2591 2744 2837 
Q 2550 3084 2163 3084 
Q 1697 3084 1428 2787 
Q 1159 2491 1159 1978 
L 1159 0 
L 581 0 
L 581 3500 
L 1159 3500 
L 1159 2956 
Q 1366 3272 1645 3428 
Q 1925 3584 2291 3584 
Q 2894 3584 3203 3211 
Q 3513 2838 3513 2113 
z
" transform="scale(0.015625)"/>
       <path id="DejaVuSans-74" d="M 1172 4494 
L 1172 3500 
L 2356 3500 
L 2356 3053 
L 1172 3053 
L 1172 1153 
Q 1172 725 1289 603 
Q 1406 481 1766 481 
L 2356 481 
L 2356 0 
L 1766 0 
Q 1100 0 847 248 
Q 594 497 594 1153 
L 594 3053 
L 172 3053 
L 172 3500 
L 594 3500 
L 594 4494 
L 1172 4494 
z
" transform="scale(0.015625)"/>
       <path id="DejaVuSans-73" d="M 2834 3397 
L 2834 2853 
Q 2591 2978 2328 3040 
Q 2066 3103 1784 3103 
Q 1356 3103 1142 2972 
Q 928 2841 928 2578 
Q 928 2378 1081 2264 
Q 1234 2150 1697 2047 
L 1894 2003 
Q 2506 1872 2764 1633 
Q 3022 1394 3022 966 
Q 3022 478 2636 193 
Q 2250 -91 1575 -91 
Q 1294 -91 989 -36 
Q 684 19 347 128 
L 347 722 
Q 666 556 975 473 
Q 1284 391 1588 391 
Q 1994 391 2212 530 
Q 2431 669 2431 922 
Q 2431 1156 2273 1281 
Q 2116 1406 1581 1522 
L 1381 1569 
Q 847 1681 609 1914 
Q 372 2147 372 2553 
Q 372 3047 722 3315 
Q 1072 3584 1716 3584 
Q 2034 3584 2315 3537 
Q 2597 3491 2834 3397 
z
" transform="scale(0.015625)"/>
       <path id="DejaVuSans-79" d="M 2059 -325 
Q 1816 -950 1584 -1140 
Q 1353 -1331 966 -1331 
L 506 -1331 
L 506 -850 
L 844 -850 
Q 1081 -850 1212 -737 
Q 1344 -625 1503 -206 
L 1606 56 
L 191 3500 
L 800 3500 
L 1894 763 
L 2988 3500 
L 3597 3500 
L 2059 -325 
z
" transform="scale(0.015625)"/>
       <path id="DejaVuSans-20" transform="scale(0.015625)"/>
       <path id="DejaVuSans-28" d="M 1984 4856 
Q 1566 4138 1362 3434 
Q 1159 2731 1159 2009 
Q 1159 1288 1364 580 
Q 1569 -128 1984 -844 
L 1484 -844 
Q 1016 -109 783 600 
Q 550 1309 550 2009 
Q 550 2706 781 3412 
Q 1013 4119 1484 4856 
L 1984 4856 
z
" transform="scale(0.015625)"/>
       <path id="DejaVuSans-Oblique-74" d="M 2706 3500 
L 2619 3053 
L 1472 3053 
L 1100 1153 
Q 1081 1047 1072 975 
Q 1063 903 1063 863 
Q 1063 663 1183 572 
Q 1303 481 1569 481 
L 2150 481 
L 2053 0 
L 1503 0 
Q 991 0 739 200 
Q 488 400 488 806 
Q 488 878 497 964 
Q 506 1050 525 1153 
L 897 3053 
L 409 3053 
L 500 3500 
L 978 3500 
L 1172 4494 
L 1747 4494 
L 1556 3500 
L 2706 3500 
z
" transform="scale(0.015625)"/>
       <path id="DejaVuSans-29" d="M 513 4856 
L 1013 4856 
Q 1481 4119 1714 3412 
Q 1947 2706 1947 2009 
Q 1947 1309 1714 600 
Q 1481 -109 1013 -844 
L 513 -844 
Q 928 -128 1133 580 
Q 1338 1288 1338 2009 
Q 1338 2731 1133 3434 
Q 928 4138 513 4856 
z
" transform="scale(0.015625)"/>
      </defs>
      <use xlink:href="#DejaVuSans-49" transform="translate(0 0.015625)"/>
      <use xlink:href="#DejaVuSans-6e" transform="translate(29.492188 0.015625)"/>
      <use xlink:href="#DejaVuSans-74" transform="translate(92.871094 0.015625)"/>
      <use xlink:href="#DejaVuSans-65" transform="translate(132.080078 0.015625)"/>
      <use xlink:href="#DejaVuSans-6e" transform="translate(193.603516 0.015625)"/>
      <use xlink:href="#DejaVuSans-73" transform="translate(256.982422 0.015625)"/>
      <use xlink:href="#DejaVuSans-69" transform="translate(309.082031 0.015625)"/>
      <use xlink:href="#DejaVuSans-74" transform="translate(336.865234 0.015625)"/>
      <use xlink:href="#DejaVuSans-79" transform="translate(376.074219 0.015625)"/>
      <use xlink:href="#DejaVuSans-20" transform="translate(435.253906 0.015625)"/>
      <use xlink:href="#DejaVuSans-20" transform="translate(467.041016 0.015625)"/>
      <use xlink:href="#DejaVuSans-Oblique-49" transform="translate(498.828125 0.015625)"/>
      <use xlink:href="#DejaVuSans-28" transform="translate(528.320312 0.015625)"/>
      <use xlink:href="#DejaVuSans-Oblique-74" transform="translate(567.333984 0.015625)"/>
      <use xlink:href="#DejaVuSans-29" transform="translate(606.542969 0.015625)"/>
     </g>
    </g>
   </g>
   <g id="line2d_3">
    <path d="M 31.62 146.178226 
L 48.041622 146.025959 
L 56.017838 145.745605 
L 61.648108 145.342475 
L 66.34 144.785747 
L 70.093514 144.130266 
L 73.612432 143.28878 
L 76.662162 142.335848 
L 79.477297 141.233103 
L 82.057838 140.002214 
L 84.638378 138.530732 
L 87.218919 136.789052 
L 89.564865 134.946863 
L 91.910811 132.837018 
L 94.256757 130.441261 
L 96.602703 127.744457 
L 99.183243 124.417273 
L 101.763784 120.705256 
L 104.344324 116.610236 
L 107.159459 111.721152 
L 110.209189 105.965506 
L 113.728108 98.816559 
L 118.185405 89.202635 
L 128.038378 67.754607 
L 131.088108 61.726608 
L 133.668649 57.086274 
L 136.014595 53.326679 
L 138.125946 50.378298 
L 140.002703 48.143208 
L 141.644865 46.50893 
L 143.287027 45.191739 
L 144.694595 44.325185 
L 146.102162 43.707772 
L 147.50973 43.344101 
L 148.917297 43.236894 
L 150.324865 43.386953 
L 151.732432 43.793154 
L 153.14 44.452461 
L 154.547568 45.359962 
L 155.955135 46.50893 
L 157.597297 48.143208 
L 159.239459 50.07836 
L 161.116216 52.633947 
L 163.227568 55.908845 
L 165.573514 59.984068 
L 168.154054 64.90938 
L 171.438378 71.684303 
L 176.364865 82.450794 
L 183.637297 98.323703 
L 187.390811 105.965506 
L 190.675135 112.144732 
L 193.49027 116.998091 
L 196.305405 121.408844 
L 198.885946 125.050737 
L 201.466486 128.308498 
L 204.047027 131.19098 
L 206.627568 133.714302 
L 209.208108 135.900178 
L 211.788649 137.774323 
L 214.369189 139.364966 
L 216.94973 140.701547 
L 219.764865 141.904556 
L 222.814595 142.949335 
L 226.098919 143.82326 
L 229.617838 144.525776 
L 233.605946 145.095057 
L 238.297838 145.53887 
L 244.162703 145.864455 
L 252.373514 146.077718 
L 265.98 146.178226 
L 265.98 146.178226 
" clip-path="url(#p349dc1a0cd)" style="fill: none; stroke: #e65100; stroke-width: 2.2; stroke-linecap: square"/>
   </g>
   <g id="patch_3">
    <path d="M 31.62 151.344 
L 31.62 7.2 
" style="fill: none; stroke: #e65100; stroke-width: 0.8; stroke-linejoin: miter; stroke-linecap: square"/>
   </g>
   <g id="patch_4">
    <path d="M 31.62 151.344 
L 265.98 151.344 
" style="fill: none; stroke: #cccccc; stroke-width: 0.8; stroke-linejoin: miter; stroke-linecap: square"/>
   </g>
   <g id="text_5">
    <g id="patch_5">
     <path d="M 114.9275 23.1348 
L 182.6725 23.1348 
Q 185.2225 23.1348 185.2225 20.5848 
L 185.2225 7.8348 
Q 185.2225 5.2848 182.6725 5.2848 
L 114.9275 5.2848 
Q 112.3775 5.2848 112.3775 7.8348 
L 112.3775 20.5848 
Q 112.3775 23.1348 114.9275 23.1348 
z
" style="fill: #ffffff; stroke: #cccccc; stroke-width: 0.7; stroke-linejoin: miter"/>
    </g>
    <!-- $\delta\omega(t) = -\frac{n_2\,\omega_0\,L}{c}\frac{dI}{dt}$ -->
    <g style="fill: #44546a" transform="translate(114.9275 17.0148) scale(0.085 -0.085)">
     <defs>
      <path id="DejaVuSans-Oblique-3b4" d="M 3472 4053 
Q 3197 4272 2450 4272 
Q 1659 4272 1588 3906 
Q 1531 3619 2328 3469 
Q 2953 3353 3253 3003 
Q 3616 2581 3447 1716 
Q 3284 888 2763 400 
Q 2238 -91 1488 -91 
Q 741 -91 406 400 
Q 72 888 241 1747 
Q 363 2384 891 2900 
Q 1097 3100 1353 3213 
Q 913 3459 1000 3900 
Q 1166 4750 2544 4750 
Q 3234 4750 3566 4531 
L 3472 4053 
z
M 1753 3056 
Q 1525 2966 1306 2738 
Q 969 2384 847 1747 
Q 722 1113 919 756 
Q 1119 397 1584 397 
Q 2044 397 2381 759 
Q 2722 1122 2838 1716 
Q 2956 2338 2731 2638 
Q 2491 2959 2103 2994 
Q 1906 3013 1753 3056 
z
" transform="scale(0.015625)"/>
      <path id="DejaVuSans-Oblique-3c9" d="M 1369 -91 
Q 72 -91 434 1766 
Q 575 2500 1256 3500 
L 1875 3500 
Q 1231 2500 1088 1750 
Q 819 397 1519 397 
Q 2166 397 2478 2078 
L 3009 2078 
Q 2669 388 3316 397 
Q 4013 403 4275 1750 
Q 4419 2500 4169 3500 
L 4788 3500 
Q 5075 2500 4934 1766 
Q 4578 -94 3278 -91 
Q 2428 -88 2503 844 
Q 2194 -91 1369 -91 
z
" transform="scale(0.015625)"/>
      <path id="DejaVuSans-3d" d="M 678 2906 
L 4684 2906 
L 4684 2381 
L 678 2381 
L 678 2906 
z
M 678 1631 
L 4684 1631 
L 4684 1100 
L 678 1100 
L 678 1631 
z
" transform="scale(0.015625)"/>
      <path id="DejaVuSans-2212" d="M 678 2272 
L 4684 2272 
L 4684 1741 
L 678 1741 
L 678 2272 
z
" transform="scale(0.015625)"/>
      <path id="DejaVuSans-Oblique-6e" d="M 3566 2113 
L 3156 0 
L 2578 0 
L 2988 2091 
Q 3016 2238 3031 2350 
Q 3047 2463 3047 2528 
Q 3047 2791 2881 2937 
Q 2716 3084 2419 3084 
Q 1956 3084 1622 2776 
Q 1288 2469 1184 1941 
L 800 0 
L 225 0 
L 903 3500 
L 1478 3500 
L 1363 2950 
Q 1603 3253 1940 3418 
Q 2278 3584 2650 3584 
Q 3113 3584 3367 3334 
Q 3622 3084 3622 2631 
Q 3622 2519 3608 2391 
Q 3594 2263 3566 2113 
z
" transform="scale(0.015625)"/>
      <path id="DejaVuSans-32" d="M 1228 531 
L 3431 531 
L 3431 0 
L 469 0 
L 469 531 
Q 828 903 1448 1529 
Q 2069 2156 2228 2338 
Q 2531 2678 2651 2914 
Q 2772 3150 2772 3378 
Q 2772 3750 2511 3984 
Q 2250 4219 1831 4219 
Q 1534 4219 1204 4116 
Q 875 4013 500 3803 
L 500 4441 
Q 881 4594 1212 4672 
Q 1544 4750 1819 4750 
Q 2544 4750 2975 4387 
Q 3406 4025 3406 3419 
Q 3406 3131 3298 2873 
Q 3191 2616 2906 2266 
Q 2828 2175 2409 1742 
Q 1991 1309 1228 531 
z
" transform="scale(0.015625)"/>
      <path id="DejaVuSans-Oblique-4c" d="M 1075 4666 
L 1709 4666 
L 909 525 
L 3181 525 
L 3078 0 
L 172 0 
L 1075 4666 
z
" transform="scale(0.015625)"/>
      <path id="DejaVuSans-Oblique-63" d="M 3431 3366 
L 3316 2797 
Q 3109 2947 2876 3022 
Q 2644 3097 2394 3097 
Q 2119 3097 1870 3000 
Q 1622 2903 1453 2725 
Q 1184 2453 1037 2087 
Q 891 1722 891 1331 
Q 891 859 1127 628 
Q 1363 397 1844 397 
Q 2081 397 2348 469 
Q 2616 541 2906 684 
L 2797 116 
Q 2547 13 2283 -39 
Q 2019 -91 1741 -91 
Q 1044 -91 669 257 
Q 294 606 294 1253 
Q 294 1797 489 2255 
Q 684 2713 1069 3078 
Q 1331 3328 1684 3456 
Q 2038 3584 2456 3584 
Q 2700 3584 2940 3529 
Q 3181 3475 3431 3366 
z
" transform="scale(0.015625)"/>
      <path id="DejaVuSans-Oblique-64" d="M 2675 525 
Q 2444 222 2128 65 
Q 1813 -91 1428 -91 
Q 903 -91 598 267 
Q 294 625 294 1247 
Q 294 1766 478 2236 
Q 663 2706 1013 3078 
Q 1244 3325 1534 3454 
Q 1825 3584 2144 3584 
Q 2481 3584 2739 3421 
Q 2997 3259 3138 2956 
L 3513 4863 
L 4091 4863 
L 3144 0 
L 2566 0 
L 2675 525 
z
M 891 1350 
Q 891 897 1095 644 
Q 1300 391 1663 391 
Q 1931 391 2161 520 
Q 2391 650 2566 903 
Q 2750 1166 2856 1509 
Q 2963 1853 2963 2188 
Q 2963 2622 2758 2865 
Q 2553 3109 2194 3109 
Q 1922 3109 1687 2981 
Q 1453 2853 1288 2613 
Q 1106 2353 998 2009 
Q 891 1666 891 1350 
z
" transform="scale(0.015625)"/>
     </defs>
     <use xlink:href="#DejaVuSans-Oblique-3b4" transform="translate(0 0.987656)"/>
     <use xlink:href="#DejaVuSans-Oblique-3c9" transform="translate(61.181641 0.987656)"/>
     <use xlink:href="#DejaVuSans-28" transform="translate(144.921875 0.987656)"/>
     <use xlink:href="#DejaVuSans-Oblique-74" transform="translate(183.935547 0.987656)"/>
     <use xlink:href="#DejaVuSans-29" transform="translate(223.144531 0.987656)"/>
     <use xlink:href="#DejaVuSans-3d" transform="translate(281.640625 0.987656)"/>
     <use xlink:href="#DejaVuSans-2212" transform="translate(384.912109 0.987656)"/>
     <use xlink:href="#DejaVuSans-Oblique-6e" transform="translate(468.701172 56.965625) scale(0.7)"/>
     <use xlink:href="#DejaVuSans-32" transform="translate(513.066406 45.48125) scale(0.49)"/>
     <use xlink:href="#DejaVuSans-Oblique-3c9" transform="translate(557.520735 56.965625) scale(0.7)"/>
     <use xlink:href="#DejaVuSans-30" transform="translate(616.138899 45.48125) scale(0.49)"/>
     <use xlink:href="#DejaVuSans-Oblique-4c" transform="translate(660.593228 56.965625) scale(0.7)"/>
     <use xlink:href="#DejaVuSans-Oblique-63" transform="translate(564.701172 -25.665469) scale(0.7)"/>
     <use xlink:href="#DejaVuSans-Oblique-64" transform="translate(715.092251 45.779844) scale(0.7)"/>
     <use xlink:href="#DejaVuSans-Oblique-49" transform="translate(759.525845 45.779844) scale(0.7)"/>
     <use xlink:href="#DejaVuSans-Oblique-64" transform="translate(712.092251 -39.654531) scale(0.7)"/>
     <use xlink:href="#DejaVuSans-Oblique-74" transform="translate(756.525845 -39.654531) scale(0.7)"/>
     <path d="M 468.701172 19.784531 
L 468.701172 26.034531 
L 699.592251 26.034531 
L 699.592251 19.784531 
L 468.701172 19.784531 
z
"/>
     <path d="M 712.092251 19.784531 
L 712.092251 26.034531 
L 783.972134 26.034531 
L 783.972134 19.784531 
L 712.092251 19.784531 
z
"/>
    </g>
   </g>
  </g>
  <g id="axes_2">
   <g id="matplotlib.axis_3">
    <g id="ytick_3">
     <g id="line2d_4">
      <defs>
       <path id="m23071a2a45" d="M 0 0 
L 3 0 
" style="stroke: #1565c0; stroke-width: 0.8"/>
      </defs>
      <g>
       <use xlink:href="#m23071a2a45" x="265.98" y="127.32" style="fill: #1565c0; stroke: #1565c0; stroke-width: 0.8"/>
      </g>
     </g>
     <g id="text_6">
      <!-- blue -->
      <g style="fill: #1565c0" transform="translate(272.48 130.169414) scale(0.075 -0.075)">
       <defs>
        <path id="DejaVuSans-62" d="M 3116 1747 
Q 3116 2381 2855 2742 
Q 2594 3103 2138 3103 
Q 1681 3103 1420 2742 
Q 1159 2381 1159 1747 
Q 1159 1113 1420 752 
Q 1681 391 2138 391 
Q 2594 391 2855 752 
Q 3116 1113 3116 1747 
z
M 1159 2969 
Q 1341 3281 1617 3432 
Q 1894 3584 2278 3584 
Q 2916 3584 3314 3078 
Q 3713 2572 3713 1747 
Q 3713 922 3314 415 
Q 2916 -91 2278 -91 
Q 1894 -91 1617 61 
Q 1341 213 1159 525 
L 1159 0 
L 581 0 
L 581 4863 
L 1159 4863 
L 1159 2969 
z
" transform="scale(0.015625)"/>
        <path id="DejaVuSans-6c" d="M 603 4863 
L 1178 4863 
L 1178 0 
L 603 0 
L 603 4863 
z
" transform="scale(0.015625)"/>
        <path id="DejaVuSans-75" d="M 544 1381 
L 544 3500 
L 1119 3500 
L 1119 1403 
Q 1119 906 1312 657 
Q 1506 409 1894 409 
Q 2359 409 2629 706 
Q 2900 1003 2900 1516 
L 2900 3500 
L 3475 3500 
L 3475 0 
L 2900 0 
L 2900 538 
Q 2691 219 2414 64 
Q 2138 -91 1772 -91 
Q 1169 -91 856 284 
Q 544 659 544 1381 
z
M 1991 3584 
L 1991 3584 
z
" transform="scale(0.015625)"/>
       </defs>
       <use xlink:href="#DejaVuSans-62"/>
       <use xlink:href="#DejaVuSans-6c" transform="translate(63.476562 0)"/>
       <use xlink:href="#DejaVuSans-75" transform="translate(91.259766 0)"/>
       <use xlink:href="#DejaVuSans-65" transform="translate(154.638672 0)"/>
      </g>
     </g>
    </g>
    <g id="ytick_4">
     <g id="line2d_5">
      <g>
       <use xlink:href="#m23071a2a45" x="265.98" y="79.272" style="fill: #1565c0; stroke: #1565c0; stroke-width: 0.8"/>
      </g>
     </g>
     <g id="text_7">
      <!-- 0 -->
      <g style="fill: #1565c0" transform="translate(272.48 82.121414) scale(0.075 -0.075)">
       <use xlink:href="#DejaVuSans-30"/>
      </g>
     </g>
    </g>
    <g id="ytick_5">
     <g id="line2d_6">
      <g>
       <use xlink:href="#m23071a2a45" x="265.98" y="31.224" style="fill: #1565c0; stroke: #1565c0; stroke-width: 0.8"/>
      </g>
     </g>
     <g id="text_8">
      <!-- red -->
      <g style="fill: #1565c0" transform="translate(272.48 34.073414) scale(0.075 -0.075)">
       <defs>
        <path id="DejaVuSans-72" d="M 2631 2963 
Q 2534 3019 2420 3045 
Q 2306 3072 2169 3072 
Q 1681 3072 1420 2755 
Q 1159 2438 1159 1844 
L 1159 0 
L 581 0 
L 581 3500 
L 1159 3500 
L 1159 2956 
Q 1341 3275 1631 3429 
Q 1922 3584 2338 3584 
Q 2397 3584 2469 3576 
Q 2541 3569 2628 3553 
L 2631 2963 
z
" transform="scale(0.015625)"/>
        <path id="DejaVuSans-64" d="M 2906 2969 
L 2906 4863 
L 3481 4863 
L 3481 0 
L 2906 0 
L 2906 525 
Q 2725 213 2448 61 
Q 2172 -91 1784 -91 
Q 1150 -91 751 415 
Q 353 922 353 1747 
Q 353 2572 751 3078 
Q 1150 3584 1784 3584 
Q 2172 3584 2448 3432 
Q 2725 3281 2906 2969 
z
M 947 1747 
Q 947 1113 1208 752 
Q 1469 391 1925 391 
Q 2381 391 2643 752 
Q 2906 1113 2906 1747 
Q 2906 2381 2643 2742 
Q 2381 3103 1925 3103 
Q 1469 3103 1208 2742 
Q 947 2381 947 1747 
z
" transform="scale(0.015625)"/>
       </defs>
       <use xlink:href="#DejaVuSans-72"/>
       <use xlink:href="#DejaVuSans-65" transform="translate(38.863281 0)"/>
       <use xlink:href="#DejaVuSans-64" transform="translate(100.386719 0)"/>
      </g>
     </g>
    </g>
    <g id="text_9">
     <!-- Freq. shift  $\delta\omega(t)$ -->
     <g style="fill: #1565c0" transform="translate(298.772891 112.512) rotate(-90) scale(0.08 -0.08)">
      <defs>
       <path id="DejaVuSans-46" d="M 628 4666 
L 3309 4666 
L 3309 4134 
L 1259 4134 
L 1259 2759 
L 3109 2759 
L 3109 2228 
L 1259 2228 
L 1259 0 
L 628 0 
L 628 4666 
z
" transform="scale(0.015625)"/>
       <path id="DejaVuSans-71" d="M 947 1747 
Q 947 1113 1208 752 
Q 1469 391 1925 391 
Q 2381 391 2643 752 
Q 2906 1113 2906 1747 
Q 2906 2381 2643 2742 
Q 2381 3103 1925 3103 
Q 1469 3103 1208 2742 
Q 947 2381 947 1747 
z
M 2906 525 
Q 2725 213 2448 61 
Q 2172 -91 1784 -91 
Q 1150 -91 751 415 
Q 353 922 353 1747 
Q 353 2572 751 3078 
Q 1150 3584 1784 3584 
Q 2172 3584 2448 3432 
Q 2725 3281 2906 2969 
L 2906 3500 
L 3481 3500 
L 3481 -1331 
L 2906 -1331 
L 2906 525 
z
" transform="scale(0.015625)"/>
       <path id="DejaVuSans-2e" d="M 684 794 
L 1344 794 
L 1344 0 
L 684 0 
L 684 794 
z
" transform="scale(0.015625)"/>
       <path id="DejaVuSans-68" d="M 3513 2113 
L 3513 0 
L 2938 0 
L 2938 2094 
Q 2938 2591 2744 2837 
Q 2550 3084 2163 3084 
Q 1697 3084 1428 2787 
Q 1159 2491 1159 1978 
L 1159 0 
L 581 0 
L 581 4863 
L 1159 4863 
L 1159 2956 
Q 1366 3272 1645 3428 
Q 1925 3584 2291 3584 
Q 2894 3584 3203 3211 
Q 3513 2838 3513 2113 
z
" transform="scale(0.015625)"/>
       <path id="DejaVuSans-66" d="M 2375 4863 
L 2375 4384 
L 1825 4384 
Q 1516 4384 1395 4259 
Q 1275 4134 1275 3809 
L 1275 3500 
L 2222 3500 
L 2222 3053 
L 1275 3053 
L 1275 0 
L 697 0 
L 697 3053 
L 147 3053 
L 147 3500 
L 697 3500 
L 697 3744 
Q 697 4328 969 4595 
Q 1241 4863 1831 4863 
L 2375 4863 
z
" transform="scale(0.015625)"/>
      </defs>
      <use xlink:href="#DejaVuSans-46" transform="translate(0 0.015625)"/>
      <use xlink:href="#DejaVuSans-72" transform="translate(57.519531 0.015625)"/>
      <use xlink:href="#DejaVuSans-65" transform="translate(98.632812 0.015625)"/>
      <use xlink:href="#DejaVuSans-71" transform="translate(160.15625 0.015625)"/>
      <use xlink:href="#DejaVuSans-2e" transform="translate(223.632812 0.015625)"/>
      <use xlink:href="#DejaVuSans-20" transform="translate(255.419922 0.015625)"/>
      <use xlink:href="#DejaVuSans-73" transform="translate(287.207031 0.015625)"/>
      <use xlink:href="#DejaVuSans-68" transform="translate(339.306641 0.015625)"/>
      <use xlink:href="#DejaVuSans-69" transform="translate(402.685547 0.015625)"/>
      <use xlink:href="#DejaVuSans-66" transform="translate(430.46875 0.015625)"/>
      <use xlink:href="#DejaVuSans-74" transform="translate(465.673828 0.015625)"/>
      <use xlink:href="#DejaVuSans-20" transform="translate(504.882812 0.015625)"/>
      <use xlink:href="#DejaVuSans-20" transform="translate(536.669922 0.015625)"/>
      <use xlink:href="#DejaVuSans-Oblique-3b4" transform="translate(568.457031 0.015625)"/>
      <use xlink:href="#DejaVuSans-Oblique-3c9" transform="translate(629.638672 0.015625)"/>
      <use xlink:href="#DejaVuSans-28" transform="translate(713.378906 0.015625)"/>
      <use xlink:href="#DejaVuSans-Oblique-74" transform="translate(752.392578 0.015625)"/>
      <use xlink:href="#DejaVuSans-29" transform="translate(791.601562 0.015625)"/>
     </g>
    </g>
   </g>
   <g id="line2d_7">
    <path d="M 31.62 79.329871 
L 41.238378 79.47645 
L 48.745405 79.780474 
L 54.141081 80.205459 
L 58.598378 80.768048 
L 62.351892 81.450643 
L 65.870811 82.316167 
L 68.920541 83.283065 
L 71.97027 84.487787 
L 74.785405 85.840637 
L 77.600541 87.450214 
L 80.415676 89.337116 
L 83.230811 91.515317 
L 86.045946 93.989523 
L 88.861081 96.752428 
L 91.910811 100.045479 
L 95.664324 104.450843 
L 101.763784 112.044873 
L 106.221081 117.44329 
L 109.036216 120.534197 
L 111.382162 122.799207 
L 113.493514 124.521464 
L 115.37027 125.749458 
L 117.012432 126.556087 
L 118.42 127.027648 
L 119.827568 127.280191 
L 121.235135 127.299924 
L 122.642703 127.07471 
L 124.05027 126.594313 
L 125.457838 125.850616 
L 126.865405 124.837827 
L 128.272973 123.55265 
L 129.915135 121.708291 
L 131.557297 119.496117 
L 133.199459 116.925079 
L 135.076216 113.565832 
L 137.187568 109.286034 
L 139.533514 103.97437 
L 142.114054 97.564253 
L 145.398378 88.775187 
L 156.658919 58.000802 
L 159.239459 51.845689 
L 161.585405 46.817614 
L 163.696757 42.827308 
L 165.573514 39.74637 
L 167.215676 37.430519 
L 168.857838 35.480464 
L 170.5 33.901403 
L 171.907568 32.843375 
L 173.315135 32.055166 
L 174.722703 31.531389 
L 176.13027 31.264301 
L 177.537838 31.244003 
L 178.945405 31.45866 
L 180.352973 31.894739 
L 181.995135 32.663296 
L 183.637297 33.686995 
L 185.514054 35.134114 
L 187.625405 37.064505 
L 189.971351 39.512449 
L 193.021081 43.03844 
L 197.947568 49.146506 
L 203.812432 56.337431 
L 207.331351 60.308083 
L 210.381081 63.437451 
L 213.196216 66.03362 
L 216.011351 68.335212 
L 218.826486 70.34226 
L 221.641622 72.065209 
L 224.456757 73.522203 
L 227.271892 74.736575 
L 230.321622 75.808894 
L 233.605946 76.719755 
L 237.124865 77.462206 
L 241.112973 78.07141 
L 245.804865 78.5517 
L 251.435135 78.897031 
L 259.176757 79.129544 
L 265.98 79.214129 
L 265.98 79.214129 
" clip-path="url(#p349dc1a0cd)" style="fill: none; stroke-dasharray: 8.14,3.52; stroke-dashoffset: 0; stroke: #1565c0; stroke-width: 2.2"/>
   </g>
   <g id="line2d_8">
    <path d="M 31.62 79.272 
L 265.98 79.272 
" clip-path="url(#p349dc1a0cd)" style="fill: none; stroke-dasharray: 0.6,0.99; stroke-dashoffset: 0; stroke: #1565c0; stroke-opacity: 0.5; stroke-width: 0.6"/>
   </g>
   <g id="patch_6">
    <path d="M 265.98 151.344 
L 265.98 7.2 
" style="fill: none; stroke: #1565c0; stroke-width: 0.8; stroke-linejoin: miter; stroke-linecap: square"/>
   </g>
  </g>
 </g>
 <defs>
  <clipPath id="p349dc1a0cd">
   <rect x="31.62" y="7.2" width="234.36" height="144.144"/>
  </clipPath>
 </defs>
</svg>
